<?xml version="1.0" encoding="UTF-8" standalone="no"?>
<svg width="2999px" height="1485px" viewBox="0 0 2999 1485" version="1.1" xmlns="http://www.w3.org/2000/svg" xmlns:xlink="http://www.w3.org/1999/xlink">
    <!-- Generator: Sketch 3.8.3 (29802) - http://www.bohemiancoding.com/sketch -->
    <title>Group 9 Copy 7</title>
    <desc>Created with Sketch.</desc>
    <defs></defs>
    <g id="Page-1" stroke="none" stroke-width="1" fill="none" fill-rule="evenodd" opacity="0.1">
        <g id="Group-9-Copy-7" transform="translate(-6.000000, -6.000000)">
            <rect id="Rectangle-139-Copy-2" fill="#C4EDFA" transform="translate(533.509753, 1384.226607) rotate(-109.000000) translate(-533.509753, -1384.226607) " x="509.613222" y="1294.61461" width="47.7930626" height="179.223985" rx="23.8965313"></rect>
            <rect id="Rectangle-139-Copy-9" fill="#C4EDFA" transform="translate(92.509753, 105.769425) rotate(-109.000000) translate(-92.509753, -105.769425) " x="68.6132217" y="16.1574328" width="47.7930626" height="179.223985" rx="23.8965313"></rect>
            <rect id="Rectangle-139-Copy-10" fill="#C4EDFA" transform="translate(2603.509753, 51.769425) rotate(-109.000000) translate(-2603.509753, -51.769425) " x="2579.61322" y="-37.8425672" width="47.7930626" height="179.223985" rx="23.8965313"></rect>
            <rect id="Rectangle-139-Copy-7" fill="#C4EDFA" transform="translate(2513.509753, 1383.769425) scale(-1, 1) rotate(-109.000000) translate(-2513.509753, -1383.769425) " x="2489.61322" y="1294.15743" width="47.7930626" height="179.223985" rx="23.8965313"></rect>
            <rect id="Rectangle-139-Copy-6" fill="#C4EDFA" transform="translate(2918.509753, 1005.769425) rotate(-109.000000) translate(-2918.509753, -1005.769425) " x="2894.61322" y="916.157433" width="47.7930626" height="179.223985" rx="23.8965313"></rect>
            <rect id="Rectangle-139-Copy-11" fill="#C4EDFA" transform="translate(1154.509753, 528.769425) rotate(-109.000000) translate(-1154.509753, -528.769425) " x="1130.61322" y="439.157433" width="47.7930626" height="179.223985" rx="23.8965313"></rect>
            <rect id="Rectangle-139-Copy-8" fill="#C4EDFA" transform="translate(92.509753, 768.769425) scale(-1, 1) rotate(-109.000000) translate(-92.509753, -768.769425) " x="68.6132217" y="679.157433" width="47.7930626" height="179.223985" rx="23.8965313"></rect>
            <polyline id="Path-124" stroke="#C4EDFA" stroke-width="36" stroke-linecap="round" stroke-linejoin="round" points="999 1062 1069.19156 1008 1134 1057.85864"></polyline>
            <polyline id="Path-124-Copy-2" stroke="#C4EDFA" stroke-width="36" stroke-linecap="round" stroke-linejoin="round" points="1314 144 1360.79437 108 1404 141.239095"></polyline>
            <polyline id="Path-124-Copy" stroke="#C4EDFA" stroke-width="36" stroke-linecap="round" stroke-linejoin="round" points="2070 819 2140.19156 765 2205 814.858643"></polyline>
            <path d="M1811.20991,450 C1811.20991,450 1802.14819,422.107727 1820.72413,403.056958 C1839.30007,384.006188 1863.60468,394.49536 1885.2712,377.092267 C1906.93771,359.689174 1896.47413,324 1896.47413,324" id="Path-2-Copy-3" stroke="#C4EDFA" stroke-width="44.100003" stroke-linecap="round" transform="translate(1854.000000, 387.000000) rotate(-330.000000) translate(-1854.000000, -387.000000) "></path>
            <path d="M360.681055,527.0596 C360.681055,527.0596 351.61933,499.167327 370.195271,480.116558 C388.771213,461.065789 413.075824,471.554961 434.742339,454.151868 C456.408855,436.748775 445.945276,401.0596 445.945276,401.0596" id="Path-2-Copy-4" stroke="#C4EDFA" stroke-width="44.100003" stroke-linecap="round" transform="translate(403.471143, 464.059600) rotate(-322.000000) translate(-403.471143, -464.059600) "></path>
            <path d="M1597.45707,1508.34944 C1597.45707,1508.34944 1588.39534,1480.45717 1606.97129,1461.4064 C1625.54723,1442.35563 1649.85184,1452.8448 1671.51835,1435.44171 C1693.18487,1418.03862 1682.72129,1382.34944 1682.72129,1382.34944" id="Path-2-Copy-5" stroke="#C4EDFA" stroke-width="44.100003" stroke-linecap="round" transform="translate(1640.247157, 1445.349444) rotate(-322.000000) translate(-1640.247157, -1445.349444) "></path>
        </g>
    </g>
</svg>