<?xml version="1.0" encoding="UTF-8" standalone="no"?>
<svg width="282px" height="72px" viewBox="0 0 282 72" version="1.1" xmlns="http://www.w3.org/2000/svg" xmlns:xlink="http://www.w3.org/1999/xlink">
    <!-- Generator: Sketch 3.8.3 (29802) - http://www.bohemiancoding.com/sketch -->
    <title>Group</title>
    <desc>Created with Sketch.</desc>
    <defs></defs>
    <g id="Page-1" stroke="none" stroke-width="1" fill="none" fill-rule="evenodd">
        <g id="Desktop-HD-Copy-5" transform="translate(-163.000000, -80.000000)">
            <g id="Group" transform="translate(165.000000, 82.000000)">
                <g id="Group-49">
                    <path d="M93.877,55 L93.943,55 L94.075,55 L115.459,55 C117.373,55 119.089,53.35 119.089,51.37 C119.089,49.324 117.373,47.674 115.459,47.674 L97.573,47.674 L97.573,12.43 C97.573,10.45 95.923,8.8 93.877,8.8 C91.831,8.8 90.247,10.45 90.247,12.43 L90.247,51.37 C90.247,53.35 91.831,55 93.877,55 L93.877,55 Z M147.997,22 C146.017,22 144.565,23.518 144.565,25.498 L144.565,41.074 C144.565,44.902 141.529,47.806 137.767,47.806 C134.005,47.806 130.903,44.902 130.903,41.074 L130.903,25.498 C130.903,23.518 129.451,22 127.405,22 C125.623,22 123.973,23.518 123.973,25.498 L123.973,41.074 C123.973,48.664 130.177,54.934 137.767,54.934 C139.945,54.934 142.189,54.406 144.037,53.35 C142.981,56.782 139.681,59.29 135.787,59.356 C134.467,59.356 133.213,59.026 131.959,58.432 C130.375,57.574 128.131,58.3 127.273,59.884 C126.481,61.732 127.141,63.778 128.989,64.57 C130.969,65.56 133.411,66.22 135.787,66.22 C144.565,66.22 151.561,59.29 151.561,50.446 L151.561,41.074 L151.561,25.498 C151.561,23.518 149.911,22 147.997,22 L147.997,22 Z M179.215,22 C176.641,22 174.199,22.792 172.219,24.046 C171.625,22.792 170.371,22 168.985,22 C167.005,22 165.487,23.584 165.487,25.498 L165.487,35.728 L165.487,51.502 C165.487,53.416 167.005,55 168.985,55 C170.701,55 172.153,53.746 172.483,52.162 C172.615,51.898 172.615,51.7 172.615,51.502 L172.615,35.728 C172.615,32.032 175.519,29.062 179.215,29.062 C182.977,29.062 186.079,32.032 186.079,35.728 L186.079,51.502 C186.079,53.416 187.729,55 189.577,55 C191.491,55 193.009,53.416 193.009,51.502 L193.009,35.728 C193.009,28.27 186.871,22 179.215,22 L179.215,22 Z M235.447,38.632 L235.447,25.498 C235.447,23.584 233.929,22 231.949,22 C230.233,22 228.781,23.188 228.451,24.772 C226.075,23.056 223.039,22 219.607,22 C215.251,22 211.225,23.914 208.387,26.884 C205.549,29.986 203.767,34.078 203.767,38.632 C203.767,43.252 205.549,47.344 208.387,50.248 C211.225,53.35 215.251,55.264 219.607,55.264 C222.841,55.264 225.877,54.274 228.253,52.624 C227.395,56.65 223.897,59.686 219.607,59.686 C218.221,59.686 216.967,59.356 215.845,58.762 C213.997,57.97 211.951,58.63 211.093,60.412 C210.169,62.194 210.961,64.372 212.677,65.164 C214.723,66.22 217.165,66.814 219.607,66.814 C228.385,66.814 235.447,59.62 235.447,50.974 L235.447,38.698 L235.447,38.632 L235.447,38.632 Z M225.877,45.43 C224.161,47.212 222.115,48.136 219.607,48.136 C217.297,48.136 215.119,47.212 213.535,45.43 C211.951,43.912 210.895,41.404 210.895,38.632 C210.895,35.992 211.951,33.484 213.535,31.9 C215.119,30.052 217.297,29.062 219.607,29.062 C222.115,29.062 224.161,30.052 225.877,31.9 C227.329,33.484 228.385,35.992 228.385,38.632 C228.385,41.404 227.329,43.912 225.877,45.43 L225.877,45.43 Z M263.893,55.198 C268.249,55.198 272.209,53.284 274.915,50.182 C277.885,47.278 279.535,43.186 279.535,38.566 C279.535,34.078 277.885,30.184 274.915,27.016 C272.209,23.914 268.249,22 263.893,22 C259.339,22 255.511,23.914 252.541,27.016 C249.703,30.184 247.987,34.078 247.987,38.566 C247.987,43.186 249.703,47.278 252.541,50.182 C255.511,53.284 259.339,55.198 263.893,55.198 L263.893,55.198 Z M257.557,31.702 C259.207,30.25 261.385,29.194 263.893,29.194 C266.203,29.194 268.315,30.25 269.965,31.702 C271.615,33.484 272.539,35.86 272.539,38.566 C272.539,41.404 271.615,43.714 269.965,45.562 C268.315,47.146 266.203,48.004 263.893,48.004 C261.385,48.004 259.207,47.146 257.557,45.562 C256.039,43.714 255.181,41.404 255.181,38.566 C255.181,35.86 256.039,33.484 257.557,31.702 L257.557,31.702 Z" id="Lyngo" fill="#C5EDF9"></path>
                    <g id="Group-5-Copy-4">
                        <g id="tongue" transform="translate(16.284987, 37.811362)">
                            <polygon id="tongue-fill" fill="#FF566B" points="1.8611414 2.30557088 7.90985096 0.461114175 13.9585605 2.30557088 17.215558 1.38334253 22.7989822 2.76668505 20.4725554 5.5333701 13.0279898 8.30005516 6.51399491 6.45559846"></polygon>
                            <path d="M0,3.53514276 C0,3.53514276 5.58342421,7.67593999e-09 8.84042166,0.461114173 C12.0974191,0.922228338 13.7199987,2.59759697 14.4238459,3.22779913" id="right" stroke="#231F20" stroke-width="2.06659216" stroke-linecap="round"></path>
                            <path d="M12.7267646,2.08448873 C12.7267646,2.08448873 15.9434194,0.555863686 19.1600742,1.25069325 C22.376729,1.94552281 24.1948382,4.58587509 24.1948382,4.58587509" id="right" stroke="#231F20" stroke-width="2.06659216"></path>
                        </g>
                        <path d="M58.625026,46.3179187 C58.6256442,46.2678753 58.6259542,46.2177578 58.6259542,46.1675679 L58.6259542,11.9328182 C58.6259542,5.33589786 53.2826962,0 46.6914535,0 L11.9345007,0 C5.34505458,0 0,5.34250467 0,11.9328182 L0,46.1675679 C0,52.7644882 5.34325798,58.1003861 11.9345007,58.1003861 L36.942484,58.1003861 L42.8772555,63.4269768 C51.5814631,71.2391987 58.6259542,68.0896139 58.6259542,56.4050954 L58.6259542,46.5179734 C58.6259542,46.4512164 58.6256443,46.384531 58.625026,46.3179187 Z M15.8197019,32.2779923 C15.8197019,39.6633158 21.860847,45.6503034 29.3129771,45.6503034 C36.7651072,45.6503034 42.8062523,39.6633158 42.8062523,32.2779923 L15.8197019,32.2779923 Z" id="bubble" stroke="#231F20" stroke-width="3.21469879" fill="#FFED00"></path>
                    </g>
                </g>
            </g>
        </g>
    </g>
</svg>