<?xml version="1.0" encoding="UTF-8" standalone="no"?>
<svg width="473px" height="545px" viewBox="0 0 473 545" version="1.1" xmlns="http://www.w3.org/2000/svg" xmlns:xlink="http://www.w3.org/1999/xlink">
    <!-- Generator: Sketch 3.8.3 (29802) - http://www.bohemiancoding.com/sketch -->
    <title>feature3</title>
    <desc>Created with Sketch.</desc>
    <defs></defs>
    <g id="Page-1" stroke="none" stroke-width="1" fill="none" fill-rule="evenodd">
        <g id="Desktop-HD-Copy-2" transform="translate(-1488.000000, -7394.000000)">
            <g id="feature3" transform="translate(1488.000000, 7395.000000)">
                <g id="bg" transform="translate(15.000000, 0.000000)">
                    <path d="M229,502 C355.473208,502 458,399.473208 458,273 C458,188.912077 412.678158,115.409637 345.129549,75.5877563 C311.081056,55.5151741 271.385285,44 229,44 C102.526792,44 0,146.526792 0,273 C0,399.473208 102.526792,502 229,502 Z" id="Oval-70-Copy" fill="#C4EDFA"></path>
                    <path d="M344.307644,538.320616 C341.271166,538.320616 338.913731,539.968683 338.913731,539.968683 C338.538706,540.196179 338.424794,540.080363 338.651556,539.692783 C338.651556,539.692783 340.294673,537.344123 340.294673,534.307644 C340.294673,531.271166 338.646605,528.913731 338.646605,528.913731 C338.419109,528.538706 338.534925,528.424794 338.922505,528.651556 C338.922505,528.651556 341.271166,530.294673 344.307644,530.294673 C347.344123,530.294673 349.701558,528.646605 349.701558,528.646605 C350.076583,528.419109 350.190495,528.534925 349.963732,528.922505 C349.963732,528.922505 348.320616,531.271166 348.320616,534.307644 C348.320616,537.344123 349.968683,539.701558 349.968683,539.701558 C350.196179,540.076583 350.080363,540.190495 349.692783,539.963732 C349.692783,539.963732 347.344123,538.320616 344.307644,538.320616 Z" id="Star-2-Copy-5" stroke="#224C83" stroke-width="3" transform="translate(344.307644, 534.307644) rotate(-315.000000) translate(-344.307644, -534.307644) "></path>
                    <path d="M264.307644,13.3414851 C261.255375,13.3414851 258.876909,15.0030798 258.876909,15.0030798 C258.504778,15.2290213 258.3942,15.110384 258.622142,14.7207887 C258.622142,14.7207887 260.273803,12.3599137 260.273803,9.30764426 C260.273803,6.25537484 258.612209,3.87690927 258.612209,3.87690927 C258.386267,3.50477767 258.504905,3.3942001 258.8945,3.62214204 C258.8945,3.62214204 261.255375,5.27380339 264.307644,5.27380339 C267.359914,5.27380339 269.738379,3.6122087 269.738379,3.6122087 C270.110511,3.38626719 270.221088,3.50490451 269.993146,3.89449985 C269.993146,3.89449985 268.341485,6.25537484 268.341485,9.30764426 C268.341485,12.3599137 270.00308,14.7383793 270.00308,14.7383793 C270.229021,15.1105109 270.110384,15.2210884 269.720789,14.9931465 C269.720789,14.9931465 267.359914,13.3414851 264.307644,13.3414851 Z" id="Star-2-Copy-5" stroke="#224C83" stroke-width="3" transform="translate(264.307644, 9.307644) rotate(-315.000000) translate(-264.307644, -9.307644) "></path>
                    <path d="M256.307644,53.3713068 C253.738931,53.3713068 251.844379,54.7097758 251.844379,54.7097758 C251.47205,54.9329974 251.356711,54.8175288 251.583201,54.4238376 C251.583201,54.4238376 252.912865,52.5452409 252.912865,49.9765275 C252.912865,47.4078141 251.574396,45.5132625 251.574396,45.5132625 C251.351174,45.1409332 251.466643,45.0255945 251.860334,45.2520838 C251.860334,45.2520838 253.738931,46.5817482 256.307644,46.5817482 C258.876358,46.5817482 260.770909,45.2432792 260.770909,45.2432792 C261.143239,45.0200576 261.258577,45.1355261 261.032088,45.5292174 C261.032088,45.5292174 259.702424,47.4078141 259.702424,49.9765275 C259.702424,52.5452409 261.040893,54.4397924 261.040893,54.4397924 C261.264114,54.8121217 261.148646,54.9274605 260.754954,54.7009711 C260.754954,54.7009711 258.876358,53.3713068 256.307644,53.3713068 Z" id="Star-2-Copy-5" stroke="#224C83" stroke-width="3" transform="translate(256.307644, 49.976527) rotate(-315.000000) translate(-256.307644, -49.976527) "></path>
                    <path d="M229,212 L229,265" id="Path-286" stroke="#224C83" stroke-width="4" stroke-dasharray="11"></path>
                </g>
                <g id="feature3-cloud" transform="translate(0.000000, 99.000000)" fill="#56ACE1" opacity="0.648029384">
                    <path d="M70.2253514,27 L78.2015388,27 C85.6578261,27 91.7023411,33.0425165 91.7023411,40.5 C91.7023411,47.9558441 85.6487098,54 78.2015388,54 L62.2491639,54 L232.250836,54 L218.882073,54 C211.425786,54 205.381271,47.9574835 205.381271,40.5 C205.381271,33.0441559 211.434902,27 218.882073,27 L138.03812,27 L213.827076,27 C221.273346,27 227.324415,20.9558441 227.324415,13.5 C227.324415,6.04251654 221.28145,0 213.827076,0 L13.4973385,0 C6.05106834,0 0,6.04415588 0,13.5 C0,20.9574835 6.04296427,27 13.4973385,27 L70.2253514,27 Z M101.334448,81 L271.33612,81 L257.967357,81 C250.520187,81 244.466555,87.0441559 244.466555,94.5 C244.466555,101.957483 250.51107,108 257.967357,108 L271.33612,108 L101.334448,108 L117.286823,108 C124.733994,108 130.787625,101.955844 130.787625,94.5 C130.787625,87.0425165 124.74311,81 117.286823,81 L101.334448,81 L101.334448,81 Z M27.6588629,67.5 C27.6588629,60.0441559 33.6955112,54 41.1661785,54 L368.378972,54 C375.838856,54 381.886288,60.0425165 381.886288,67.5 C381.886288,74.9558441 375.849639,81 368.378972,81 L41.1661785,81 C33.7062941,81 27.6588629,74.9574835 27.6588629,67.5 Z M80.3344482,121.5 C80.3344482,114.044156 86.3880795,108 93.8352505,108 L293.158061,108 C300.614348,108 306.658863,114.042517 306.658863,121.5 C306.658863,128.955844 300.605232,135 293.158061,135 L93.8352505,135 C86.3789632,135 80.3344482,128.957483 80.3344482,121.5 Z" id="Combined-Shape"></path>
                </g>
                <g id="feature3-stars" transform="translate(61.000000, 10.000000)" stroke-width="3">
                    <path d="M8.30764426,283.320616 C5.27116595,283.320616 2.91373054,284.968683 2.91373054,284.968683 C2.5387055,285.196179 2.42479368,285.080363 2.65155636,284.692783 C2.65155636,284.692783 4.29467273,282.344123 4.29467273,279.307644 C4.29467273,276.271166 2.64660534,273.913731 2.64660534,273.913731 C2.41910948,273.538706 2.53492536,273.424794 2.9225051,273.651556 C2.9225051,273.651556 5.27116595,275.294673 8.30764426,275.294673 C11.3441226,275.294673 13.701558,273.646605 13.701558,273.646605 C14.076583,273.419109 14.1904948,273.534925 13.9637322,273.922505 C13.9637322,273.922505 12.3206158,276.271166 12.3206158,279.307644 C12.3206158,282.344123 13.9686832,284.701558 13.9686832,284.701558 C14.1961791,285.076583 14.0803632,285.190495 13.6927834,284.963732 C13.6927834,284.963732 11.3441226,283.320616 8.30764426,283.320616 Z" id="Star-2-Copy-5" stroke="#224C83" transform="translate(8.307644, 279.307644) rotate(-315.000000) translate(-8.307644, -279.307644) "></path>
                    <path d="M28.3076443,183.320616 C25.271166,183.320616 22.9137305,184.968683 22.9137305,184.968683 C22.5387055,185.196179 22.4247937,185.080363 22.6515564,184.692783 C22.6515564,184.692783 24.2946727,182.344123 24.2946727,179.307644 C24.2946727,176.271166 22.6466053,173.913731 22.6466053,173.913731 C22.4191095,173.538706 22.5349254,173.424794 22.9225051,173.651556 C22.9225051,173.651556 25.271166,175.294673 28.3076443,175.294673 C31.3441226,175.294673 33.701558,173.646605 33.701558,173.646605 C34.076583,173.419109 34.1904948,173.534925 33.9637322,173.922505 C33.9637322,173.922505 32.3206158,176.271166 32.3206158,179.307644 C32.3206158,182.344123 33.9686832,184.701558 33.9686832,184.701558 C34.1961791,185.076583 34.0803632,185.190495 33.6927834,184.963732 C33.6927834,184.963732 31.3441226,183.320616 28.3076443,183.320616 Z" id="Star-2-Copy-5" stroke="#224C83" transform="translate(28.307644, 179.307644) rotate(-315.000000) translate(-28.307644, -179.307644) "></path>
                    <path d="M108.307644,153.320616 C105.271166,153.320616 102.913731,154.968683 102.913731,154.968683 C102.538706,155.196179 102.424794,155.080363 102.651556,154.692783 C102.651556,154.692783 104.294673,152.344123 104.294673,149.307644 C104.294673,146.271166 102.646605,143.913731 102.646605,143.913731 C102.419109,143.538706 102.534925,143.424794 102.922505,143.651556 C102.922505,143.651556 105.271166,145.294673 108.307644,145.294673 C111.344123,145.294673 113.701558,143.646605 113.701558,143.646605 C114.076583,143.419109 114.190495,143.534925 113.963732,143.922505 C113.963732,143.922505 112.320616,146.271166 112.320616,149.307644 C112.320616,152.344123 113.968683,154.701558 113.968683,154.701558 C114.196179,155.076583 114.080363,155.190495 113.692783,154.963732 C113.692783,154.963732 111.344123,153.320616 108.307644,153.320616 Z" id="Star-2-Copy-5" stroke="#224C83" transform="translate(108.307644, 149.307644) rotate(-315.000000) translate(-108.307644, -149.307644) "></path>
                    <path d="M278.307644,183.320616 C275.271166,183.320616 272.913731,184.968683 272.913731,184.968683 C272.538706,185.196179 272.424794,185.080363 272.651556,184.692783 C272.651556,184.692783 274.294673,182.344123 274.294673,179.307644 C274.294673,176.271166 272.646605,173.913731 272.646605,173.913731 C272.419109,173.538706 272.534925,173.424794 272.922505,173.651556 C272.922505,173.651556 275.271166,175.294673 278.307644,175.294673 C281.344123,175.294673 283.701558,173.646605 283.701558,173.646605 C284.076583,173.419109 284.190495,173.534925 283.963732,173.922505 C283.963732,173.922505 282.320616,176.271166 282.320616,179.307644 C282.320616,182.344123 283.968683,184.701558 283.968683,184.701558 C284.196179,185.076583 284.080363,185.190495 283.692783,184.963732 C283.692783,184.963732 281.344123,183.320616 278.307644,183.320616 Z" id="Star-2-Copy-5" stroke="#224C83" transform="translate(278.307644, 179.307644) rotate(-315.000000) translate(-278.307644, -179.307644) "></path>
                    <path d="M78.3076443,483.320616 C75.271166,483.320616 72.9137305,484.968683 72.9137305,484.968683 C72.5387055,485.196179 72.4247937,485.080363 72.6515564,484.692783 C72.6515564,484.692783 74.2946727,482.344123 74.2946727,479.307644 C74.2946727,476.271166 72.6466053,473.913731 72.6466053,473.913731 C72.4191095,473.538706 72.5349254,473.424794 72.9225051,473.651556 C72.9225051,473.651556 75.271166,475.294673 78.3076443,475.294673 C81.3441226,475.294673 83.701558,473.646605 83.701558,473.646605 C84.076583,473.419109 84.1904948,473.534925 83.9637322,473.922505 C83.9637322,473.922505 82.3206158,476.271166 82.3206158,479.307644 C82.3206158,482.344123 83.9686832,484.701558 83.9686832,484.701558 C84.1961791,485.076583 84.0803632,485.190495 83.6927834,484.963732 C83.6927834,484.963732 81.3441226,483.320616 78.3076443,483.320616 Z" id="Star-2-Copy-5" stroke="#56ACE1" transform="translate(78.307644, 479.307644) rotate(-315.000000) translate(-78.307644, -479.307644) "></path>
                    <path d="M248.307644,93.3206158 C245.271166,93.3206158 242.913731,94.9686832 242.913731,94.9686832 C242.538706,95.1961791 242.424794,95.0803632 242.651556,94.6927834 C242.651556,94.6927834 244.294673,92.3441226 244.294673,89.3076443 C244.294673,86.271166 242.646605,83.9137305 242.646605,83.9137305 C242.419109,83.5387055 242.534925,83.4247937 242.922505,83.6515564 C242.922505,83.6515564 245.271166,85.2946727 248.307644,85.2946727 C251.344123,85.2946727 253.701558,83.6466053 253.701558,83.6466053 C254.076583,83.4191095 254.190495,83.5349254 253.963732,83.9225051 C253.963732,83.9225051 252.320616,86.271166 252.320616,89.3076443 C252.320616,92.3441226 253.968683,94.701558 253.968683,94.701558 C254.196179,95.076583 254.080363,95.1904948 253.692783,94.9637322 C253.692783,94.9637322 251.344123,93.3206158 248.307644,93.3206158 Z" id="Star-2-Copy-5" stroke="#224C83" transform="translate(248.307644, 89.307644) rotate(-315.000000) translate(-248.307644, -89.307644) "></path>
                    <path d="M128.307644,73.8073322 C122.686661,73.8073322 117.738578,77.198013 117.738578,77.198013 C117.366946,77.4314443 117.260026,77.3198399 117.488343,76.9477783 C117.488343,76.9477783 120.879024,71.9996949 120.879024,66.3787121 C120.879024,60.7577293 117.488343,55.8096458 117.488343,55.8096458 C117.254912,55.4380138 117.366516,55.3310934 117.738578,55.5594111 C117.738578,55.5594111 122.686661,58.9500919 128.307644,58.9500919 C133.928627,58.9500919 138.876711,55.5594111 138.876711,55.5594111 C139.248343,55.3259799 139.355263,55.4375842 139.126945,55.8096458 C139.126945,55.8096458 135.736264,60.7577293 135.736264,66.3787121 C135.736264,71.9996949 139.126945,76.9477783 139.126945,76.9477783 C139.360376,77.3194104 139.248772,77.4263308 138.876711,77.198013 C138.876711,77.198013 133.928627,73.8073322 128.307644,73.8073322 Z" id="Star-2-Copy-5" stroke="#224C83" transform="translate(128.307644, 66.378712) rotate(-315.000000) translate(-128.307644, -66.378712) "></path>
                    <path d="M178.307644,17.527824 C174.227889,17.527824 170.828566,19.8752182 170.828566,19.8752182 C170.452774,20.1073782 170.338374,19.9984032 170.568497,19.6151495 C170.568497,19.6151495 172.915892,16.2158262 172.915892,12.1360714 C172.915892,8.0563166 170.568497,4.65699327 170.568497,4.65699327 C170.336337,4.28120136 170.445312,4.16680096 170.828566,4.39692453 C170.828566,4.39692453 174.227889,6.7443188 178.307644,6.7443188 C182.387399,6.7443188 185.786722,4.39692453 185.786722,4.39692453 C186.162514,4.16476461 186.276915,4.27373957 186.046791,4.65699327 C186.046791,4.65699327 183.699397,8.0563166 183.699397,12.1360714 C183.699397,16.2158262 186.046791,19.6151495 186.046791,19.6151495 C186.278951,19.9909414 186.169976,20.1053418 185.786722,19.8752182 C185.786722,19.8752182 182.387399,17.527824 178.307644,17.527824 Z" id="Star-2-Copy-5" stroke="#56ACE1" transform="translate(178.307644, 12.136071) rotate(-315.000000) translate(-178.307644, -12.136071) "></path>
                    <path d="M260.307644,43.3713068 C257.738931,43.3713068 255.844379,44.7097758 255.844379,44.7097758 C255.47205,44.9329974 255.356711,44.8175288 255.583201,44.4238376 C255.583201,44.4238376 256.912865,42.5452409 256.912865,39.9765275 C256.912865,37.4078141 255.574396,35.5132625 255.574396,35.5132625 C255.351174,35.1409332 255.466643,35.0255945 255.860334,35.2520838 C255.860334,35.2520838 257.738931,36.5817482 260.307644,36.5817482 C262.876358,36.5817482 264.770909,35.2432792 264.770909,35.2432792 C265.143239,35.0200576 265.258577,35.1355261 265.032088,35.5292174 C265.032088,35.5292174 263.702424,37.4078141 263.702424,39.9765275 C263.702424,42.5452409 265.040893,44.4397924 265.040893,44.4397924 C265.264114,44.8121217 265.148646,44.9274605 264.754954,44.7009711 C264.754954,44.7009711 262.876358,43.3713068 260.307644,43.3713068 Z" id="Star-2-Copy-5" stroke="#56ACE1" transform="translate(260.307644, 39.976527) rotate(-315.000000) translate(-260.307644, -39.976527) "></path>
                </g>
                <g id="feature3-head" transform="translate(128.000000, 273.000000)" stroke="#224C83" stroke-width="4">
                    <g transform="translate(0.000000, 8.000000)">
                        <rect id="Rectangle-269" fill="#FEFFFF" x="77" y="188" width="47" height="63" rx="23.5"></rect>
                        <circle id="Oval-71" fill="#FEFFFF" cx="189.5" cy="128.5" r="20.5"></circle>
                        <circle id="Oval-71-Copy" fill="#FEFFFF" cx="20.5" cy="128.5" r="20.5"></circle>
                        <rect id="Rectangle-265" fill="#FEFFFF" x="20" y="0" width="169" height="233" rx="84.5"></rect>
                        <path d="M95.3895896,116.035069 C93.4509567,123.299266 86.8413809,128.648582 78.9827517,128.648582 C70.8402232,128.648582 64.59633,123.711172 62.9434862,116.035069" id="Rectangle-268" transform="translate(79.166538, 122.341825) scale(1, -1) translate(-79.166538, -122.341825) "></path>
                        <path d="M173.446103,116 C171.50747,123.264197 164.897895,128.613513 157.039265,128.613513 C148.896737,128.613513 142.652844,123.676103 141,116" id="Rectangle-268-Copy" transform="translate(157.223052, 122.306757) scale(1, -1) translate(-157.223052, -122.306757) "></path>
                        <path d="M127.5,135.613513 C126.454387,141.372573 122.889472,145.613513 118.650874,145.613513 C114.259152,145.613513 110.891471,141.699132 110,135.613513" id="Rectangle-268-Copy-2" transform="translate(118.750000, 140.613513) scale(1, -1) translate(-118.750000, -140.613513) "></path>
                        <path d="M148,163.490868 C148,180.892881 133.89552,195 116.49217,195 L115.50783,195 C98.1065359,195 84,180.889358 84,163.490868" id="Rectangle-438"></path>
                    </g>
                    <path d="M20,41.993662 C20,18.8012029 38.7986843,0 62.0030293,0 L228.724074,0 C228.724074,0 233.362387,41.5339806 204.604848,41.5339806 C175.847309,41.5339806 226.868749,41.5339806 226.868749,41.5339806 L227.211206,51.0336189 C228.04674,74.2110112 209.922307,93 186.725734,93 C186.725734,93 118.796062,93 89.3801078,93 C59.9641539,93 61.7448148,53.2718447 61.7448148,53.2718447 C61.7448148,53.2718447 60.8171523,93 43.1915638,93 C25.5659753,93 20,93 20,93 L20,41.993662 Z" id="Rectangle-272" fill="#D8D8D8"></path>
                    <path d="M95,14 L147,14" id="Path-283"></path>
                    <path d="M140,81 L190,81 C216,81 216,54 216,54" id="Path-283-Copy-2"></path>
                    <path d="M157,14 L174,14" id="Path-283-Copy"></path>
                </g>
                <g id="feature3-eyebrows" transform="translate(184.000000, 376.000000)" stroke="#224C83" stroke-width="4" fill="#D8D8D8">
                    <rect id="Rectangle-272" x="0" y="0" width="41" height="9" rx="4.5"></rect>
                    <rect id="Rectangle-272-Copy" x="81" y="0" width="41" height="9" rx="4.5"></rect>
                </g>
                <g id="feature3-brain" transform="translate(196.000000, 84.000000)" stroke="#224C83" stroke-width="4">
                    <path d="M47.9497382,118.247523 C50.1747892,119.774786 52.8744443,120.66943 55.7846628,120.66943 C63.4003752,120.66943 69.57413,114.542822 69.57413,106.985268 C69.57413,105.847889 69.4343009,104.742919 69.1707716,103.686364 C76.8506486,101.509546 82.7584337,95.1645001 84.2507738,87.2743921 C89.4677175,82.7699618 92.7655066,76.1330671 92.7655066,68.7318145 C92.7655066,66.4831866 92.4611045,64.3051126 91.8909625,62.2359595 C94.4260655,58.3803878 95.8994764,53.774736 95.8994764,48.8275787 C95.8994764,40.3283678 91.5506744,32.8371174 84.9407761,28.4255903 C85.1403516,27.1692564 85.2439791,25.8812831 85.2439791,24.5692912 C85.2439791,11.0000463 74.159283,0 60.4856175,0 C55.9112085,0 51.626552,1.23110355 47.9497382,3.37764935 C44.2729211,1.23110258 39.9882661,0 35.4138589,0 C21.7401934,0 10.6554974,11.0000463 10.6554974,24.5692912 C10.6554974,25.8812831 10.7591248,27.1692564 10.9587003,28.4255903 C4.34880204,32.8371174 0,40.3283678 0,48.8275787 C0,53.774736 1.47341091,58.3803878 4.00851395,62.2359595 C3.43837192,64.3051126 3.13396982,66.4831866 3.13396982,68.7318145 C3.13396982,76.1330671 6.43175894,82.7699618 11.6487026,87.2743921 C13.1410428,95.1645001 19.0488278,101.509546 26.7287049,103.686364 C26.4651755,104.742919 26.3253465,105.847889 26.3253465,106.985268 C26.3253465,114.542822 32.4991012,120.66943 40.1148137,120.66943 C43.0250321,120.66943 45.7246873,119.774786 47.9497382,118.247523 Z" id="Combined-Shape" fill="#FFEC00"></path>
                    <path d="M91.6774869,61.7573766 C87.1001951,57.6247727 80.8209424,58.1553041 80.8209424,58.1553041" id="Path-85-Copy-5" stroke-linecap="round" transform="translate(86.249215, 59.945269) scale(-1, -1) translate(-86.249215, -59.945269) "></path>
                    <path d="M28.4481675,87.5390331 C28.4481675,87.5390331 24.5788358,90.6732889 21.8324607,83.0364424 C19.0860856,75.3995958 12.1633508,76.7328155 12.1633508,76.7328155" id="Path-85-Copy" stroke-linecap="round" transform="translate(20.305759, 82.409749) scale(-1, 1) translate(-20.305759, -82.409749) "></path>
                    <path d="M84.0376963,87.5390331 C84.0376963,87.5390331 80.1683646,90.6732889 77.4219895,83.0364424 C74.6756144,75.3995958 67.7528796,76.7328155 67.7528796,76.7328155" id="Path-85-Copy-2" stroke-linecap="round"></path>
                    <path d="M73.5675393,102.89551 C73.5675393,102.89551 69.4593599,106.029766 66.5434555,98.3929191 C63.6275511,90.7560725 56.2774869,92.0892922 56.2774869,92.0892922" id="Path-85-Copy-6" stroke-linecap="round"></path>
                    <path d="M40.913089,102.89551 C40.913089,102.89551 37.0437573,106.029766 34.2973822,98.3929191 C31.5510071,90.7560725 24.6282723,92.0892922 24.6282723,92.0892922" id="Path-85-Copy-7" stroke-linecap="round" transform="translate(32.770681, 97.766225) scale(-1, 1) translate(-32.770681, -97.766225) "></path>
                    <path d="M85.947644,39.4136444 C85.947644,39.4136444 79.4987578,42.5479003 74.921466,34.9110538 C70.3441741,27.2742072 58.8062827,28.6074269 58.8062827,28.6074269" id="Path-85-Copy-3" stroke-linecap="round" transform="translate(72.376963, 34.284360) scale(1, -1) translate(-72.376963, -34.284360) "></path>
                    <path d="M14.7769634,62.2573766 C10.1996715,58.1247727 3.92041885,58.6553041 3.92041885,58.6553041" id="Path-85-Copy-5" stroke-linecap="round" transform="translate(9.348691, 60.445269) scale(1, -1) translate(-9.348691, -60.445269) "></path>
                    <path d="M38.0984293,38.9136444 C38.0984293,38.9136444 31.6495432,42.0479003 27.0722513,34.4110538 C22.4949595,26.7742072 10.9570681,28.1074269 10.9570681,28.1074269" id="Path-85-Copy-4" stroke-linecap="round" transform="translate(24.527749, 33.784360) scale(-1, -1) translate(-24.527749, -33.784360) "></path>
                    <path d="M48,2 L48,118.517166" id="Path-271"></path>
                </g>
            </g>
        </g>
    </g>
</svg>