<?xml version="1.0" encoding="UTF-8" standalone="no"?>
<svg width="475px" height="549px" viewBox="0 0 475 549" version="1.1" xmlns="http://www.w3.org/2000/svg" xmlns:xlink="http://www.w3.org/1999/xlink">
    <!-- Generator: Sketch 3.8.3 (29802) - http://www.bohemiancoding.com/sketch -->
    <title>feature1</title>
    <desc>Created with Sketch.</desc>
    <defs></defs>
    <g id="Page-1" stroke="none" stroke-width="1" fill="none" fill-rule="evenodd">
        <g id="Desktop-HD-Copy-2" transform="translate(-307.000000, -7404.000000)">
            <g id="feature1" transform="translate(307.000000, 7405.000000)">
                <g id="bg">
                    <path d="M229,483 C355.473208,483 458,380.473208 458,254 C458,169.912077 412.678158,96.4096372 345.129549,56.5877563 C311.081056,36.5151741 271.385285,25 229,25 C102.526792,25 0,127.526792 0,254 C0,380.473208 102.526792,483 229,483 Z" id="circle" fill="#C4EDFA"></path>
                    <path d="M174.307644,537.807332 C168.686661,537.807332 163.738578,541.198013 163.738578,541.198013 C163.366946,541.431444 163.260026,541.31984 163.488343,540.947778 C163.488343,540.947778 166.879024,535.999695 166.879024,530.378712 C166.879024,524.757729 163.488343,519.809646 163.488343,519.809646 C163.254912,519.438014 163.366516,519.331093 163.738578,519.559411 C163.738578,519.559411 168.686661,522.950092 174.307644,522.950092 C179.928627,522.950092 184.876711,519.559411 184.876711,519.559411 C185.248343,519.32598 185.355263,519.437584 185.126945,519.809646 C185.126945,519.809646 181.736264,524.757729 181.736264,530.378712 C181.736264,535.999695 185.126945,540.947778 185.126945,540.947778 C185.360376,541.31941 185.248772,541.426331 184.876711,541.198013 C184.876711,541.198013 179.928627,537.807332 174.307644,537.807332 Z" id="Star-2-Copy-5" stroke="#56ACE1" stroke-width="3" transform="translate(174.307644, 530.378712) rotate(-315.000000) translate(-174.307644, -530.378712) "></path>
                    <path d="M234.307644,23.8073322 C228.686661,23.8073322 223.738578,27.198013 223.738578,27.198013 C223.366946,27.4314443 223.260026,27.3198399 223.488343,26.9477783 C223.488343,26.9477783 226.879024,21.9996949 226.879024,16.3787121 C226.879024,10.7577293 223.488343,5.80964583 223.488343,5.80964583 C223.254912,5.43801375 223.366516,5.3310934 223.738578,5.55941114 C223.738578,5.55941114 228.686661,8.9500919 234.307644,8.9500919 C239.928627,8.9500919 244.876711,5.55941114 244.876711,5.55941114 C245.248343,5.32597986 245.355263,5.43758424 245.126945,5.80964583 C245.126945,5.80964583 241.736264,10.7577293 241.736264,16.3787121 C241.736264,21.9996949 245.126945,26.9477783 245.126945,26.9477783 C245.360376,27.3194104 245.248772,27.4263308 244.876711,27.198013 C244.876711,27.198013 239.928627,23.8073322 234.307644,23.8073322 Z" id="Star-2-Copy-5" stroke="#56ACE1" stroke-width="3" transform="translate(234.307644, 16.378712) rotate(-315.000000) translate(-234.307644, -16.378712) "></path>
                    <path d="M278,143 C278,143 391.0961,143 423.04805,143 C455,143 455,183.860764 423.04805,183.860764 C391.0961,183.860764 319.840971,183.860764 297.920486,183.860764 C276,183.860764 273.840971,217.985523 297.920486,217.985525 C322,217.985527 433.152404,217.985523 456.076202,217.985525 C479,217.985527 478,251 456.076202,251 C434.152405,251 335,252 295,252 C255,252 221,319 221,319" id="Path-292" stroke="#224C83" stroke-width="4" stroke-dasharray="15"></path>
                </g>
                <g id="feature1-target" transform="translate(28.000000, 105.000000)">
                    <ellipse id="Oval-88" stroke="#224C83" stroke-width="4" fill="#FEFFFF" cx="97.5" cy="97.5" rx="97.5" ry="97.5"></ellipse>
                    <ellipse id="Oval-91" fill="#C4EDFA" cx="97.5" cy="98.5" rx="7.5" ry="7.5"></ellipse>
                    <ellipse id="Oval-89" stroke="#C4EDFA" stroke-width="21" cx="97" cy="98" rx="67" ry="67"></ellipse>
                    <ellipse id="Oval-89-Copy" stroke="#FFEC00" stroke-width="21" cx="97" cy="98" rx="47" ry="47"></ellipse>
                    <g id="Group-26" transform="translate(98.000000, 24.000000)">
                        <path d="M0,75 L137,16" id="Path-287" stroke="#224C83" stroke-width="4"></path>
                        <polyline id="Path-288" fill="#FFEC00" points="135 15 140 0 106 15 100 30"></polyline>
                        <polyline id="Path-288-Copy" fill="#FFEC00" transform="translate(126.353553, 28.646447) scale(-1, 1) rotate(-135.000000) translate(-126.353553, -28.646447) " points="141.728553 28.6464466 146.853553 13.6464466 112.003553 28.6464466 105.853553 43.6464466"></polyline>
                    </g>
                </g>
                <g id="feature1-cloud1" transform="translate(192.000000, 296.000000)" fill="#56ACE1" opacity="0.648029384">
                    <path d="M132.66255,81 L72.1456827,81 L83.503074,81 C88.8116234,81 93.1150531,87.0425165 93.1150531,94.5 C93.1150531,101.955844 88.805133,108 83.503074,108 L72.1456827,108 L193.179417,108 L183.661444,108 C178.352895,108 174.049465,101.957483 174.049465,94.5 C174.049465,87.0441559 178.359385,81 183.661444,81 L193.179417,81 L132.66255,81 L262.269671,81 C267.588459,81 271.886288,74.9558441 271.886288,67.5 C271.886288,60.0425165 267.580782,54 262.269671,54 L29.3085136,54 C23.9897261,54 19.6918973,60.0441559 19.6918973,67.5 C19.6918973,74.9574835 23.9974031,81 29.3085136,81 L132.66255,81 Z M98.2770873,27 L44.3186745,27 L44.3186745,27 L55.6760658,27 C60.9846153,27 65.2880449,33.0425165 65.2880449,40.5 C65.2880449,47.9558441 60.9781249,54 55.6760658,54 L44.3186745,54 L165.352409,54 L155.834436,54 C150.525887,54 146.222457,47.9574835 146.222457,40.5 C146.222457,33.0441559 150.532377,27 155.834436,27 L98.2770873,27 L152.2355,27 C157.536918,27 161.845013,20.9558441 161.845013,13.5 C161.845013,6.04251654 157.542688,0 152.2355,0 L9.60951302,0 C4.30809526,0 0,6.04415588 0,13.5 C0,20.9574835 4.30232552,27 9.60951302,27 L98.2770873,27 Z M57.1946037,121.5 C57.1946037,114.044156 61.5045237,108 66.8065828,108 L208.715681,108 C214.024231,108 218.327661,114.042517 218.327661,121.5 C218.327661,128.955844 214.017741,135 208.715681,135 L66.8065828,135 C61.4980333,135 57.1946037,128.957483 57.1946037,121.5 Z" id="Combined-Shape" transform="translate(135.943144, 67.500000) scale(-1, 1) translate(-135.943144, -67.500000) "></path>
                </g>
                <g id="feature1-stars" transform="translate(67.000000, 68.000000)" stroke="#56ACE1" stroke-width="3">
                    <path d="M187.307644,163.320616 C184.271166,163.320616 181.913731,164.968683 181.913731,164.968683 C181.538706,165.196179 181.424794,165.080363 181.651556,164.692783 C181.651556,164.692783 183.294673,162.344123 183.294673,159.307644 C183.294673,156.271166 181.646605,153.913731 181.646605,153.913731 C181.419109,153.538706 181.534925,153.424794 181.922505,153.651556 C181.922505,153.651556 184.271166,155.294673 187.307644,155.294673 C190.344123,155.294673 192.701558,153.646605 192.701558,153.646605 C193.076583,153.419109 193.190495,153.534925 192.963732,153.922505 C192.963732,153.922505 191.320616,156.271166 191.320616,159.307644 C191.320616,162.344123 192.968683,164.701558 192.968683,164.701558 C193.196179,165.076583 193.080363,165.190495 192.692783,164.963732 C192.692783,164.963732 190.344123,163.320616 187.307644,163.320616 Z" id="Star-2-Copy-5" transform="translate(187.307644, 159.307644) rotate(-315.000000) translate(-187.307644, -159.307644) "></path>
                    <path d="M37.3076443,23.8073322 C31.6866614,23.8073322 26.738578,27.198013 26.738578,27.198013 C26.3669459,27.4314443 26.2600256,27.3198399 26.4883433,26.9477783 C26.4883433,26.9477783 29.8790241,21.9996949 29.8790241,16.3787121 C29.8790241,10.7577293 26.4883433,5.80964583 26.4883433,5.80964583 C26.2549121,5.43801375 26.3665164,5.3310934 26.738578,5.55941114 C26.738578,5.55941114 31.6866614,8.9500919 37.3076443,8.9500919 C42.9286271,8.9500919 47.8767105,5.55941114 47.8767105,5.55941114 C48.2483426,5.32597986 48.3552629,5.43758424 48.1269452,5.80964583 C48.1269452,5.80964583 44.7362644,10.7577293 44.7362644,16.3787121 C44.7362644,21.9996949 48.1269452,26.9477783 48.1269452,26.9477783 C48.3603765,27.3194104 48.2487721,27.4263308 47.8767105,27.198013 C47.8767105,27.198013 42.9286271,23.8073322 37.3076443,23.8073322 Z" id="Star-2-Copy-5" transform="translate(37.307644, 16.378712) rotate(-315.000000) translate(-37.307644, -16.378712) "></path>
                    <path d="M27.3076443,253.060093 C22.0730624,253.060093 17.5114216,256.189984 17.5114216,256.189984 C17.1397665,256.42267 17.0294088,256.315309 17.2597959,255.938358 C17.2597959,255.938358 20.3896868,251.376717 20.3896868,246.142136 C20.3896868,240.907554 17.2597959,236.345913 17.2597959,236.345913 C17.0271099,235.974258 17.1344714,235.8639 17.5114216,236.094287 C17.5114216,236.094287 22.0730624,239.224178 27.3076443,239.224178 C32.5422261,239.224178 37.1038669,236.094287 37.1038669,236.094287 C37.475522,235.861601 37.5858797,235.968963 37.3554926,236.345913 C37.3554926,236.345913 34.2256018,240.907554 34.2256018,246.142136 C34.2256018,251.376717 37.3554926,255.938358 37.3554926,255.938358 C37.5881786,256.310013 37.4808172,256.420371 37.1038669,256.189984 C37.1038669,256.189984 32.5422261,253.060093 27.3076443,253.060093 Z" id="Star-2-Copy-5" transform="translate(27.307644, 246.142136) rotate(-315.000000) translate(-27.307644, -246.142136) "></path>
                    <path d="M77.3076443,261.486716 C74.7231398,261.486716 72.8169415,262.833414 72.8169415,262.833414 C72.4423233,263.058008 72.3262755,262.941829 72.5452984,262.561771 C72.5452984,262.561771 73.8919956,260.655572 73.8919956,258.071068 C73.8919956,255.486563 72.5452984,253.580365 72.5452984,253.580365 C72.3207045,253.205747 72.4368829,253.089699 72.8169415,253.308722 C72.8169415,253.308722 74.7231398,254.655419 77.3076443,254.655419 C79.8921488,254.655419 81.798347,253.308722 81.798347,253.308722 C82.1729652,253.084128 82.289013,253.200306 82.0699901,253.580365 C82.0699901,253.580365 80.7232929,255.486563 80.7232929,258.071068 C80.7232929,260.655572 82.0699901,262.561771 82.0699901,262.561771 C82.294584,262.936389 82.1784056,263.052437 81.798347,262.833414 C81.798347,262.833414 79.8921488,261.486716 77.3076443,261.486716 Z" id="Star-2-Copy-5" transform="translate(77.307644, 258.071068) rotate(-315.000000) translate(-77.307644, -258.071068) "></path>
                    <path d="M7.30764426,131.486716 C4.72313975,131.486716 2.81694148,132.833414 2.81694148,132.833414 C2.44232329,133.058008 2.32627552,132.941829 2.54529842,132.561771 C2.54529842,132.561771 3.89199562,130.655572 3.89199562,128.071068 C3.89199562,125.486563 2.54529842,123.580365 2.54529842,123.580365 C2.32070455,123.205747 2.43688295,123.089699 2.81694148,123.308722 C2.81694148,123.308722 4.72313975,124.655419 7.30764426,124.655419 C9.89214877,124.655419 11.798347,123.308722 11.798347,123.308722 C12.1729652,123.084128 12.289013,123.200306 12.0699901,123.580365 C12.0699901,123.580365 10.7232929,125.486563 10.7232929,128.071068 C10.7232929,130.655572 12.0699901,132.561771 12.0699901,132.561771 C12.294584,132.936389 12.1784056,133.052437 11.798347,132.833414 C11.798347,132.833414 9.89214877,131.486716 7.30764426,131.486716 Z" id="Star-2-Copy-5" transform="translate(7.307644, 128.071068) rotate(-315.000000) translate(-7.307644, -128.071068) "></path>
                    <path d="M67.3076443,21.4867165 C64.7231398,21.4867165 62.8169415,22.8334137 62.8169415,22.8334137 C62.4423233,23.0580075 62.3262755,22.9418291 62.5452984,22.5617706 C62.5452984,22.5617706 63.8919956,20.6555723 63.8919956,18.0710678 C63.8919956,15.4865633 62.5452984,13.580365 62.5452984,13.580365 C62.3207045,13.2057468 62.4368829,13.0896991 62.8169415,13.308722 C62.8169415,13.308722 64.7231398,14.6554192 67.3076443,14.6554192 C69.8921488,14.6554192 71.798347,13.308722 71.798347,13.308722 C72.1729652,13.0841281 72.289013,13.2003065 72.0699901,13.580365 C72.0699901,13.580365 70.7232929,15.4865633 70.7232929,18.0710678 C70.7232929,20.6555723 72.0699901,22.5617706 72.0699901,22.5617706 C72.294584,22.9363888 72.1784056,23.0524366 71.798347,22.8334137 C71.798347,22.8334137 69.8921488,21.4867165 67.3076443,21.4867165 Z" id="Star-2-Copy-5" transform="translate(67.307644, 18.071068) rotate(-315.000000) translate(-67.307644, -18.071068) "></path>
                </g>
                <g id="feature1-a" transform="translate(57.000000, 385.000000)" stroke="#224C83" stroke-width="4" fill="#FFFFFF">
                    <path d="M96.9195,11.462 C96.9195,5.372 92.0475,0.5 86.1605,0.5 C80.8825,0.5 76.8225,4.357 75.6045,9.432 C67.8905,3.951 58.7555,0.5 48.6055,0.5 C34.8015,0.5 22.8245,6.387 14.0955,15.725 C5.3665,24.86 0.2915,37.446 0.2915,51.453 C0.2915,65.257 5.3665,77.843 14.0955,87.181 C22.8245,96.316 34.8015,102 48.6055,102 C58.7555,102 67.8905,98.752 75.6045,93.271 C76.8225,98.143 80.8825,102 86.1605,102 C92.0475,102 96.9195,97.128 96.9195,91.241 L96.9195,51.453 L96.9195,51.453 L96.9195,11.462 Z M67.4845,72.362 C62.6125,77.437 55.7105,80.279 48.6055,80.279 C41.2975,80.279 34.3955,77.437 29.7265,72.362 C24.8545,67.084 22.0125,59.776 22.0125,51.453 C22.0125,42.927 24.8545,35.619 29.7265,30.544 C34.3955,25.063 41.2975,22.221 48.6055,22.221 C55.7105,22.221 62.6125,25.063 67.4845,30.544 C72.3565,35.619 75.4015,42.927 75.4015,51.453 C75.4015,59.776 72.3565,67.084 67.4845,72.362 L67.4845,72.362 Z" id="a"></path>
                </g>
                <g id="feature1-b" transform="translate(205.000000, 398.000000)" stroke="#224C83" stroke-width="4" fill="#FFFFFF">
                    <path d="M0.889,132.038 C0.889,137.925 5.761,143 11.851,143 C17.332,143 21.595,139.143 22.61,134.271 C30.324,139.549 40.068,143 50.218,143 C77.623,143 99.547,119.858 99.547,92.453 C99.547,64.642 77.623,41.5 50.218,41.5 C40.271,41.5 30.527,44.748 23.016,50.026 L23.016,11.862 C23.016,5.975 18.144,0.9 11.851,0.9 C5.761,0.9 0.889,5.975 0.889,11.862 L0.889,92.25 C0.889,92.25 0.889,92.25 0.889,92.453 L0.889,132.038 Z M31.136,71.95 C36.211,66.672 42.707,63.627 50.218,63.627 C57.526,63.627 64.225,66.672 69.3,71.95 C74.375,77.025 77.42,84.333 77.42,92.453 C77.42,100.167 74.375,107.475 69.3,112.55 C64.225,117.828 57.526,120.873 50.218,120.873 C42.707,120.873 36.211,117.828 31.136,112.55 C26.061,107.475 23.016,100.167 23.016,92.453 C23.016,84.333 26.061,77.025 31.136,71.95 L31.136,71.95 Z" id="b"></path>
                </g>
                <g id="feature1-c" transform="translate(357.000000, 353.000000)" stroke="#224C83" stroke-width="4" fill="#FFFFFF">
                    <path d="M52.3795,102 C64.5595,102 75.9275,97.534 84.6565,91.241 C89.3255,87.181 90.1375,80.685 86.8895,76.219 C82.8295,71.347 76.1305,70.535 71.6645,73.986 C66.3865,77.843 59.6875,80.482 52.3795,80.482 C35.9365,80.482 22.3355,67.084 22.3355,51.453 C22.3355,35.822 35.9365,22.221 52.3795,22.221 C59.8905,22.221 66.3865,24.86 71.6645,28.717 C76.3335,32.371 82.8295,31.559 86.8895,26.687 C90.1375,22.221 89.3255,15.319 84.6565,11.665 C75.9275,4.966 64.5595,0.5 52.3795,0.5 C24.3655,0.703 0.8175,23.236 0.8175,51.453 C0.8175,79.264 24.3655,102 52.3795,102 L52.3795,102 Z" id="c"></path>
                </g>
            </g>
        </g>
    </g>
</svg>