<?xml version="1.0" encoding="UTF-8" standalone="no"?>
<svg width="473px" height="545px" viewBox="0 0 473 545" version="1.1" xmlns="http://www.w3.org/2000/svg" xmlns:xlink="http://www.w3.org/1999/xlink">
    <!-- Generator: Sketch 3.8.3 (29802) - http://www.bohemiancoding.com/sketch -->
    <title>feature2</title>
    <desc>Created with Sketch.</desc>
    <defs></defs>
    <g id="Page-1" stroke="none" stroke-width="1" fill="none" fill-rule="evenodd">
        <g id="Desktop-HD-Copy-2" transform="translate(-883.000000, -7395.000000)">
            <g id="feature2" transform="translate(883.000000, 7396.000000)">
                <g id="bg" transform="translate(15.000000, 0.000000)">
                    <path d="M229,493 C355.473208,493 458,390.473208 458,264 C458,179.912077 412.678158,106.409637 345.129549,66.5877563 C311.081056,46.5151741 271.385285,35 229,35 C102.526792,35 0,137.526792 0,264 C0,390.473208 102.526792,493 229,493 Z" id="Oval-70" fill="#C4EDFA"></path>
                    <path d="M182.307644,21.8371539 C177.170217,21.8371539 172.716516,24.8950833 172.716516,24.8950833 C172.338905,25.1311108 172.230161,25.0160081 172.460156,24.6387234 C172.460156,24.6387234 175.518086,20.1850221 175.518086,15.0475953 C175.518086,9.91016851 172.460156,5.45646725 172.460156,5.45646725 C172.224129,5.07885607 172.339231,4.97011236 172.716516,5.20010729 C172.716516,5.20010729 177.170217,8.2580367 182.307644,8.2580367 C187.445071,8.2580367 191.898772,5.20010729 191.898772,5.20010729 C192.276383,4.9640798 192.385127,5.07918251 192.155132,5.45646725 C192.155132,5.45646725 189.097203,9.91016851 189.097203,15.0475953 C189.097203,20.1850221 192.155132,24.6387234 192.155132,24.6387234 C192.39116,25.0163345 192.276057,25.1250782 191.898772,24.8950833 C191.898772,24.8950833 187.445071,21.8371539 182.307644,21.8371539 Z" id="Star-2-Copy-5" stroke="#56ACE1" stroke-width="3" transform="translate(182.307644, 15.047595) rotate(-315.000000) translate(-182.307644, -15.047595) "></path>
                    <path d="M282.307644,41.303001 C274.601504,41.303001 267.567845,46.103119 267.567845,46.103119 C267.196444,46.3393999 267.093922,46.225862 267.323188,45.858462 C267.323188,45.858462 272.123306,38.8248033 272.123306,31.1186631 C272.123306,23.4125229 267.323188,16.3788642 267.323188,16.3788642 C267.086907,16.007463 267.200445,15.9049404 267.567845,16.1342072 C267.567845,16.1342072 274.601504,20.9343252 282.307644,20.9343252 C290.013784,20.9343252 297.047443,16.1342072 297.047443,16.1342072 C297.418844,15.8979263 297.521367,16.0114642 297.2921,16.3788642 C297.2921,16.3788642 292.491982,23.4125229 292.491982,31.1186631 C292.491982,38.8248033 297.2921,45.858462 297.2921,45.858462 C297.528381,46.2298633 297.414843,46.3323858 297.047443,46.103119 C297.047443,46.103119 290.013784,41.303001 282.307644,41.303001 Z" id="Star-2-Copy-5" stroke="#56ACE1" stroke-width="3" transform="translate(282.307644, 31.118663) rotate(-315.000000) translate(-282.307644, -31.118663) "></path>
                    <path d="M282.307644,531.303001 C274.601504,531.303001 267.567845,536.103119 267.567845,536.103119 C267.196444,536.3394 267.093922,536.225862 267.323188,535.858462 C267.323188,535.858462 272.123306,528.824803 272.123306,521.118663 C272.123306,513.412523 267.323188,506.378864 267.323188,506.378864 C267.086907,506.007463 267.200445,505.90494 267.567845,506.134207 C267.567845,506.134207 274.601504,510.934325 282.307644,510.934325 C290.013784,510.934325 297.047443,506.134207 297.047443,506.134207 C297.418844,505.897926 297.521367,506.011464 297.2921,506.378864 C297.2921,506.378864 292.491982,513.412523 292.491982,521.118663 C292.491982,528.824803 297.2921,535.858462 297.2921,535.858462 C297.528381,536.229863 297.414843,536.332386 297.047443,536.103119 C297.047443,536.103119 290.013784,531.303001 282.307644,531.303001 Z" id="Star-2-Copy-5" stroke="#56ACE1" stroke-width="3" transform="translate(282.307644, 521.118663) rotate(-315.000000) translate(-282.307644, -521.118663) "></path>
                </g>
                <g id="feature2-cloud" transform="translate(0.000000, 97.000000)" fill="#56ACE1" opacity="0.648029384">
                    <path d="M69.8366002,27 L77.7212479,27 C85.091962,27 91.0671064,33.0425165 91.0671064,40.5 C91.0671064,47.9558441 85.0829504,54 77.7212479,54 L61.9519526,54 L230.002578,54 L216.787243,54 C209.416529,54 203.441385,47.9574835 203.441385,40.5 C203.441385,33.0441559 209.425541,27 216.787243,27 L136.871107,27 L211.79026,27 C219.151072,27 225.132695,20.9558441 225.132695,13.5 C225.132695,6.04251654 219.159084,0 211.79026,0 L13.7596341,0 C6.39882207,0 0.417199641,6.04415588 0.417199641,13.5 C0.417199641,20.9574835 6.39081102,27 13.7596341,27 L69.8366002,27 Z M100.588669,81 L268.639294,81 L255.42396,81 C248.062257,81 242.078101,87.0441559 242.078101,94.5 C242.078101,101.957483 248.053246,108 255.42396,108 L268.639294,108 L100.588669,108 L116.357965,108 C123.719667,108 129.703823,101.955844 129.703823,94.5 C129.703823,87.0425165 123.728679,81 116.357965,81 L100.588669,81 L100.588669,81 Z M27.7586318,67.5 C27.7586318,60.0441559 33.7765382,54 41.2240113,54 L367.420908,54 C374.857632,54 380.886288,60.0425165 380.886288,67.5 C380.886288,74.9558441 374.868381,81 367.420908,81 L41.2240113,81 C33.7872876,81 27.7586318,74.9574835 27.7586318,67.5 Z M79.8296786,121.5 C79.8296786,114.044156 85.8138347,108 93.1755371,108 L290.210792,108 C297.581506,108 303.556651,114.042517 303.556651,121.5 C303.556651,128.955844 297.572494,135 290.210792,135 L93.1755371,135 C85.804823,135 79.8296786,128.957483 79.8296786,121.5 Z" id="Combined-Shape" transform="translate(190.651744, 67.500000) scale(-1, 1) translate(-190.651744, -67.500000) "></path>
                </g>
                <g id="feature2-speech" transform="translate(228.000000, 115.000000)" stroke="#224C83">
                    <path d="M60,0 L229.506869,0 L229.506857,150.24063 L88.1533101,150.24063 L37.5961214,198.906864 L37.5961219,150.24063 L0,150.240634 L0.0124975701,94.7276335 L0.0124975701,94.7276335 L0.0173497527,73.1747066 L0.0235183442,45.7744183 L0.0338234799,0 L26,0 M33,0 L41,0" id="Path-215" stroke-width="4" fill="#FEFFFF"></path>
                    <path d="M44.8780488,76.7228916 L184.771189,76.7228916" id="Path-216-Copy" stroke-width="6.4"></path>
                    <path d="M45,45.9437751 L184.89314,45.9437751" id="Path-216-Copy-3" stroke-width="6.4"></path>
                    <path d="M44.8780488,99.1004016 L184.771189,99.1004016" id="Path-216-Copy-2" stroke-width="6.4"></path>
                </g>
                <g id="feature2-stars" transform="translate(176.000000, 59.000000)" stroke-width="3">
                    <path d="M75.550285,372.320616 C72.5138066,372.320616 70.1563712,373.968683 70.1563712,373.968683 C69.7813462,374.196179 69.6674344,374.080363 69.894197,373.692783 C69.894197,373.692783 71.5373134,371.344123 71.5373134,368.307644 C71.5373134,365.271166 69.889246,362.913731 69.889246,362.913731 C69.6617502,362.538706 69.777566,362.424794 70.1651458,362.651556 C70.1651458,362.651556 72.5138066,364.294673 75.550285,364.294673 C78.5867633,364.294673 80.9441987,362.646605 80.9441987,362.646605 C81.3192237,362.419109 81.4331355,362.534925 81.2063729,362.922505 C81.2063729,362.922505 79.5632565,365.271166 79.5632565,368.307644 C79.5632565,371.344123 81.2113239,373.701558 81.2113239,373.701558 C81.4388197,374.076583 81.3230039,374.190495 80.9354241,373.963732 C80.9354241,373.963732 78.5867633,372.320616 75.550285,372.320616 Z" id="Star-2-Copy-5" stroke="#56ACE1" transform="translate(75.550285, 368.307644) rotate(-315.000000) translate(-75.550285, -368.307644) "></path>
                    <path d="M11.3076443,87.527824 C7.22788948,87.527824 3.82856615,89.8752182 3.82856615,89.8752182 C3.45277423,90.1073782 3.33837384,89.9984032 3.56849741,89.6151495 C3.56849741,89.6151495 5.91589167,86.2158262 5.91589167,82.1360714 C5.91589167,78.0563166 3.56849741,74.6569933 3.56849741,74.6569933 C3.33633749,74.2812014 3.44531244,74.166801 3.82856615,74.3969245 C3.82856615,74.3969245 7.22788948,76.7443188 11.3076443,76.7443188 C15.387399,76.7443188 18.7867224,74.3969245 18.7867224,74.3969245 C19.1625143,74.1647646 19.2769147,74.2737396 19.0467911,74.6569933 C19.0467911,74.6569933 16.6993969,78.0563166 16.6993969,82.1360714 C16.6993969,86.2158262 19.0467911,89.6151495 19.0467911,89.6151495 C19.278951,89.9909414 19.1699761,90.1053418 18.7867224,89.8752182 C18.7867224,89.8752182 15.387399,87.527824 11.3076443,87.527824 Z" id="Star-2-Copy-5" stroke="#224C83" transform="translate(11.307644, 82.136071) rotate(-315.000000) translate(-11.307644, -82.136071) "></path>
                    <path d="M71.3076443,31.3713068 C68.7389309,31.3713068 66.8443793,32.7097758 66.8443793,32.7097758 C66.47205,32.9329974 66.3567113,32.8175288 66.5832006,32.4238376 C66.5832006,32.4238376 67.912865,30.5452409 67.912865,27.9765275 C67.912865,25.4078141 66.574396,23.5132625 66.574396,23.5132625 C66.3511743,23.1409332 66.4666429,23.0255945 66.8603342,23.2520838 C66.8603342,23.2520838 68.7389309,24.5817482 71.3076443,24.5817482 C73.8763577,24.5817482 75.7709092,23.2432792 75.7709092,23.2432792 C76.1432385,23.0200576 76.2585772,23.1355261 76.0320879,23.5292174 C76.0320879,23.5292174 74.7024236,25.4078141 74.7024236,27.9765275 C74.7024236,30.5452409 76.0408926,32.4397924 76.0408926,32.4397924 C76.2641142,32.8121217 76.1486456,32.9274605 75.7549544,32.7009711 C75.7549544,32.7009711 73.8763577,31.3713068 71.3076443,31.3713068 Z" id="Star-2-Copy-5" stroke="#224C83" transform="translate(71.307644, 27.976527) rotate(-315.000000) translate(-71.307644, -27.976527) "></path>
                    <path d="M191.307644,381.837154 C186.170217,381.837154 181.716516,384.895083 181.716516,384.895083 C181.338905,385.131111 181.230161,385.016008 181.460156,384.638723 C181.460156,384.638723 184.518086,380.185022 184.518086,375.047595 C184.518086,369.910169 181.460156,365.456467 181.460156,365.456467 C181.224129,365.078856 181.339231,364.970112 181.716516,365.200107 C181.716516,365.200107 186.170217,368.258037 191.307644,368.258037 C196.445071,368.258037 200.898772,365.200107 200.898772,365.200107 C201.276383,364.96408 201.385127,365.079183 201.155132,365.456467 C201.155132,365.456467 198.097203,369.910169 198.097203,375.047595 C198.097203,380.185022 201.155132,384.638723 201.155132,384.638723 C201.39116,385.016335 201.276057,385.125078 200.898772,384.895083 C200.898772,384.895083 196.445071,381.837154 191.307644,381.837154 Z" id="Star-2-Copy-5" stroke="#224C83" transform="translate(191.307644, 375.047595) rotate(-315.000000) translate(-191.307644, -375.047595) "></path>
                    <path d="M191.307644,311.371307 C188.738931,311.371307 186.844379,312.709776 186.844379,312.709776 C186.47205,312.932997 186.356711,312.817529 186.583201,312.423838 C186.583201,312.423838 187.912865,310.545241 187.912865,307.976527 C187.912865,305.407814 186.574396,303.513263 186.574396,303.513263 C186.351174,303.140933 186.466643,303.025595 186.860334,303.252084 C186.860334,303.252084 188.738931,304.581748 191.307644,304.581748 C193.876358,304.581748 195.770909,303.243279 195.770909,303.243279 C196.143239,303.020058 196.258577,303.135526 196.032088,303.529217 C196.032088,303.529217 194.702424,305.407814 194.702424,307.976527 C194.702424,310.545241 196.040893,312.439792 196.040893,312.439792 C196.264114,312.812122 196.148646,312.92746 195.754954,312.700971 C195.754954,312.700971 193.876358,311.371307 191.307644,311.371307 Z" id="Star-2-Copy-5" stroke="#56ACE1" transform="translate(191.307644, 307.976527) rotate(-315.000000) translate(-191.307644, -307.976527) "></path>
                    <path d="M185.550285,12.3206158 C182.513807,12.3206158 180.156371,13.9686832 180.156371,13.9686832 C179.781346,14.1961791 179.667434,14.0803632 179.894197,13.6927834 C179.894197,13.6927834 181.537313,11.3441226 181.537313,8.30764426 C181.537313,5.27116595 179.889246,2.91373054 179.889246,2.91373054 C179.66175,2.5387055 179.777566,2.42479368 180.165146,2.65155636 C180.165146,2.65155636 182.513807,4.29467273 185.550285,4.29467273 C188.586763,4.29467273 190.944199,2.64660534 190.944199,2.64660534 C191.319224,2.41910948 191.433136,2.53492536 191.206373,2.9225051 C191.206373,2.9225051 189.563256,5.27116595 189.563256,8.30764426 C189.563256,11.3441226 191.211324,13.701558 191.211324,13.701558 C191.43882,14.076583 191.323004,14.1904948 190.935424,13.9637322 C190.935424,13.9637322 188.586763,12.3206158 185.550285,12.3206158 Z" id="Star-2-Copy-5" stroke="#56ACE1" transform="translate(185.550285, 8.307644) rotate(-315.000000) translate(-185.550285, -8.307644) "></path>
                    <path d="M165.550285,262.320616 C162.513807,262.320616 160.156371,263.968683 160.156371,263.968683 C159.781346,264.196179 159.667434,264.080363 159.894197,263.692783 C159.894197,263.692783 161.537313,261.344123 161.537313,258.307644 C161.537313,255.271166 159.889246,252.913731 159.889246,252.913731 C159.66175,252.538706 159.777566,252.424794 160.165146,252.651556 C160.165146,252.651556 162.513807,254.294673 165.550285,254.294673 C168.586763,254.294673 170.944199,252.646605 170.944199,252.646605 C171.319224,252.419109 171.433136,252.534925 171.206373,252.922505 C171.206373,252.922505 169.563256,255.271166 169.563256,258.307644 C169.563256,261.344123 171.211324,263.701558 171.211324,263.701558 C171.43882,264.076583 171.323004,264.190495 170.935424,263.963732 C170.935424,263.963732 168.586763,262.320616 165.550285,262.320616 Z" id="Star-2-Copy-5" stroke="#56ACE1" transform="translate(165.550285, 258.307644) rotate(-315.000000) translate(-165.550285, -258.307644) "></path>
                </g>
                <g id="feature2-head" transform="translate(25.000000, 221.000000)" stroke="#224C83" stroke-width="4">
                    <path d="M153,103 L199,103 L199,174.009969 C199,191.677575 204.218432,219.335992 210.660203,235.798296 L217,252 L153,252 L153,103 Z" id="Rectangle-266-Copy" fill="#FFEC00"></path>
                    <ellipse id="Oval-71" fill="#FEFFFF" cx="189.5" cy="142.5" rx="20.5" ry="20.5"></ellipse>
                    <ellipse id="Oval-71-Copy" fill="#FEFFFF" cx="20.5" cy="142.5" rx="20.5" ry="20.5"></ellipse>
                    <rect id="Rectangle-269" fill="#FEFFFF" x="77" y="231" width="47" height="63" rx="23.5"></rect>
                    <rect id="Rectangle-265" fill="#FEFFFF" x="20" y="10" width="167" height="265" rx="83.5"></rect>
                    <path d="M95.3895896,130.035069 C93.4509567,137.299266 86.8413809,142.648582 78.9827517,142.648582 C70.8402232,142.648582 64.59633,137.711172 62.9434862,130.035069" id="Rectangle-268"></path>
                    <path d="M7,97 L40,91 C40,91 38,151 40,201 C42,251 74,256 74,256 L40.5,256 C21.9984609,256 7,241.005883 7,222.498735 L7,97 Z" id="Rectangle-266" fill="#FFEC00"></path>
                    <path d="M173.446103,130 C171.50747,137.264197 164.897895,142.613513 157.039265,142.613513 C148.896737,142.613513 142.652844,137.676103 141,130" id="Rectangle-268-Copy"></path>
                    <path d="M127.5,149.613513 C126.454387,155.372573 122.889472,159.613513 118.650874,159.613513 C114.259152,159.613513 110.891471,155.699132 110,149.613513" id="Rectangle-268-Copy-2" transform="translate(118.750000, 154.613513) scale(1, -1) translate(-118.750000, -154.613513) "></path>
                    <path d="M7,103 C7,47.7678642 49.6175855,0 102.170845,0 L109.780846,0 C162.342252,0 204,48.7801955 204,104 L92.6521739,104 C58.3913043,104 58.3913043,54.4434319 58.3913043,54.4434319 C58.3913043,54.4434319 57,103 25,103 L7,103 Z" id="Rectangle-265" fill="#FFEC00"></path>
                    <path d="M77,64 C77,64 76,91 100,91 L132,91" id="Path-258"></path>
                </g>
                <g id="feature2-mouth" transform="translate(110.000000, 407.000000)" stroke="#224C83" stroke-width="4" fill="#7DC3EA">
                    <path d="M21.5062874,6.63556686 C21.5062874,6.63556686 25.2996828,13 32.5,13.0000003 C39.7003171,13.0000005 43.5045864,6.62702496 43.5045864,6.62702496 C56.375537,-4.76496636 66.0408094,-0.396330847 64.3143909,16.3702299 L62.8461153,30.6297701 C61.1190323,47.4027849 48.6698399,61 35.0385253,61 L29.9614747,61 C16.3308498,61 3.88030314,47.3963308 2.1538847,30.6297701 L0.685609057,16.3702299 C-1.04147394,-0.402784903 8.36298679,-4.44281358 21.5062874,6.63556686 Z" id="Rectangle-267"></path>
                </g>
            </g>
        </g>
    </g>
</svg>