<?xml version="1.0" encoding="UTF-8" standalone="no"?>
<svg width="473px" height="535px" viewBox="0 0 473 535" version="1.1" xmlns="http://www.w3.org/2000/svg" xmlns:xlink="http://www.w3.org/1999/xlink">
    <!-- Generator: Sketch 3.8.3 (29802) - http://www.bohemiancoding.com/sketch -->
    <title>feature4</title>
    <desc>Created with Sketch.</desc>
    <defs></defs>
    <g id="Page-1" stroke="none" stroke-width="1" fill="none" fill-rule="evenodd">
        <g id="Desktop-HD-Copy-2" transform="translate(-2092.000000, -7404.000000)">
            <g id="feature4" transform="translate(2092.000000, 7396.000000)">
                <g id="bg" transform="translate(11.000000, 48.000000)" fill="#C4EDFA">
                    <path d="M229,458 C355.473208,458 458,355.473208 458,229 C458,144.912077 412.678158,71.4096372 345.129549,31.5877563 C311.081056,11.5151741 271.385285,0 229,0 C102.526792,0 0,102.526792 0,229 C0,355.473208 102.526792,458 229,458 Z" id="Oval-70-Copy-2"></path>
                </g>
                <g id="feature4-cloud1" transform="translate(0.000000, 92.000000)" fill="#56ACE1" opacity="0.648029384">
                    <path d="M70.2253514,27 L78.2015388,27 C85.6578261,27 91.7023411,33.0425165 91.7023411,40.5 C91.7023411,47.9558441 85.6487098,54 78.2015388,54 L62.2491639,54 L232.250836,54 L218.882073,54 C211.425786,54 205.381271,47.9574835 205.381271,40.5 C205.381271,33.0441559 211.434902,27 218.882073,27 L138.03812,27 L213.827076,27 C221.273346,27 227.324415,20.9558441 227.324415,13.5 C227.324415,6.04251654 221.28145,0 213.827076,0 L13.4973385,0 C6.05106834,0 1.8189894e-12,6.04415588 1.8189894e-12,13.5 C1.8189894e-12,20.9574835 6.04296427,27 13.4973385,27 L70.2253514,27 Z M101.334448,81 L271.33612,81 L257.967357,81 C250.520187,81 244.466555,87.0441559 244.466555,94.5 C244.466555,101.957483 250.51107,108 257.967357,108 L271.33612,108 L101.334448,108 L117.286823,108 C124.733994,108 130.787625,101.955844 130.787625,94.5 C130.787625,87.0425165 124.74311,81 117.286823,81 L101.334448,81 L101.334448,81 Z M27.6588629,67.5 C27.6588629,60.0441559 33.6955112,54 41.1661785,54 L368.378972,54 C375.838856,54 381.886288,60.0425165 381.886288,67.5 C381.886288,74.9558441 375.849639,81 368.378972,81 L41.1661785,81 C33.7062941,81 27.6588629,74.9574835 27.6588629,67.5 Z M80.3344482,121.5 C80.3344482,114.044156 86.3880795,108 93.8352505,108 L293.158061,108 C300.614348,108 306.658863,114.042517 306.658863,121.5 C306.658863,128.955844 300.605232,135 293.158061,135 L93.8352505,135 C86.3789632,135 80.3344482,128.957483 80.3344482,121.5 Z" id="Combined-Shape" transform="translate(190.943144, 67.500000) scale(-1, 1) translate(-190.943144, -67.500000) "></path>
                </g>
                <g id="feature4-rocket" transform="translate(151.000000, 0.000000)">
                    <g id="Group-34" transform="translate(0.000000, 181.000000)" stroke-width="4">
                        <path d="M42,0 L1.79796401,79.8695735 C0.804975906,81.8423476 1.78726769,83.441597 3.99155592,83.441597 L81.0483588,83.4415963 L42,0 Z" id="Mask" stroke="#224C83" fill="#FFFFFF"></path>
                        <path d="M19,67 L72.0094331,67" id="Path-310" stroke="#D8D8D8" stroke-linecap="round"></path>
                        <path d="M32,74 L85.0094331,74" id="Path-310" stroke="#D8D8D8" stroke-linecap="round"></path>
                    </g>
                    <g id="Group-34-Copy" transform="translate(82.000000, 181.000000)" stroke-width="4">
                        <path d="M42,0 L0,83.441597 L77.0568028,83.4415964 C79.2612783,83.4415964 80.2858617,81.8122328 79.3516838,79.8160082 L42,0 Z" id="Mask" stroke="#224C83" fill="#FFFFFF"></path>
                        <path d="M6,74 L59.0094331,74" id="Path-310" stroke="#D8D8D8" stroke-linecap="round"></path>
                    </g>
                    <path d="M81,268 C115.793939,268 144,208.006156 144,134 C144,59.9938435 97.6143035,18.6456273 97.6143035,18.6456273 C88.438477,8.34793171 73.2907284,8.11348081 64.3753909,18.6585142 C64.3753909,18.6585142 18,59.9938435 18,134 C18,208.006156 46.2060608,268 81,268 Z" id="Mask" stroke="#224C83" stroke-width="4" fill="#FFFFFF"></path>
                    <circle id="Oval-100" stroke="#224C83" stroke-width="4" cx="81" cy="116" r="24"></circle>
                    <path d="M132.807808,68.0761557 C128.237723,52.8189232 122.050561,54.2310812 116.110265,44.4639096 C106.26322,28.2731736 97.3649122,19.6145984 97.3649122,19.6145984 C88.3268256,9.3340396 73.576052,9.24724021 64.6339289,19.6164207 C64.6339289,19.6164207 55.7333633,28.2793001 45.8911304,44.4598307 C39.9511974,54.2250201 33.7636488,52.8119807 29.1931077,68.0698976" id="Mask" fill="#FFEC00"></path>
                    <path d="M29,74 L132.5,74" id="Path-310-Copy" stroke="#D8D8D8" stroke-width="4"></path>
                    <path d="M34,226 L129.538462,226" id="Path-310-Copy-2" stroke="#D8D8D8" stroke-width="4"></path>
                    <circle id="Oval-101" fill="#C4EDFA" cx="81.5" cy="116.5" r="13.5"></circle>
                    <rect id="Rectangle-292" fill="#224C83" x="61" y="262" width="41" height="19"></rect>
                    <path d="M81,268 C115.793939,268 144,208.006156 144,134 C144,59.9938435 97.6143035,18.6456273 97.6143035,18.6456273 C88.438477,8.34793171 73.2907284,8.11348081 64.3753909,18.6585142 C64.3753909,18.6585142 18,59.9938435 18,134 C18,208.006156 46.2060608,268 81,268 Z" id="Mask" stroke="#224C83" stroke-width="4"></path>
                </g>
                <g id="feature4-cloud2" transform="translate(156.000000, 210.000000)" fill="#56ACE1" opacity="0.648029384">
                    <path d="M92.2253514,27 L100.201539,27 C107.657826,27 113.702341,33.0425165 113.702341,40.5 C113.702341,47.9558441 107.64871,54 100.201539,54 L84.2491639,54 L254.250836,54 L240.882073,54 C233.425786,54 227.381271,47.9574835 227.381271,40.5 C227.381271,33.0441559 233.434902,27 240.882073,27 L161.73656,27 L239.223957,27 C247.554643,27 254.324415,20.9558441 254.324415,13.5 C254.324415,6.04251654 247.56371,0 239.223957,0 L15.1004577,0 C6.76977181,0 0,6.04415588 0,13.5 C0,20.9574835 6.7607052,27 15.1004577,27 L92.2253514,27 Z M49.6588629,67.5 C49.6588629,60.0441559 54.2148185,54 59.8530513,54 L306.805812,54 C312.435906,54 317,60.0425165 317,67.5 C317,74.9558441 312.444044,81 306.805812,81 L59.8530513,81 C54.2229565,81 49.6588629,74.9574835 49.6588629,67.5 Z" id="Combined-Shape-Copy-2" transform="translate(158.500000, 40.500000) scale(-1, 1) translate(-158.500000, -40.500000) "></path>
                </g>
                <g id="feature4-stars1" transform="translate(122.000000, 252.000000)">
                    <circle id="Oval-102-Copy-15" fill="#7DC3EA" cx="126" cy="18" r="2"></circle>
                    <path d="M93,11 C94.1045695,11 95,10.1045695 95,9 C95,7.8954305 94.1045695,7 93,7 C91.8954305,7 91,7.8954305 91,9 C91,10.1045695 91.8954305,11 93,11 Z" id="Oval-102-Copy-2" fill="#7DC3EA"></path>
                    <circle id="Oval-102-Copy-17" fill="#224C83" cx="112" cy="186" r="2"></circle>
                    <circle id="Oval-102-Copy-17" fill="#224C83" cx="62" cy="176" r="2"></circle>
                    <circle id="Oval-102-Copy-17" fill="#7DC3EA" cx="62" cy="256" r="2"></circle>
                    <circle id="Oval-102-Copy-17" fill="#224C83" cx="42" cy="206" r="2"></circle>
                    <circle id="Oval-102-Copy-17" fill="#224C83" cx="52" cy="226" r="2"></circle>
                    <circle id="Oval-102-Copy-17" fill="#224C83" cx="82" cy="220" r="2"></circle>
                    <circle id="Oval-102-Copy-17" fill="#224C83" cx="94" cy="246" r="2"></circle>
                    <circle id="Oval-102-Copy-17" fill="#224C83" cx="159" cy="176" r="2"></circle>
                    <circle id="Oval-102-Copy-17" fill="#7DC3EA" cx="219" cy="206" r="2"></circle>
                    <circle id="Oval-102-Copy-17" fill="#224C83" cx="89" cy="116" r="2"></circle>
                    <circle id="Oval-102-Copy-10" fill="#56ACE1" cx="112" cy="15" r="2"></circle>
                    <circle id="Oval-102-Copy-12" fill="#224C83" cx="97" cy="22" r="2"></circle>
                    <circle id="Oval-102-Copy-14" fill="#56ACE1" cx="105" cy="2" r="2"></circle>
                    <path d="M84.1696981,278.18267 C81.1332198,278.18267 78.7757844,279.830737 78.7757844,279.830737 C78.4007593,280.058233 78.2868475,279.942417 78.5136102,279.554837 C78.5136102,279.554837 80.1567265,277.206176 80.1567265,274.169698 C80.1567265,271.13322 78.5086592,268.775784 78.5086592,268.775784 C78.2811633,268.400759 78.3969792,268.286847 78.7845589,268.51361 C78.7845589,268.51361 81.1332198,270.156727 84.1696981,270.156727 C87.2061764,270.156727 89.5636118,268.508659 89.5636118,268.508659 C89.9386368,268.281163 90.0525487,268.396979 89.825786,268.784559 C89.825786,268.784559 88.1826696,271.13322 88.1826696,274.169698 C88.1826696,277.206176 89.830737,279.563612 89.830737,279.563612 C90.0582329,279.938637 89.942417,280.052549 89.5548372,279.825786 C89.5548372,279.825786 87.2061764,278.18267 84.1696981,278.18267 Z" id="Star-2-Copy-5" stroke="#7DC3EA" stroke-width="3" transform="translate(84.169698, 274.169698) rotate(-315.000000) translate(-84.169698, -274.169698) "></path>
                    <path d="M44.1696981,68.1826696 C41.1332198,68.1826696 38.7757844,69.830737 38.7757844,69.830737 C38.4007593,70.0582329 38.2868475,69.942417 38.5136102,69.5548372 C38.5136102,69.5548372 40.1567265,67.2061764 40.1567265,64.1696981 C40.1567265,61.1332198 38.5086592,58.7757844 38.5086592,58.7757844 C38.2811633,58.4007593 38.3969792,58.2868475 38.7845589,58.5136102 C38.7845589,58.5136102 41.1332198,60.1567265 44.1696981,60.1567265 C47.2061764,60.1567265 49.5636118,58.5086592 49.5636118,58.5086592 C49.9386368,58.2811633 50.0525487,58.3969792 49.825786,58.7845589 C49.825786,58.7845589 48.1826696,61.1332198 48.1826696,64.1696981 C48.1826696,67.2061764 49.830737,69.5636118 49.830737,69.5636118 C50.0582329,69.9386368 49.942417,70.0525487 49.5548372,69.825786 C49.5548372,69.825786 47.2061764,68.1826696 44.1696981,68.1826696 Z" id="Star-2-Copy-5" stroke="#224C83" stroke-width="3" transform="translate(44.169698, 64.169698) rotate(-315.000000) translate(-44.169698, -64.169698) "></path>
                    <path d="M14.7159375,128.144558 C9.0949547,128.144558 4.14687128,131.535238 4.14687128,131.535238 C3.7752392,131.76867 3.66831884,131.657065 3.89663658,131.285004 C3.89663658,131.285004 7.28731735,126.33692 7.28731735,120.715938 C7.28731735,115.094955 3.89663658,110.146871 3.89663658,110.146871 C3.66320531,109.775239 3.77480969,109.668319 4.14687128,109.896637 C4.14687128,109.896637 9.0949547,113.287317 14.7159375,113.287317 C20.3369203,113.287317 25.2850038,109.896637 25.2850038,109.896637 C25.6566358,109.663205 25.7635562,109.77481 25.5352385,110.146871 C25.5352385,110.146871 22.1445577,115.094955 22.1445577,120.715938 C22.1445577,126.33692 25.5352385,131.285004 25.5352385,131.285004 C25.7686697,131.656636 25.6570654,131.763556 25.2850038,131.535238 C25.2850038,131.535238 20.3369203,128.144558 14.7159375,128.144558 Z" id="Star-2-Copy-5" stroke="#56ACE1" stroke-width="3" transform="translate(14.715938, 120.715938) rotate(-333.000000) translate(-14.715938, -120.715938) "></path>
                    <path d="M124.724601,250.737573 C121.688123,250.737573 119.330688,252.38564 119.330688,252.38564 C118.955663,252.613136 118.841751,252.49732 119.068513,252.10974 C119.068513,252.10974 120.71163,249.76108 120.71163,246.724601 C120.71163,243.688123 119.063562,241.330688 119.063562,241.330688 C118.836067,240.955663 118.951882,240.841751 119.339462,241.068513 C119.339462,241.068513 121.688123,242.71163 124.724601,242.71163 C127.76108,242.71163 130.118515,241.063562 130.118515,241.063562 C130.49354,240.836067 130.607452,240.951882 130.380689,241.339462 C130.380689,241.339462 128.737573,243.688123 128.737573,246.724601 C128.737573,249.76108 130.38564,252.118515 130.38564,252.118515 C130.613136,252.49354 130.49732,252.607452 130.10974,252.380689 C130.10974,252.380689 127.76108,250.737573 124.724601,250.737573 Z" id="Star-2-Copy-5" stroke="#224C83" stroke-width="3" transform="translate(124.724601, 246.724601) rotate(-334.000000) translate(-124.724601, -246.724601) "></path>
                    <path d="M144.169698,128.18267 C141.13322,128.18267 138.775784,129.830737 138.775784,129.830737 C138.400759,130.058233 138.286847,129.942417 138.51361,129.554837 C138.51361,129.554837 140.156727,127.206176 140.156727,124.169698 C140.156727,121.13322 138.508659,118.775784 138.508659,118.775784 C138.281163,118.400759 138.396979,118.286847 138.784559,118.51361 C138.784559,118.51361 141.13322,120.156727 144.169698,120.156727 C147.206176,120.156727 149.563612,118.508659 149.563612,118.508659 C149.938637,118.281163 150.052549,118.396979 149.825786,118.784559 C149.825786,118.784559 148.18267,121.13322 148.18267,124.169698 C148.18267,127.206176 149.830737,129.563612 149.830737,129.563612 C150.058233,129.938637 149.942417,130.052549 149.554837,129.825786 C149.554837,129.825786 147.206176,128.18267 144.169698,128.18267 Z" id="Star-2-Copy-5" stroke="#224C83" stroke-width="3" transform="translate(144.169698, 124.169698) rotate(-315.000000) translate(-144.169698, -124.169698) "></path>
                    <path d="M144.169698,28.1826696 C141.13322,28.1826696 138.775784,29.830737 138.775784,29.830737 C138.400759,30.0582329 138.286847,29.942417 138.51361,29.5548372 C138.51361,29.5548372 140.156727,27.2061764 140.156727,24.1696981 C140.156727,21.1332198 138.508659,18.7757844 138.508659,18.7757844 C138.281163,18.4007593 138.396979,18.2868475 138.784559,18.5136102 C138.784559,18.5136102 141.13322,20.1567265 144.169698,20.1567265 C147.206176,20.1567265 149.563612,18.5086592 149.563612,18.5086592 C149.938637,18.2811633 150.052549,18.3969792 149.825786,18.7845589 C149.825786,18.7845589 148.18267,21.1332198 148.18267,24.1696981 C148.18267,27.2061764 149.830737,29.5636118 149.830737,29.5636118 C150.058233,29.9386368 149.942417,30.0525487 149.554837,29.825786 C149.554837,29.825786 147.206176,28.1826696 144.169698,28.1826696 Z" id="Star-2-Copy-5" stroke="#224C83" stroke-width="3" transform="translate(144.169698, 24.169698) rotate(-315.000000) translate(-144.169698, -24.169698) "></path>
                    <path d="M184.844701,126.260349 C182.260196,126.260349 180.353998,127.607046 180.353998,127.607046 C179.97938,127.83164 179.863332,127.715462 180.082355,127.335403 C180.082355,127.335403 181.429052,125.429205 181.429052,122.844701 C181.429052,120.260196 180.082355,118.353998 180.082355,118.353998 C179.857761,117.97938 179.973939,117.863332 180.353998,118.082355 C180.353998,118.082355 182.260196,119.429052 184.844701,119.429052 C187.429205,119.429052 189.335403,118.082355 189.335403,118.082355 C189.710022,117.857761 189.826069,117.973939 189.607046,118.353998 C189.607046,118.353998 188.260349,120.260196 188.260349,122.844701 C188.260349,125.429205 189.607046,127.335403 189.607046,127.335403 C189.83164,127.710022 189.715462,127.826069 189.335403,127.607046 C189.335403,127.607046 187.429205,126.260349 184.844701,126.260349 Z" id="Star-2-Copy-5" stroke="#224C83" stroke-width="3" transform="translate(184.844701, 122.844701) rotate(-322.000000) translate(-184.844701, -122.844701) "></path>
                    <path d="M25.2180513,239.811685 C25.9534785,239.811685 26.528031,239.21415 26.528031,238.570652 L26.528031,234.525802 C27.3553866,235.123337 28.4585275,235.468068 29.6076325,235.468068 C32.6642518,235.468068 35.1693007,232.917055 35.1693007,229.768507 C35.1693007,226.619959 32.6642518,224 29.6076325,224 C28.4355454,224 27.3324045,224.390696 26.4820668,224.942266 C26.3901384,224.43666 25.8615501,224 25.2180513,224 C24.5515704,224 24,224.55157 24,225.218051 L24,229.768507 L24,229.791489 L24,238.570652 C24,239.21415 24.5515704,239.811685 25.2180513,239.811685 L25.2180513,239.811685 Z M27.4243329,227.447315 C27.9988855,226.826798 28.7572948,226.505049 29.6076325,226.505049 C30.3890239,226.505049 31.1704153,226.826798 31.7679499,227.447315 C32.2965382,228.04485 32.6642518,228.872205 32.6642518,229.768507 C32.6642518,230.664809 32.2965382,231.538129 31.7679499,232.066717 C31.1704153,232.710216 30.3890239,233.031965 29.6076325,233.031965 C28.7572948,233.031965 27.9988855,232.710216 27.4243329,232.066717 C26.8267983,231.538129 26.528031,230.664809 26.528031,229.768507 C26.528031,228.872205 26.8267983,228.04485 27.4243329,227.447315 L27.4243329,227.447315 Z" id="p" fill="#7DC3EA" transform="translate(29.584650, 231.905842) rotate(-33.000000) translate(-29.584650, -231.905842) "></path>
                    <path d="M109.50778,216.286648 C108.797979,215.803983 107.889434,215.945943 107.349985,216.59896 L104.510782,220.403493 L101.671578,216.59896 C101.160522,215.945943 100.280369,215.803983 99.59896,216.286648 C98.9459432,216.74092 98.8039831,217.706249 99.2866476,218.302482 L102.693692,222.958776 L99.2866476,227.643461 C98.8039831,228.268086 98.9459432,229.261807 99.59896,229.687688 C99.8544883,229.886432 100.195193,230 100.507505,230 C100.961778,230 101.359266,229.744472 101.671578,229.375375 L104.510782,225.485667 L107.349985,229.375375 C107.719082,229.744472 108.144962,230 108.599235,230 C108.911547,230 109.223859,229.886432 109.50778,229.687688 C110.104013,229.261807 110.274365,228.268086 109.7917,227.643461 L106.413048,222.958776 L109.7917,218.302482 C110.274365,217.706249 110.104013,216.74092 109.50778,216.286648 L109.50778,216.286648 Z" id="x" fill="#224C83"></path>
                    <path d="M35.4948735,159.723412 C36.3224078,159.723412 36.9844352,159.006215 36.9844352,158.206266 L36.9844352,157.654576 C36.9844352,156.771873 36.3224078,156.13743 35.4948735,156.13743 C34.6673393,156.13743 33.9777274,156.771873 33.9777274,157.654576 L33.9777274,158.206266 C33.9777274,159.006215 34.6673393,159.723412 35.4948735,159.723412 L35.4948735,159.723412 Z M33.950143,180.30143 C35.6052114,180.30143 36.9292662,178.949791 36.9292662,177.322307 L36.9292662,163.143887 C36.9292662,162.288768 36.2948233,161.62674 35.4397046,161.62674 C34.6397548,161.62674 33.950143,162.288768 33.950143,163.143887 L33.950143,177.322307 C33.0674398,177.322307 32.4329968,177.984334 32.4329968,178.784284 C32.4329968,179.666987 33.0674398,180.30143 33.950143,180.30143 L33.950143,180.30143 Z" id="j" fill="#224C83" transform="translate(34.708716, 168.219430) rotate(17.000000) translate(-34.708716, -168.219430) "></path>
                    <path d="M162.068315,163.05106 C162.874315,163.05106 163.524315,162.40106 163.524315,161.62106 L163.524315,159.33306 L164.954315,157.90306 L168.776315,162.53106 C169.036315,162.86906 169.452315,163.05106 169.868315,163.05106 C170.180315,163.05106 170.518315,162.94706 170.778315,162.71306 C171.402315,162.21906 171.480315,161.30906 170.986315,160.68506 L166.982315,155.87506 L170.882315,151.97506 C171.454315,151.42906 171.454315,150.51906 170.882315,149.94706 C170.336315,149.40106 169.400315,149.40106 168.854315,149.94706 L163.524315,155.27706 L163.524315,146.28106 C163.524315,145.50106 162.874315,144.85106 162.068315,144.85106 C161.262315,144.85106 160.638315,145.50106 160.638315,146.28106 L160.638315,161.62106 C160.638315,162.40106 161.262315,163.05106 162.068315,163.05106 L162.068315,163.05106 Z" id="k" fill="#224C83" transform="translate(165.974815, 153.951060) rotate(11.000000) translate(-165.974815, -153.951060) "></path>
                    <path d="M65.0318375,129.744686 C64.3598885,129.434556 63.5845626,129.796374 63.3002764,130.494168 L60.3023498,137.523789 L57.3302673,130.494168 C57.020137,129.796374 56.2189669,129.434556 55.5987062,129.744686 C54.8750687,130.054816 54.5390942,130.804298 54.8492245,131.502091 L59.0359842,141.529639 C59.0618284,141.607172 59.0876726,141.684704 59.139361,141.710549 C59.139361,141.736393 59.139361,141.736393 59.1652052,141.736393 C59.2168936,141.788081 59.268582,141.865614 59.2944262,141.917302 C59.3202704,141.943146 59.3202704,141.943146 59.3461145,141.943146 C59.3978029,142.020679 59.4494913,142.046523 59.5011797,142.098211 C59.5011797,142.098211 59.5270239,142.098211 59.5270239,142.124056 C59.6304007,142.175744 59.6820891,142.227432 59.7596217,142.253277 L59.8113101,142.253277 C59.8113101,142.253277 59.8113101,142.253277 59.8113101,142.279121 C59.8888427,142.279121 59.940531,142.304965 60.0180636,142.330809 L60.069752,142.330809 C60.1731288,142.356653 60.2506614,142.356653 60.3023498,142.356653 C60.3798824,142.356653 60.457415,142.356653 60.5607917,142.330809 L60.6124801,142.330809 C60.6641685,142.304965 60.7417011,142.279121 60.8192337,142.279121 L60.8192337,142.253277 L60.8709221,142.253277 C60.9484547,142.227432 61.0001431,142.175744 61.0518314,142.124056 C61.0518314,142.098211 61.0776756,142.098211 61.0776756,142.098211 C61.129364,142.046523 61.1810524,142.020679 61.2327408,141.943146 C61.2327408,141.943146 61.258585,141.943146 61.258585,141.917302 C61.3102734,141.865614 61.3619618,141.788081 61.4136502,141.736393 C61.4136502,141.736393 61.4394944,141.736393 61.4394944,141.710549 C61.4653386,141.684704 61.517027,141.607172 61.5428712,141.529639 L65.7813192,131.502091 C66.0914495,130.804298 65.755475,130.054816 65.0318375,129.744686 L65.0318375,129.744686 Z" id="v" fill="#224C83" transform="translate(60.315272, 135.994726) rotate(7.000000) translate(-60.315272, -135.994726) "></path>
                </g>
                <g id="feature4-stars2" transform="translate(122.000000, 257.000000)">
                    <path d="M74.1696981,13.1826696 C71.1332198,13.1826696 68.7757844,14.830737 68.7757844,14.830737 C68.4007593,15.0582329 68.2868475,14.942417 68.5136102,14.5548372 C68.5136102,14.5548372 70.1567265,12.2061764 70.1567265,9.16969808 C70.1567265,6.13321976 68.5086592,3.77578436 68.5086592,3.77578436 C68.2811633,3.40075931 68.3969792,3.2868475 68.7845589,3.51361017 C68.7845589,3.51361017 71.1332198,5.15672654 74.1696981,5.15672654 C77.2061764,5.15672654 79.5636118,3.50865916 79.5636118,3.50865916 C79.9386368,3.28116329 80.0525487,3.39697917 79.825786,3.78455891 C79.825786,3.78455891 78.1826696,6.13321976 78.1826696,9.16969808 C78.1826696,12.2061764 79.830737,14.5636118 79.830737,14.5636118 C80.0582329,14.9386368 79.942417,15.0525487 79.5548372,14.825786 C79.5548372,14.825786 77.2061764,13.1826696 74.1696981,13.1826696 Z" id="Star-2-Copy-5" stroke="#224C83" stroke-width="3" transform="translate(74.169698, 9.169698) rotate(-315.000000) translate(-74.169698, -9.169698) "></path>
                    <path d="M154.169698,53.1826696 C151.13322,53.1826696 148.775784,54.830737 148.775784,54.830737 C148.400759,55.0582329 148.286847,54.942417 148.51361,54.5548372 C148.51361,54.5548372 150.156727,52.2061764 150.156727,49.1696981 C150.156727,46.1332198 148.508659,43.7757844 148.508659,43.7757844 C148.281163,43.4007593 148.396979,43.2868475 148.784559,43.5136102 C148.784559,43.5136102 151.13322,45.1567265 154.169698,45.1567265 C157.206176,45.1567265 159.563612,43.5086592 159.563612,43.5086592 C159.938637,43.2811633 160.052549,43.3969792 159.825786,43.7845589 C159.825786,43.7845589 158.18267,46.1332198 158.18267,49.1696981 C158.18267,52.2061764 159.830737,54.5636118 159.830737,54.5636118 C160.058233,54.9386368 159.942417,55.0525487 159.554837,54.825786 C159.554837,54.825786 157.206176,53.1826696 154.169698,53.1826696 Z" id="Star-2-Copy-5" stroke="#224C83" stroke-width="3" transform="translate(154.169698, 49.169698) rotate(-315.000000) translate(-154.169698, -49.169698) "></path>
                    <circle id="Oval-102-Copy" fill="#56ACE1" cx="122" cy="2" r="2"></circle>
                    <circle id="Oval-102-Copy-3" fill="#224C83" cx="63" cy="41" r="2"></circle>
                    <circle id="Oval-102-Copy-4" fill="#224C83" cx="89" cy="71" r="2"></circle>
                    <circle id="Oval-102-Copy-5" fill="#224C83" cx="34" cy="93" r="2"></circle>
                    <circle id="Oval-102-Copy-6" fill="#224C83" cx="83" cy="125" r="2"></circle>
                    <circle id="Oval-102-Copy-7" fill="#224C83" cx="157" cy="108" r="2"></circle>
                    <circle id="Oval-102-Copy-17" fill="#7DC3EA" cx="132" cy="151" r="2"></circle>
                    <circle id="Oval-102-Copy-17" fill="#224C83" cx="222" cy="221" r="2"></circle>
                    <circle id="Oval-102-Copy-17" fill="#224C83" cx="172" cy="201" r="2"></circle>
                    <circle id="Oval-102-Copy-17" fill="#224C83" cx="152" cy="231" r="2"></circle>
                    <circle id="Oval-102-Copy-17" fill="#224C83" cx="22" cy="141" r="2"></circle>
                    <circle id="Oval-102-Copy-17" fill="#224C83" cx="2" cy="161" r="2"></circle>
                    <circle id="Oval-102-Copy-17" fill="#224C83" cx="74" cy="231" r="2"></circle>
                    <circle id="Oval-102-Copy-17" fill="#224C83" cx="147" cy="181" r="2"></circle>
                    <circle id="Oval-102-Copy-17" fill="#224C83" cx="179" cy="221" r="2"></circle>
                    <circle id="Oval-102-Copy-17" fill="#224C83" cx="179" cy="181" r="2"></circle>
                    <circle id="Oval-102-Copy-8" fill="#224C83" cx="144" cy="73" r="2"></circle>
                    <circle id="Oval-102-Copy-9" fill="#224C83" cx="109" cy="29" r="2"></circle>
                    <circle id="Oval-102-Copy-10" fill="#56ACE1" cx="99" cy="30" r="2"></circle>
                    <circle id="Oval-102-Copy-11" fill="#224C83" cx="127" cy="24" r="2"></circle>
                    <path d="M114.202346,63.9725309 C108.322913,63.9725309 103.121957,67.5343536 103.121957,67.5343536 C102.747244,67.7701012 102.635862,67.6638614 102.870338,67.2827352 C102.870338,67.2827352 106.432161,62.0817792 106.432161,56.2023459 C106.432161,50.3229126 102.870338,45.1219566 102.870338,45.1219566 C102.634591,44.7472439 102.74083,44.6358617 103.121957,44.8703381 C103.121957,44.8703381 108.322913,48.4321609 114.202346,48.4321609 C120.081779,48.4321609 125.282735,44.8703381 125.282735,44.8703381 C125.657448,44.6345905 125.76883,44.7408304 125.534354,45.1219566 C125.534354,45.1219566 121.972531,50.3229126 121.972531,56.2023459 C121.972531,62.0817792 125.534354,67.2827352 125.534354,67.2827352 C125.770101,67.6574478 125.663861,67.76883 125.282735,67.5343536 C125.282735,67.5343536 120.081779,63.9725309 114.202346,63.9725309 Z" id="Star-2-Copy-5" stroke="#224C83" stroke-width="3" transform="translate(114.202346, 56.202346) rotate(-315.000000) translate(-114.202346, -56.202346) "></path>
                    <path d="M84.1696981,93.1826696 C81.1332198,93.1826696 78.7757844,94.830737 78.7757844,94.830737 C78.4007593,95.0582329 78.2868475,94.942417 78.5136102,94.5548372 C78.5136102,94.5548372 80.1567265,92.2061764 80.1567265,89.1696981 C80.1567265,86.1332198 78.5086592,83.7757844 78.5086592,83.7757844 C78.2811633,83.4007593 78.3969792,83.2868475 78.7845589,83.5136102 C78.7845589,83.5136102 81.1332198,85.1567265 84.1696981,85.1567265 C87.2061764,85.1567265 89.5636118,83.5086592 89.5636118,83.5086592 C89.9386368,83.2811633 90.0525487,83.3969792 89.825786,83.7845589 C89.825786,83.7845589 88.1826696,86.1332198 88.1826696,89.1696981 C88.1826696,92.2061764 89.830737,94.5636118 89.830737,94.5636118 C90.0582329,94.9386368 89.942417,95.0525487 89.5548372,94.825786 C89.5548372,94.825786 87.2061764,93.1826696 84.1696981,93.1826696 Z" id="Star-2-Copy-5" stroke="#224C83" stroke-width="3" transform="translate(84.169698, 89.169698) rotate(-315.000000) translate(-84.169698, -89.169698) "></path>
                    <path d="M135.631278,204.327379 C132.077898,204.327379 129.200505,206.323629 129.200505,206.323629 C128.827168,206.5525 128.713679,206.441167 128.944424,206.052489 C128.944424,206.052489 130.935176,203.184657 130.935176,199.631278 C130.935176,196.077898 128.938926,193.200505 128.938926,193.200505 C128.710055,192.827168 128.821389,192.713679 129.210067,192.944424 C129.210067,192.944424 132.077898,194.935176 135.631278,194.935176 C139.184657,194.935176 142.062051,192.938926 142.062051,192.938926 C142.435387,192.710055 142.548876,192.821389 142.318132,193.210067 C142.318132,193.210067 140.327379,196.077898 140.327379,199.631278 C140.327379,203.184657 142.323629,206.062051 142.323629,206.062051 C142.5525,206.435387 142.441167,206.548876 142.052489,206.318132 C142.052489,206.318132 139.184657,204.327379 135.631278,204.327379 Z" id="Star-2-Copy-6" stroke="#7DC3EA" stroke-width="3" transform="translate(135.631278, 199.631278) rotate(-315.000000) translate(-135.631278, -199.631278) "></path>
                    <path d="M94.7246013,165.737573 C91.688123,165.737573 89.3306876,167.38564 89.3306876,167.38564 C88.9556625,167.613136 88.8417507,167.49732 89.0685134,167.10974 C89.0685134,167.10974 90.7116298,164.76108 90.7116298,161.724601 C90.7116298,158.688123 89.0635624,156.330688 89.0635624,156.330688 C88.8360665,155.955663 88.9518824,155.841751 89.3394621,156.068513 C89.3394621,156.068513 91.688123,157.71163 94.7246013,157.71163 C97.7610796,157.71163 100.118515,156.063562 100.118515,156.063562 C100.49354,155.836067 100.607452,155.951882 100.380689,156.339462 C100.380689,156.339462 98.7375728,158.688123 98.7375728,161.724601 C98.7375728,164.76108 100.38564,167.118515 100.38564,167.118515 C100.613136,167.49354 100.49732,167.607452 100.10974,167.380689 C100.10974,167.380689 97.7610796,165.737573 94.7246013,165.737573 Z" id="Star-2-Copy-5" stroke="#224C83" stroke-width="3" transform="translate(94.724601, 161.724601) rotate(-334.000000) translate(-94.724601, -161.724601) "></path>
                    <path d="M185.108802,93.1217739 C182.072324,93.1217739 179.714889,94.7698413 179.714889,94.7698413 C179.339864,94.9973372 179.225952,94.8815213 179.452714,94.4939416 C179.452714,94.4939416 181.095831,92.1452807 181.095831,89.1088024 C181.095831,86.0723241 179.447763,83.7148887 179.447763,83.7148887 C179.220268,83.3398636 179.336083,83.2259518 179.723663,83.4527145 C179.723663,83.4527145 182.072324,85.0958309 185.108802,85.0958309 C188.145281,85.0958309 190.502716,83.4477635 190.502716,83.4477635 C190.877741,83.2202676 190.991653,83.3360835 190.76489,83.7236632 C190.76489,83.7236632 189.121774,86.0723241 189.121774,89.1088024 C189.121774,92.1452807 190.769841,94.5027161 190.769841,94.5027161 C190.997337,94.8777411 190.881521,94.991653 190.493942,94.7648903 C190.493942,94.7648903 188.145281,93.1217739 185.108802,93.1217739 Z" id="Star-2-Copy-5" stroke="#7DC3EA" stroke-width="3" transform="translate(185.108802, 89.108802) rotate(-322.000000) translate(-185.108802, -89.108802) "></path>
                    <path d="M185.108802,253.121774 C182.072324,253.121774 179.714889,254.769841 179.714889,254.769841 C179.339864,254.997337 179.225952,254.881521 179.452714,254.493942 C179.452714,254.493942 181.095831,252.145281 181.095831,249.108802 C181.095831,246.072324 179.447763,243.714889 179.447763,243.714889 C179.220268,243.339864 179.336083,243.225952 179.723663,243.452714 C179.723663,243.452714 182.072324,245.095831 185.108802,245.095831 C188.145281,245.095831 190.502716,243.447763 190.502716,243.447763 C190.877741,243.220268 190.991653,243.336083 190.76489,243.723663 C190.76489,243.723663 189.121774,246.072324 189.121774,249.108802 C189.121774,252.145281 190.769841,254.502716 190.769841,254.502716 C190.997337,254.877741 190.881521,254.991653 190.493942,254.76489 C190.493942,254.76489 188.145281,253.121774 185.108802,253.121774 Z" id="Star-2-Copy-5" stroke="#7DC3EA" stroke-width="3" transform="translate(185.108802, 249.108802) rotate(-322.000000) translate(-185.108802, -249.108802) "></path>
                    <path d="M204.473252,152.901873 C198.85227,152.901873 193.904186,156.292553 193.904186,156.292553 C193.532554,156.525985 193.425634,156.41438 193.653951,156.042319 C193.653951,156.042319 197.044632,151.094235 197.044632,145.473252 C197.044632,139.85227 193.653951,134.904186 193.653951,134.904186 C193.42052,134.532554 193.532125,134.425634 193.904186,134.653951 C193.904186,134.653951 198.85227,138.044632 204.473252,138.044632 C210.094235,138.044632 215.042319,134.653951 215.042319,134.653951 C215.413951,134.42052 215.520871,134.532125 215.292553,134.904186 C215.292553,134.904186 211.901873,139.85227 211.901873,145.473252 C211.901873,151.094235 215.292553,156.042319 215.292553,156.042319 C215.525985,156.413951 215.41438,156.520871 215.042319,156.292553 C215.042319,156.292553 210.094235,152.901873 204.473252,152.901873 Z" id="Star-2-Copy-5" stroke="#224C83" stroke-width="3" transform="translate(204.473252, 145.473252) rotate(-315.000000) translate(-204.473252, -145.473252) "></path>
                    <path d="M84.5907568,42.977923 L84.6196139,42.977923 L84.6773282,42.977923 L94.0270425,42.977923 C94.8638996,42.977923 95.6141853,42.2564945 95.6141853,41.3907802 C95.6141853,40.4962087 94.8638996,39.7747802 94.0270425,39.7747802 L86.2067568,39.7747802 L86.2067568,24.3650659 C86.2067568,23.4993516 85.4853282,22.777923 84.5907568,22.777923 C83.6961853,22.777923 83.0036139,23.4993516 83.0036139,24.3650659 L83.0036139,41.3907802 C83.0036139,42.2564945 83.6961853,42.977923 84.5907568,42.977923 L84.5907568,42.977923 Z" id="L" fill="#224C83" transform="translate(89.308900, 32.877923) rotate(28.000000) translate(-89.308900, -32.877923) "></path>
                    <path d="M137.972904,36.5937491 C137.402047,36.5937491 136.983419,37.0314057 136.983419,37.6022621 L136.983419,42.0929995 C136.983419,43.1966552 136.108106,44.0339114 135.023479,44.0339114 C133.938852,44.0339114 133.04451,43.1966552 133.04451,42.0929995 L133.04451,37.6022621 C133.04451,37.0314057 132.625882,36.5937491 132.035997,36.5937491 C131.522226,36.5937491 131.046512,37.0314057 131.046512,37.6022621 L131.046512,42.0929995 C131.046512,44.2812825 132.835196,46.0889946 135.023479,46.0889946 C135.651421,46.0889946 136.298392,45.9367662 136.831191,45.6323094 C136.526734,46.6217939 135.575307,47.3448787 134.452622,47.3639073 C134.072051,47.3639073 133.710509,47.2687645 133.348967,47.0975076 C132.892281,46.8501365 132.245311,47.0594505 131.99794,47.5161357 C131.769597,48.048935 131.959883,48.63882 132.492682,48.8671626 C133.063538,49.1525908 133.767595,49.3428763 134.452622,49.3428763 C136.983419,49.3428763 139.000445,47.3448787 139.000445,44.7950533 L139.000445,42.0929995 L139.000445,37.6022621 C139.000445,37.0314057 138.524732,36.5937491 137.972904,36.5937491 L137.972904,36.5937491 Z" id="y" fill="#224C83" transform="translate(135.023479, 42.968313) rotate(-10.000000) translate(-135.023479, -42.968313) "></path>
                    <path d="M18.5222856,192.585186 L18.5222856,185.893186 C18.5222856,185.109186 17.7942856,184.409186 17.0102856,184.409186 C16.1702856,184.409186 15.5542856,185.109186 15.5542856,185.893186 L15.5542856,192.585186 C15.5262856,194.181186 14.2382856,195.441186 12.6142856,195.441186 C11.0182856,195.441186 9.75828563,194.181186 9.75828563,192.585186 L9.75828563,185.893186 C9.75828563,185.109186 9.11428563,184.409186 8.27428563,184.409186 C7.46228563,184.409186 6.79028563,185.109186 6.79028563,185.893186 L6.79028563,192.585186 C6.79028563,195.777186 9.42228563,198.409186 12.6142856,198.409186 C15.8342856,198.409186 18.5222856,195.777186 18.5222856,192.585186 L18.5222856,192.585186 Z" id="u" fill="#224C83" transform="translate(12.656286, 191.409186) rotate(17.000000) translate(-12.656286, -191.409186) "></path>
                    <path d="M159.50778,271.286648 C158.797979,270.803983 157.889434,270.945943 157.349985,271.59896 L154.510782,275.403493 L151.671578,271.59896 C151.160522,270.945943 150.280369,270.803983 149.59896,271.286648 C148.945943,271.74092 148.803983,272.706249 149.286648,273.302482 L152.693692,277.958776 L149.286648,282.643461 C148.803983,283.268086 148.945943,284.261807 149.59896,284.687688 C149.854488,284.886432 150.195193,285 150.507505,285 C150.961778,285 151.359266,284.744472 151.671578,284.375375 L154.510782,280.485667 L157.349985,284.375375 C157.719082,284.744472 158.144962,285 158.599235,285 C158.911547,285 159.223859,284.886432 159.50778,284.687688 C160.104013,284.261807 160.274365,283.268086 159.7917,282.643461 L156.413048,277.958776 L159.7917,273.302482 C160.274365,272.706249 160.104013,271.74092 159.50778,271.286648 L159.50778,271.286648 Z" id="x" fill="#224C83" transform="translate(154.536001, 278.000000) rotate(12.000000) translate(-154.536001, -278.000000) "></path>
                    <path d="M219.504476,170.818867 C218.348407,170.795746 217.354187,171.211931 216.591181,171.720601 C216.429331,171.836208 216.24436,172.021179 216.105632,172.183029 L216.105632,172.021179 C216.105632,171.350659 215.527597,170.818867 214.833956,170.818867 C214.163436,170.818867 213.608522,171.350659 213.608522,172.021179 L213.608522,181.131006 C213.608522,181.801526 214.163436,182.356439 214.833956,182.356439 C215.527597,182.356439 216.105632,181.801526 216.105632,181.131006 L216.105632,176.737942 C216.221239,176.414243 216.498696,175.53563 217.053609,174.795746 C217.331066,174.356439 217.677886,173.963376 218.117193,173.685919 C218.510256,173.385341 218.972684,173.246613 219.504476,173.246613 C220.198118,173.246613 220.729909,172.668578 220.729909,172.021179 C220.729909,171.350659 220.198118,170.818867 219.504476,170.818867 L219.504476,170.818867 Z" id="r" fill="#224C83" transform="translate(217.169216, 176.587194) rotate(18.000000) translate(-217.169216, -176.587194) "></path>
                    <path d="M125.716412,92.7788633 L125.185555,92.7788633 L125.185555,89.6998898 C125.185555,89.0416265 124.675932,88.5320033 124.017668,88.5320033 C123.359405,88.5320033 122.828548,89.0416265 122.828548,89.6998898 L122.828548,92.7788633 L122.212753,92.7788633 C121.55449,92.7788633 121.044866,93.2884865 121.044866,93.9467498 C121.044866,94.5837788 121.55449,95.1146364 122.212753,95.1146364 L122.828548,95.1146364 L122.828548,101.039006 C122.828548,102.334298 123.890263,103.396013 125.185555,103.396013 C125.843818,103.396013 126.353441,102.88639 126.353441,102.228127 C126.353441,101.569864 125.843818,101.039006 125.185555,101.039006 L125.185555,95.1146364 L125.716412,95.1146364 C126.353441,95.1146364 126.905533,94.5837788 126.905533,93.9467498 C126.905533,93.2884865 126.353441,92.7788633 125.716412,92.7788633 L125.716412,92.7788633 Z" id="t-copy-3" fill="#224C83" transform="translate(123.975200, 95.964008) rotate(-17.000000) translate(-123.975200, -95.964008) "></path>
                    <path d="M104.186879,135 C106.15507,135 107.944334,134.135189 109.166998,132.733598 C110.508946,131.421471 111.254473,129.572565 111.254473,127.485089 C111.254473,125.457256 110.508946,123.697813 109.166998,122.266402 C107.944334,120.864811 106.15507,120 104.186879,120 C102.129225,120 100.399602,120.864811 99.0576541,122.266402 C97.7753479,123.697813 97,125.457256 97,127.485089 C97,129.572565 97.7753479,131.421471 99.0576541,132.733598 C100.399602,134.135189 102.129225,135 104.186879,135 L104.186879,135 Z M101.324056,124.383698 C102.069583,123.727634 103.053678,123.250497 104.186879,123.250497 C105.230616,123.250497 106.184891,123.727634 106.930417,124.383698 C107.675944,125.188867 108.093439,126.262425 108.093439,127.485089 C108.093439,128.767396 107.675944,129.811133 106.930417,130.646123 C106.184891,131.361829 105.230616,131.749503 104.186879,131.749503 C103.053678,131.749503 102.069583,131.361829 101.324056,130.646123 C100.638171,129.811133 100.250497,128.767396 100.250497,127.485089 C100.250497,126.262425 100.638171,125.188867 101.324056,124.383698 L101.324056,124.383698 Z" id="o" fill="#224C83"></path>
                    <path d="M69.1868787,206 C71.1550696,206 72.944334,205.135189 74.166998,203.733598 C75.5089463,202.421471 76.2544732,200.572565 76.2544732,198.485089 C76.2544732,196.457256 75.5089463,194.697813 74.166998,193.266402 C72.944334,191.864811 71.1550696,191 69.1868787,191 C67.1292247,191 65.3996024,191.864811 64.0576541,193.266402 C62.7753479,194.697813 62,196.457256 62,198.485089 C62,200.572565 62.7753479,202.421471 64.0576541,203.733598 C65.3996024,205.135189 67.1292247,206 69.1868787,206 L69.1868787,206 Z M66.3240557,195.383698 C67.0695825,194.727634 68.0536779,194.250497 69.1868787,194.250497 C70.2306163,194.250497 71.1848907,194.727634 71.9304175,195.383698 C72.6759443,196.188867 73.0934394,197.262425 73.0934394,198.485089 C73.0934394,199.767396 72.6759443,200.811133 71.9304175,201.646123 C71.1848907,202.361829 70.2306163,202.749503 69.1868787,202.749503 C68.0536779,202.749503 67.0695825,202.361829 66.3240557,201.646123 C65.638171,200.811133 65.250497,199.767396 65.250497,198.485089 C65.250497,197.262425 65.638171,196.188867 66.3240557,195.383698 L66.3240557,195.383698 Z" id="o-copy" fill="#224C83"></path>
                    <path d="M193.186879,208 C195.15507,208 196.944334,207.135189 198.166998,205.733598 C199.508946,204.421471 200.254473,202.572565 200.254473,200.485089 C200.254473,198.457256 199.508946,196.697813 198.166998,195.266402 C196.944334,193.864811 195.15507,193 193.186879,193 C191.129225,193 189.399602,193.864811 188.057654,195.266402 C186.775348,196.697813 186,198.457256 186,200.485089 C186,202.572565 186.775348,204.421471 188.057654,205.733598 C189.399602,207.135189 191.129225,208 193.186879,208 L193.186879,208 Z M190.324056,197.383698 C191.069583,196.727634 192.053678,196.250497 193.186879,196.250497 C194.230616,196.250497 195.184891,196.727634 195.930417,197.383698 C196.675944,198.188867 197.093439,199.262425 197.093439,200.485089 C197.093439,201.767396 196.675944,202.811133 195.930417,203.646123 C195.184891,204.361829 194.230616,204.749503 193.186879,204.749503 C192.053678,204.749503 191.069583,204.361829 190.324056,203.646123 C189.638171,202.811133 189.250497,201.767396 189.250497,200.485089 C189.250497,199.262425 189.638171,198.188867 190.324056,197.383698 L190.324056,197.383698 Z" id="o-copy-2" fill="#224C83"></path>
                    <path d="M53.8439003,82.6782434 C52.5899003,82.6782434 51.400208,83.0640895 50.4355927,83.6750126 C50.146208,83.0640895 49.535285,82.6782434 48.8600542,82.6782434 C47.8954388,82.6782434 47.1559003,83.4499357 47.1559003,84.3823972 L47.1559003,89.3662434 L47.1559003,97.0510126 C47.1559003,97.9834742 47.8954388,98.7551665 48.8600542,98.7551665 C49.6960542,98.7551665 50.4034388,98.1442434 50.564208,97.3725511 C50.6285157,97.2439357 50.6285157,97.1474742 50.6285157,97.0510126 L50.6285157,89.3662434 C50.6285157,87.565628 52.043285,86.1187049 53.8439003,86.1187049 C55.6766696,86.1187049 57.1879003,87.565628 57.1879003,89.3662434 L57.1879003,97.0510126 C57.1879003,97.9834742 57.9917465,98.7551665 58.8920542,98.7551665 C59.8245157,98.7551665 60.5640542,97.9834742 60.5640542,97.0510126 L60.5640542,89.3662434 C60.5640542,85.7328588 57.5737465,82.6782434 53.8439003,82.6782434 L53.8439003,82.6782434 Z" id="n" fill="#224C83" transform="translate(53.859977, 90.716705) rotate(-18.000000) translate(-53.859977, -90.716705) "></path>
                    <path d="M164.530883,80.7710187 L164.530883,76.3867665 C164.530883,75.7478554 164.024161,75.2191013 163.363218,75.2191013 C162.790401,75.2191013 162.30571,75.6156669 162.195553,76.1444209 C161.402422,75.571604 160.388977,75.2191013 159.243343,75.2191013 C157.789269,75.2191013 156.445353,75.8580125 155.498002,76.8494263 C154.550651,77.8849029 153.955802,79.2508508 153.955802,80.7710187 C153.955802,82.313218 154.550651,83.6791659 155.498002,84.6485483 C156.445353,85.6840249 157.789269,86.3229361 159.243343,86.3229361 C160.322882,86.3229361 161.336328,85.9924648 162.129459,85.4416793 C161.84305,86.7855958 160.675385,87.7990411 159.243343,87.7990411 C158.780683,87.7990411 158.362086,87.688884 157.987552,87.4906012 C157.370672,87.2262242 156.687698,87.4465384 156.40129,88.0413867 C156.09285,88.636235 156.357227,89.3632718 156.930044,89.6276488 C157.613018,89.9801515 158.42818,90.1784342 159.243343,90.1784342 C162.173521,90.1784342 164.530883,87.7770097 164.530883,84.8908939 L164.530883,80.7930501 L164.530883,80.7710187 L164.530883,80.7710187 Z M161.336328,83.0402548 C160.763511,83.6351031 160.080537,83.9435429 159.243343,83.9435429 C158.472243,83.9435429 157.745206,83.6351031 157.216452,83.0402548 C156.687698,82.5335321 156.335196,81.6963383 156.335196,80.7710187 C156.335196,79.889762 156.687698,79.0525681 157.216452,78.5238141 C157.745206,77.9069343 158.472243,77.5764631 159.243343,77.5764631 C160.080537,77.5764631 160.763511,77.9069343 161.336328,78.5238141 C161.821019,79.0525681 162.173521,79.889762 162.173521,80.7710187 C162.173521,81.6963383 161.821019,82.5335321 161.336328,83.0402548 L161.336328,83.0402548 Z" id="g" fill="#224C83" transform="translate(159.243343, 82.698768) rotate(17.000000) translate(-159.243343, -82.698768) "></path>
                </g>
            </g>
        </g>
    </g>
</svg>