<?xml version="1.0" encoding="UTF-8" standalone="no"?>
<svg width="691px" height="393px" viewBox="0 0 691 393" version="1.1" xmlns="http://www.w3.org/2000/svg" xmlns:xlink="http://www.w3.org/1999/xlink">
    <!-- Generator: Sketch 3.8.3 (29802) - http://www.bohemiancoding.com/sketch -->
    <title>how1</title>
    <desc>Created with Sketch.</desc>
    <defs>
        <rect id="path-1" x="0" y="0" width="200" height="88"></rect>
        <mask id="mask-2" maskContentUnits="userSpaceOnUse" maskUnits="objectBoundingBox" x="0" y="0" width="200" height="88" fill="white">
            <use xlink:href="#path-1"></use>
        </mask>
    </defs>
    <g id="Page-1" stroke="none" stroke-width="1" fill="none" fill-rule="evenodd">
        <g id="Desktop-HD-Copy-2" transform="translate(-1468.000000, -4098.000000)">
            <g id="how1" transform="translate(1468.000000, 4100.000000)">
                <g id="how1-cloud1" transform="translate(0.000000, 228.000000)" fill="#C4EDFA">
                    <path d="M97.5268825,81 L303.038042,81 L284.053807,81 C276.605547,81 270.556035,87.0441559 270.556035,94.5 C270.556035,101.957483 276.599193,108 284.053807,108 L303.038042,108 L97.5268825,108 L119.634388,108 C127.082648,108 133.132159,101.955844 133.132159,94.5 C133.132159,87.0425165 127.089001,81 119.634388,81 L97.5268825,81 Z M75.6639931,27 L281.175153,27 L262.190917,27 C254.742658,27 248.693146,33.0441559 248.693146,40.5 C248.693146,47.9574835 254.736304,54 262.190917,54 L281.175153,54 L75.6639931,54 L97.7714988,54 C105.219758,54 111.26927,47.9558441 111.26927,40.5 C111.26927,33.0425165 105.226112,27 97.7714988,27 L75.6639931,27 Z M0.41239292,13.5 C0.41239292,6.04415588 6.4619047,0 13.9101642,0 L260.513066,0 C267.967679,0 274.010837,6.04251654 274.010837,13.5 C274.010837,20.9558441 267.961325,27 260.513066,27 L13.9101642,27 C6.45555095,27 0.41239292,20.9574835 0.41239292,13.5 Z M33.848564,67.5 C33.848564,60.0441559 39.901362,54 47.3520741,54 L518.562541,54 C526.020324,54 532.066051,60.0425165 532.066051,67.5 C532.066051,74.9558441 526.013253,81 518.562541,81 L47.3520741,81 C39.8942914,81 33.848564,74.9574835 33.848564,67.5 Z M97.5268825,121.5 C97.5268825,114.044156 103.576394,108 111.024654,108 L357.627555,108 C365.082168,108 371.125326,114.042517 371.125326,121.5 C371.125326,128.955844 365.075815,135 357.627555,135 L111.024654,135 C103.570041,135 97.5268825,128.957483 97.5268825,121.5 Z" id="Combined-Shape"></path>
                </g>
                <g id="how1-cloud2" transform="translate(294.000000, 0.000000)" fill="#C4EDFA">
                    <path d="M122.665795,27.9461245 C124.20479,27.3355759 125.882225,27 127.637209,27 L341.175153,27 L324.089268,27 C316.641168,27 310.589803,33.0441559 310.589803,40.5 C310.589803,47.9574835 316.633719,54 324.089268,54 L341.175153,54 L127.637209,54 C125.88027,54 124.201724,53.6644387 122.662192,53.0538755 C127.654647,51.0732731 131.190243,46.1990359 131.190243,40.5 C131.190243,34.7999113 127.659248,29.9264788 122.665795,27.9461245 Z M0,13.5 C0,6.04415588 6.04222241,0 13.4976183,0 L332.513218,0 C339.967747,0 346.010837,6.04251654 346.010837,13.5 C346.010837,20.9558441 339.968614,27 332.513218,27 L13.4976183,27 C6.04308958,27 0,20.9574835 0,13.5 Z M105.848564,67.5 C105.848564,60.0441559 111.896217,54 119.355716,54 L383.492848,54 C390.952642,54 397,60.0425165 397,67.5 C397,74.9558441 390.952347,81 383.492848,81 L119.355716,81 C111.895922,81 105.848564,74.9574835 105.848564,67.5 Z" id="Combined-Shape"></path>
                </g>
                <g id="how1-videos" transform="translate(154.000000, 39.000000)">
                    <g id="Group-13-Copy" transform="translate(0.000000, 169.000000)" stroke="#224C83" stroke-width="4">
                        <rect id="Rectangle-190" fill="#FEFFFF" x="0" y="0" width="200" height="88"></rect>
                        <path d="M20,68 L76,68" id="Path-181-Copy-2"></path>
                    </g>
                    <g id="Group-16" transform="translate(130.000000, 84.000000)">
                        <rect id="Rectangle-193" stroke="#224C83" stroke-width="4" x="0" y="0" width="186" height="148"></rect>
                        <path d="M54,116 C54,116 58,82 72,82 C78,86 90,100 90,100 C90,100 100,89.9999997 110,82 C124,82 128,116 128,116 L54,116 Z" id="Path-190" stroke="#444A46" stroke-width="4" fill="#D8D8D8"></path>
                        <rect id="Rectangle-194" stroke="#224C83" stroke-width="4" fill="#FFFDFE" x="0" y="110" width="38" height="38"></rect>
                        <rect id="Rectangle-194-Copy" stroke="#224C83" stroke-width="4" fill="#FFFDFE" x="38" y="110" width="148" height="38"></rect>
                        <path d="M14,121 L14,137" id="Path-187" stroke="#224C83" stroke-width="4"></path>
                        <path d="M24,121 L24,137" id="Path-187-Copy" stroke="#224C83" stroke-width="4"></path>
                        <path d="M46,130 L174,130" id="Path-189" stroke="#224C83" stroke-width="4"></path>
                        <circle id="Oval-56" stroke="#224C83" stroke-width="4" fill="#56ACE1" cx="142" cy="130" r="8"></circle>
                        <path d="M111,76 C117.075132,76 122,71.0751322 122,65 C122,58.9248678 116.075132,26 110,26 C103.924868,26 100,58.9248678 100,65 C100,71.0751322 104.924868,76 111,76 Z" id="Oval-57" fill="#444A46"></path>
                        <circle id="Oval-57-Copy" fill="#444A46" cx="69" cy="65" r="11"></circle>
                        <path d="M72.0453895,40.1421356 L72,82 L90,100 L108.071709,82 L108.071707,58.1421164 L116,58.1421165 C116,58.1421165 118,55.7798982 118,54 C118,53.1132379 116,50.1421356 116,50.1421356 L108.071709,50.1421356 L103,36 L72,36 L72.0453895,40.1421356 Z" id="Path-191" stroke="#444A46" stroke-width="4" fill="#FEFFFF"></path>
                        <path d="M56,30.0015037 C56,25.5823952 59.5737707,22 64.0053305,22 L104.752986,22 C111.382354,22 116.756519,27.3740545 116.756519,33.9916034 L116.756518,40.460091 C116.756518,47.0828707 112.918934,48.6900836 107.766974,44.5256753 C107.766974,44.5256753 104,38.2409039 92,38.2409039 C80,38.2409039 64.0002342,38.2409038 64.0002342,38.2409038 C59.5818269,38.2409037 56,34.6566629 56,30.2394 L56,30.0015037 Z" id="Rectangle-196" fill="#444A46"></path>
                        <circle id="Oval-59" fill="#444A46" cx="82" cy="56" r="2"></circle>
                        <circle id="Oval-59-Copy" fill="#444A46" cx="96" cy="56" r="2"></circle>
                        <path d="M90,50 C90,50 86,60.6833451 86,62 L86,68 L90,68" id="Path-192" stroke="#444A46" stroke-width="4"></path>
                        <path d="M80,70 C80,70 82,74 88,74 C94,74 96,70 96,70" id="Path-193" stroke="#444A46" stroke-width="4"></path>
                    </g>
                    <g id="Group-16-Copy" transform="translate(30.000000, 0.000000)">
                        <rect id="Rectangle-193" stroke="#224C83" stroke-width="4" fill="#FEFFFF" x="0" y="0" width="186" height="148"></rect>
                        <path d="M54,116 C54,116 58,82 72,82 C78,86 90,100 90,100 C90,100 100,89.9999997 110,82 C124,82 128,116 128,116 L54,116 Z" id="Path-190" stroke="#444A46" stroke-width="4"></path>
                        <rect id="Rectangle-194" stroke="#224C83" stroke-width="4" fill="#FFFDFE" x="0" y="110" width="38" height="38"></rect>
                        <rect id="Rectangle-194-Copy" stroke="#224C83" stroke-width="4" fill="#FFFDFE" x="38" y="110" width="148" height="38"></rect>
                        <path d="M14,121 L14,137" id="Path-187" stroke="#224C83" stroke-width="4"></path>
                        <path d="M24,121 L24,137" id="Path-187-Copy" stroke="#224C83" stroke-width="4"></path>
                        <path d="M46,130 L174,130" id="Path-189" stroke="#224C83" stroke-width="4"></path>
                        <circle id="Oval-56" stroke="#224C83" stroke-width="4" fill="#56ACE1" cx="142" cy="130" r="8"></circle>
                        <path d="M62.0453895,40.1421356 L62,82 L80,100 L98.0717087,82 L98.0717074,58.1421164 L106,58.1421165 C106,58.1421165 108,55.7798982 108,54 C108,53.1132379 106,50.1421356 106,50.1421356 L98.0717087,50.1421356 L98.0717087,36 L62,36 L62.0453895,40.1421356 Z" id="Path-191" stroke="#444A46" stroke-width="4" fill="#FEFFFF" transform="translate(85.000000, 68.000000) scale(-1, 1) translate(-85.000000, -68.000000) "></path>
                        <path d="M69,31.330464 C69,26.9113555 72.5881712,23.3289603 77.007097,23.3289603 L106.658567,23.3289603 C112.369983,23.3289603 117,27.9580714 117,33.6598141 L117,37.9981065 C117,43.7036795 113.293503,45.5454925 108.394982,42.6395229 C108.394982,42.6395229 106.921857,39.5698642 97.4413926,39.5698642 C87.9609284,39.5698642 77.0044256,39.5698641 77.0044256,39.5698641 C72.5837034,39.5698641 69,35.9856232 69,31.5683603 L69,31.330464 Z" id="Rectangle-196" fill="#444A46" transform="translate(93.000000, 33.664480) scale(1, -1) translate(-93.000000, -33.664480) "></path>
                        <circle id="Oval-59" fill="#444A46" cx="82" cy="56" r="2"></circle>
                        <circle id="Oval-59-Copy" fill="#444A46" cx="96" cy="56" r="2"></circle>
                        <path d="M88,52 C88,52 90,58.6833451 90,60 L90,66 L86,66" id="Path-192" stroke="#444A46" stroke-width="4"></path>
                        <path d="M80,70 C80,70 82,74 88,74 C94,74 96,70 96,70" id="Path-193" stroke="#444A46" stroke-width="4"></path>
                    </g>
                    <g id="Group-13" transform="translate(200.000000, 30.000000)" stroke="#224C83">
                        <use id="Rectangle-190" mask="url(#mask-2)" stroke-width="8" fill="#56ACE1" xlink:href="#path-1"></use>
                        <path d="M20,68 L76,68" id="Path-181-Copy-2" stroke-width="4"></path>
                    </g>
                </g>
                <g id="how1-mag" transform="translate(427.000000, 104.000000)" stroke="#224C83">
                    <rect id="Mask" stroke-width="4" fill="#FFEC00" transform="translate(77.500000, 217.500000) rotate(-360.000000) translate(-77.500000, -217.500000) " x="73" y="150" width="9" height="135"></rect>
                    <path d="M77,154 C119.525926,154 154,119.525926 154,77 C154,34.4740743 119.525926,0 77,0 C34.4740743,0 0,34.4740743 0,77 C0,119.525926 34.4740743,154 77,154 Z" id="Oval-72" stroke-width="5" fill="#FFFDFE"></path>
                    <path d="M77.5,15 C42.9822031,15 15,42.9822031 15,77.5" id="Oval-72-Copy" stroke-width="5"></path>
                    <path d="M77.5,106 C98.8750042,106 120,79.5 120,79.5 C120,79.5 99.1249958,53 77.5,53 C55.8750042,53 34,79.5 34,79.5 C34,79.5 56.1249958,106 77.5,106 Z" id="Oval-73" stroke-width="4" fill="#FFFFFF"></path>
                </g>
                <g id="how1-eye" transform="translate(487.000000, 166.000000)" stroke="#224C83" stroke-width="4" fill="#FFEC00">
                    <circle id="Oval-74" cx="17.5" cy="17.5" r="17.5"></circle>
                </g>
                <g id="how1-stars" transform="translate(271.000000, 0.000000)" stroke="#224C83" stroke-width="3">
                    <path d="M162.363961,53.5271171 C159.970509,53.5271171 158.265582,54.7411249 158.265582,54.7411249 C157.88532,54.9674181 157.763322,54.8538417 157.986797,54.4623404 C157.986797,54.4623404 159.200805,52.757413 159.200805,50.363961 C159.200805,47.970509 157.986797,46.2655817 157.986797,46.2655817 C157.760504,45.88532 157.87408,45.7633216 158.265582,45.9867972 C158.265582,45.9867972 159.970509,47.200805 162.363961,47.200805 C164.757413,47.200805 166.46234,45.9867972 166.46234,45.9867972 C166.842602,45.7605039 166.964601,45.8740803 166.741125,46.2655817 C166.741125,46.2655817 165.527117,47.970509 165.527117,50.363961 C165.527117,52.757413 166.741125,54.4623404 166.741125,54.4623404 C166.967418,54.8426021 166.853842,54.9646005 166.46234,54.7411249 C166.46234,54.7411249 164.757413,53.5271171 162.363961,53.5271171 Z" id="Star-2" transform="translate(162.363961, 50.363961) rotate(-315.000000) translate(-162.363961, -50.363961) "></path>
                    <path d="M271.363961,9.52711709 C268.970509,9.52711709 267.265582,10.7411249 267.265582,10.7411249 C266.88532,10.9674181 266.763322,10.8538417 266.986797,10.4623404 C266.986797,10.4623404 268.200805,8.75741304 268.200805,6.36396103 C268.200805,3.97050902 266.986797,2.26558168 266.986797,2.26558168 C266.760504,1.88532001 266.87408,1.76332156 267.265582,1.98679719 C267.265582,1.98679719 268.970509,3.20080498 271.363961,3.20080498 C273.757413,3.20080498 275.46234,1.98679719 275.46234,1.98679719 C275.842602,1.76050394 275.964601,1.87408035 275.741125,2.26558168 C275.741125,2.26558168 274.527117,3.97050902 274.527117,6.36396103 C274.527117,8.75741304 275.741125,10.4623404 275.741125,10.4623404 C275.967418,10.8426021 275.853842,10.9646005 275.46234,10.7411249 C275.46234,10.7411249 273.757413,9.52711709 271.363961,9.52711709 Z" id="Star-2-Copy" transform="translate(271.363961, 6.363961) rotate(-315.000000) translate(-271.363961, -6.363961) "></path>
                    <path d="M6.36396103,366.527117 C3.97050902,366.527117 2.26558168,367.741125 2.26558168,367.741125 C1.88532001,367.967418 1.76332156,367.853842 1.98679719,367.46234 C1.98679719,367.46234 3.20080498,365.757413 3.20080498,363.363961 C3.20080498,360.970509 1.98679719,359.265582 1.98679719,359.265582 C1.76050394,358.88532 1.87408035,358.763322 2.26558168,358.986797 C2.26558168,358.986797 3.97050902,360.200805 6.36396103,360.200805 C8.75741304,360.200805 10.4623404,358.986797 10.4623404,358.986797 C10.8426021,358.760504 10.9646005,358.87408 10.7411249,359.265582 C10.7411249,359.265582 9.52711709,360.970509 9.52711709,363.363961 C9.52711709,365.757413 10.7411249,367.46234 10.7411249,367.46234 C10.9674181,367.842602 10.8538417,367.964601 10.4623404,367.741125 C10.4623404,367.741125 8.75741304,366.527117 6.36396103,366.527117 Z" id="Star-2-Copy-2" transform="translate(6.363961, 363.363961) rotate(-315.000000) translate(-6.363961, -363.363961) "></path>
                </g>
            </g>
        </g>
    </g>
</svg>