<?xml version="1.0" encoding="UTF-8" standalone="no"?>
<svg width="693px" height="393px" viewBox="0 0 693 393" version="1.1" xmlns="http://www.w3.org/2000/svg" xmlns:xlink="http://www.w3.org/1999/xlink">
    <!-- Generator: Sketch 3.8.3 (29802) - http://www.bohemiancoding.com/sketch -->
    <title>how2</title>
    <desc>Created with Sketch.</desc>
    <defs></defs>
    <g id="Page-1" stroke="none" stroke-width="1" fill="none" fill-rule="evenodd">
        <g id="Desktop-HD-Copy-2" transform="translate(-654.000000, -4649.000000)">
            <g id="how2" transform="translate(656.000000, 4651.000000)">
                <g id="how2-cloud" transform="translate(308.000000, 92.000000)" fill="#C4EDFA">
                    <path d="M80.6755853,81 L250.677258,81 L237.308495,81 C229.861324,81 223.807692,87.0441559 223.807692,94.5 C223.807692,101.957483 229.852207,108 237.308495,108 L250.677258,108 L80.6755853,108 L96.6279602,108 C104.075131,108 110.128763,101.955844 110.128763,94.5 C110.128763,87.0425165 104.084247,81 96.6279602,81 L80.6755853,81 Z M62.590301,27 L232.591973,27 L219.22321,27 C211.776039,27 205.722408,33.0441559 205.722408,40.5 C205.722408,47.9574835 211.766923,54 219.22321,54 L232.591973,54 L62.590301,54 L78.542676,54 C85.9898469,54 92.0434783,47.9558441 92.0434783,40.5 C92.0434783,33.0425165 85.9989632,27 78.542676,27 L62.590301,27 Z M0.341137124,13.5 C0.341137124,6.04415588 6.3947685,0 13.8419394,0 L213.16475,0 C220.621037,0 226.665552,6.04251654 226.665552,13.5 C226.665552,20.9558441 220.61192,27 213.16475,27 L13.8419394,27 C6.38565221,27 0.341137124,20.9574835 0.341137124,13.5 Z M28,67.5 C28,60.0441559 34.0366483,54 41.5073156,54 L368.720109,54 C376.179994,54 382.227425,60.0425165 382.227425,67.5 C382.227425,74.9558441 376.190776,81 368.720109,81 L41.5073156,81 C34.0474312,81 28,74.9574835 28,67.5 Z M80.6755853,121.5 C80.6755853,114.044156 86.7292167,108 94.1763876,108 L293.499198,108 C300.955485,108 307,114.042517 307,121.5 C307,128.955844 300.946369,135 293.499198,135 L94.1763876,135 C86.7201004,135 80.6755853,128.957483 80.6755853,121.5 Z" id="Combined-Shape"></path>
                </g>
                <g id="how2-comp" transform="translate(0.000000, 109.000000)">
                    <path d="M203,74.9999447 C203,66.1634193 210.167413,59 219.005145,59 L519.994855,59 C528.834252,59 536,66.1716254 536,74.9999447 L536,254.000055 C536,262.836581 528.832587,270 519.994855,270 L219.005145,270 C210.165748,270 203,262.828375 203,254.000055 L203,74.9999447 Z" id="Rectangle-189" stroke="#224C83" stroke-width="4" fill="#56ACE1"></path>
                    <path d="M184,259.990053 C184,257.786408 185.783467,256 188.003887,256 L551.996113,256 C554.207399,256 556,257.784293 556,259.990053 L556,276.009947 C556,278.213592 554.216533,280 551.996113,280 L188.003887,280 C185.792601,280 184,278.215707 184,276.009947 L184,259.990053 Z" id="Mask" stroke="#224C83" stroke-width="4" fill="#FFFFFF"></path>
                    <rect id="Rectangle-190" stroke="#224C83" stroke-width="4" fill="#FFFFFF" x="218" y="74" width="304" height="168"></rect>
                    <path id="Path-179"></path>
                    <g id="Group-13" transform="translate(478.000000, 30.000000)" stroke="#224C83" stroke-width="4">
                        <rect id="Rectangle-190" x="0" y="0" width="200" height="88"></rect>
                        <path d="M20,68 L76,68" id="Path-181-Copy-2"></path>
                    </g>
                    <rect id="Rectangle-192" stroke="#224C83" stroke-width="4" x="358" y="126" width="120" height="80"></rect>
                    <path id="Path-186" stroke="#979797" stroke-width="4"></path>
                    <rect id="Rectangle-436" fill="#D8D8D8" x="186" y="266" width="368" height="12"></rect>
                    <path d="M378,186 L438,186" id="Path-187" stroke="#224C83" stroke-width="4"></path>
                    <path d="M314,268 L426,268" id="Path-180" stroke="#224C83" stroke-width="4"></path>
                    <g id="Group-16" transform="translate(94.000000, 84.000000)">
                        <rect id="Rectangle-193" stroke="#224C83" stroke-width="4" x="0" y="0" width="186" height="148"></rect>
                        <path d="M54,116 C54,116 58,82 72,82 C78,86 90,100 90,100 C90,100 100,89.9999997 110,82 C124,82 128,116 128,116 L54,116 Z" id="Path-190" stroke="#444A46" stroke-width="4" fill="#D8D8D8"></path>
                        <rect id="Rectangle-194" stroke="#224C83" stroke-width="4" fill="#FFFDFE" x="0" y="110" width="38" height="38"></rect>
                        <rect id="Rectangle-194-Copy" stroke="#224C83" stroke-width="4" fill="#FFFDFE" x="38" y="110" width="148" height="38"></rect>
                        <path d="M14,121 L14,137" id="Path-187" stroke="#224C83" stroke-width="4"></path>
                        <path d="M24,121 L24,137" id="Path-187-Copy" stroke="#224C83" stroke-width="4"></path>
                        <path d="M46,130 L174,130" id="Path-189" stroke="#224C83" stroke-width="4"></path>
                        <circle id="Oval-56" stroke="#224C83" stroke-width="4" fill="#56ACE1" cx="142" cy="130" r="8"></circle>
                        <path d="M111,76 C117.075132,76 122,71.0751322 122,65 C122,58.9248678 116.075132,26 110,26 C103.924868,26 100,58.9248678 100,65 C100,71.0751322 104.924868,76 111,76 Z" id="Oval-57" fill="#444A46"></path>
                        <circle id="Oval-57-Copy" fill="#444A46" cx="69" cy="65" r="11"></circle>
                        <path d="M72.0453895,40.1421356 L72,82 L90,100 L108.071709,82 L108.071707,58.1421164 L116,58.1421165 C116,58.1421165 118,55.7798982 118,54 C118,53.1132379 116,50.1421356 116,50.1421356 L108.071709,50.1421356 L103,36 L72,36 L72.0453895,40.1421356 Z" id="Path-191" stroke="#444A46" stroke-width="4" fill="#FEFFFF"></path>
                        <path d="M56,30.0015037 C56,25.5823952 59.5737707,22 64.0053305,22 L104.752986,22 C111.382354,22 116.756519,27.3740545 116.756519,33.9916034 L116.756518,40.460091 C116.756518,47.0828707 112.918934,48.6900836 107.766974,44.5256753 C107.766974,44.5256753 104,38.2409039 92,38.2409039 C80,38.2409039 64.0002342,38.2409038 64.0002342,38.2409038 C59.5818269,38.2409037 56,34.6566629 56,30.2394 L56,30.0015037 Z" id="Rectangle-196" fill="#444A46"></path>
                        <circle id="Oval-59" fill="#444A46" cx="82" cy="56" r="2"></circle>
                        <circle id="Oval-59-Copy" fill="#444A46" cx="96" cy="56" r="2"></circle>
                        <path d="M90,50 C90,50 86,60.6833451 86,62 L86,68 L90,68" id="Path-192" stroke="#444A46" stroke-width="4"></path>
                        <path d="M80,70 C80,70 82,74 88,74 C94,74 96,70 96,70" id="Path-193" stroke="#444A46" stroke-width="4"></path>
                    </g>
                    <g id="Group-16-Copy">
                        <rect id="Rectangle-193" stroke="#224C83" stroke-width="4" fill="#FEFFFF" x="0" y="0" width="186" height="148"></rect>
                        <path d="M54,116 C54,116 58,82 72,82 C78,86 90,100 90,100 C90,100 100,89.9999997 110,82 C124,82 128,116 128,116 L54,116 Z" id="Path-190" stroke="#444A46" stroke-width="4"></path>
                        <rect id="Rectangle-194" stroke="#224C83" stroke-width="4" fill="#FFFDFE" x="0" y="110" width="38" height="38"></rect>
                        <rect id="Rectangle-194-Copy" stroke="#224C83" stroke-width="4" fill="#FFFDFE" x="38" y="110" width="148" height="38"></rect>
                        <path d="M14,121 L14,137" id="Path-187" stroke="#224C83" stroke-width="4"></path>
                        <path d="M24,121 L24,137" id="Path-187-Copy" stroke="#224C83" stroke-width="4"></path>
                        <path d="M46,130 L174,130" id="Path-189" stroke="#224C83" stroke-width="4"></path>
                        <circle id="Oval-56" stroke="#224C83" stroke-width="4" fill="#56ACE1" cx="142" cy="130" r="8"></circle>
                        <path d="M62.0453895,40.1421356 L62,82 L80,100 L98.0717087,82 L98.0717074,58.1421164 L106,58.1421165 C106,58.1421165 108,55.7798982 108,54 C108,53.1132379 106,50.1421356 106,50.1421356 L98.0717087,50.1421356 L98.0717087,36 L62,36 L62.0453895,40.1421356 Z" id="Path-191" stroke="#444A46" stroke-width="4" fill="#FEFFFF" transform="translate(85.000000, 68.000000) scale(-1, 1) translate(-85.000000, -68.000000) "></path>
                        <path d="M69,31.330464 C69,26.9113555 72.5881712,23.3289603 77.007097,23.3289603 L106.658567,23.3289603 C112.369983,23.3289603 117,27.9580714 117,33.6598141 L117,37.9981065 C117,43.7036795 113.293503,45.5454925 108.394982,42.6395229 C108.394982,42.6395229 106.921857,39.5698642 97.4413926,39.5698642 C87.9609284,39.5698642 77.0044256,39.5698641 77.0044256,39.5698641 C72.5837034,39.5698641 69,35.9856232 69,31.5683603 L69,31.330464 Z" id="Rectangle-196" fill="#444A46" transform="translate(93.000000, 33.664480) scale(1, -1) translate(-93.000000, -33.664480) "></path>
                        <circle id="Oval-59" fill="#444A46" cx="82" cy="56" r="2"></circle>
                        <circle id="Oval-59-Copy" fill="#444A46" cx="96" cy="56" r="2"></circle>
                        <path d="M88,52 C88,52 90,58.6833451 90,60 L90,66 L86,66" id="Path-192" stroke="#444A46" stroke-width="4"></path>
                        <path d="M80,70 C80,70 82,74 88,74 C94,74 96,70 96,70" id="Path-193" stroke="#444A46" stroke-width="4"></path>
                    </g>
                </g>
                <g id="how2-stars" transform="translate(66.000000, 0.000000)" stroke-width="3">
                    <path d="M248.353445,236.516601 C245.959993,236.516601 244.255065,237.730608 244.255065,237.730608 C243.874804,237.956902 243.752805,237.843325 243.976281,237.451824 C243.976281,237.451824 245.190289,235.746897 245.190289,233.353445 C245.190289,230.959993 243.976281,229.255065 243.976281,229.255065 C243.749987,228.874804 243.863564,228.752805 244.255065,228.976281 C244.255065,228.976281 245.959993,230.190289 248.353445,230.190289 C250.746897,230.190289 252.451824,228.976281 252.451824,228.976281 C252.832086,228.749987 252.954084,228.863564 252.730608,229.255065 C252.730608,229.255065 251.516601,230.959993 251.516601,233.353445 C251.516601,235.746897 252.730608,237.451824 252.730608,237.451824 C252.956902,237.832086 252.843325,237.954084 252.451824,237.730608 C252.451824,237.730608 250.746897,236.516601 248.353445,236.516601 Z" id="Star-2-Copy-3" stroke="#56ACE1" transform="translate(248.353445, 233.353445) rotate(-315.000000) translate(-248.353445, -233.353445) "></path>
                    <path d="M6.35344458,328.516601 C3.95999258,328.516601 2.25506523,329.730608 2.25506523,329.730608 C1.87480356,329.956902 1.75280511,329.843325 1.97628074,329.451824 C1.97628074,329.451824 3.19028853,327.746897 3.19028853,325.353445 C3.19028853,322.959993 1.97628074,321.255065 1.97628074,321.255065 C1.74998749,320.874804 1.8635639,320.752805 2.25506523,320.976281 C2.25506523,320.976281 3.95999258,322.190289 6.35344458,322.190289 C8.74689659,322.190289 10.4518239,320.976281 10.4518239,320.976281 C10.8320856,320.749987 10.9540841,320.863564 10.7306084,321.255065 C10.7306084,321.255065 9.51660064,322.959993 9.51660064,325.353445 C9.51660064,327.746897 10.7306084,329.451824 10.7306084,329.451824 C10.9569017,329.832086 10.8433253,329.954084 10.4518239,329.730608 C10.4518239,329.730608 8.74689659,328.516601 6.35344458,328.516601 Z" id="Star-2-Copy-5" stroke="#56ACE1" transform="translate(6.353445, 325.353445) rotate(-315.000000) translate(-6.353445, -325.353445) "></path>
                    <path d="M426.353445,118.516601 C423.959993,118.516601 422.255065,119.730608 422.255065,119.730608 C421.874804,119.956902 421.752805,119.843325 421.976281,119.451824 C421.976281,119.451824 423.190289,117.746897 423.190289,115.353445 C423.190289,112.959993 421.976281,111.255065 421.976281,111.255065 C421.749987,110.874804 421.863564,110.752805 422.255065,110.976281 C422.255065,110.976281 423.959993,112.190289 426.353445,112.190289 C428.746897,112.190289 430.451824,110.976281 430.451824,110.976281 C430.832086,110.749987 430.954084,110.863564 430.730608,111.255065 C430.730608,111.255065 429.516601,112.959993 429.516601,115.353445 C429.516601,117.746897 430.730608,119.451824 430.730608,119.451824 C430.956902,119.832086 430.843325,119.954084 430.451824,119.730608 C430.451824,119.730608 428.746897,118.516601 426.353445,118.516601 Z" id="Star-2-Copy-4" stroke="#224C83" transform="translate(426.353445, 115.353445) rotate(-315.000000) translate(-426.353445, -115.353445) "></path>
                    <path d="M176.353445,20.1081038 C171.2962,20.1081038 166.912009,23.118307 166.912009,23.118307 C166.540291,23.3506507 166.433245,23.2373444 166.65965,22.8659481 C166.65965,22.8659481 169.669853,18.4817574 169.669853,13.4245124 C169.669853,8.36726735 166.65965,3.98307668 166.65965,3.98307668 C166.427306,3.61135901 166.540613,3.50431252 166.912009,3.73071783 C166.912009,3.73071783 171.2962,6.74092098 176.353445,6.74092098 C181.41069,6.74092098 185.79488,3.73071783 185.79488,3.73071783 C186.166598,3.49837411 186.273644,3.61168036 186.047239,3.98307668 C186.047239,3.98307668 183.037036,8.36726735 183.037036,13.4245124 C183.037036,18.4817574 186.047239,22.8659481 186.047239,22.8659481 C186.279583,23.2376658 186.166277,23.3447123 185.79488,23.118307 C185.79488,23.118307 181.41069,20.1081038 176.353445,20.1081038 Z" id="Star-2-Copy-4" stroke="#224C83" transform="translate(176.353445, 13.424512) rotate(-315.000000) translate(-176.353445, -13.424512) "></path>
                </g>
                <g id="how2-arrow" transform="translate(309.000000, 5.000000)" stroke="#224C83" stroke-width="4" fill="#FFEC00">
                    <path d="M74,67 L74,22 L28,22 L28,67 L1.13686838e-13,67 L50.5,114 L101,67 L74,67 Z" id="Combined-Shape"></path>
                    <rect id="Rectangle-295" x="28" y="0" width="46" height="13"></rect>
                </g>
            </g>
        </g>
    </g>
</svg>