<?xml version="1.0" encoding="UTF-8" standalone="no"?>
<svg width="1125px" height="790px" viewBox="0 0 1125 790" version="1.1" xmlns="http://www.w3.org/2000/svg" xmlns:xlink="http://www.w3.org/1999/xlink">
    <!-- Generator: Sketch 3.8.3 (29802) - http://www.bohemiancoding.com/sketch -->
    <title>how3</title>
    <desc>Created with Sketch.</desc>
    <defs></defs>
    <g id="Page-1" stroke="none" stroke-width="1" fill="none" fill-rule="evenodd">
        <g id="Desktop-HD-Copy-2" transform="translate(-1332.000000, -5175.000000)">
            <g id="how3" transform="translate(1332.000000, 5175.000000)">
                <g id="how3-cloud1" transform="translate(0.000000, 120.000000)" fill="#C4EDFA">
                    <path d="M135.490485,103 L159.988378,103 C155.298428,104.961237 152,109.595477 152,115 C152,122.18128 157.816982,128 164.992593,128 L555.007407,128 C562.1789,128 568,122.179702 568,115 C568,109.594489 564.70415,104.960993 560.013874,103 L427.992593,103 C420.816982,103 415,97.1812804 415,90 C415,82.8202983 420.8211,77 427.992593,77 L464.5,77 L152,77 L193.007407,77 C200.183018,77 206,82.8187196 206,90 C206,97.1797017 200.1789,103 193.007407,103 L135.490485,103 Z M7.99301356,52 C3.30348841,53.9612371 0,58.595477 0,64 C0,71.1812804 5.81790736,77 12.9946598,77 L474.00534,77 C481.169969,77 487,71.1797017 487,64 C487,57.3059247 481.944731,51.7957991 475.445878,51.0789552 C475.489274,51.0528736 475.532511,51.026555 475.575587,51.0000012 L400.998751,51 C393.819739,51 388,45.1812804 388,38 C388,32.595477 391.300857,27.9612371 395.992807,26 L119.754536,26 L160.007407,26 C167.183018,26 173,31.8187196 173,39 C173,46.1797017 167.1789,52 160.007407,52 L7.99301356,52 Z M614.012468,25 C618.707419,23.0387629 622,18.404523 622,13 C622,5.81871963 616.179354,0 608.999222,0 L146.000778,0 C138.810781,0 133,5.82029825 133,13 C133,20.1812804 138.820646,26 146.000778,26 L395.992807,26 C397.533932,25.3558088 399.225139,25 400.998751,25 L614.012468,25 Z" id="Combined-Shape"></path>
                </g>
                <g id="how3-cloud2" transform="translate(658.000000, 272.000000)" fill="#C4EDFA">
                    <path d="M146.490248,103 L181.987904,103 C177.295068,104.961237 174,109.595477 174,115 C174,122.18128 179.8191,128 186.997323,128 L424.002677,128 C431.18483,128 437,122.179702 437,115 C437,109.594489 433.70295,104.960993 429.010966,103 L465.009187,103 L427.992593,103 C420.816982,103 415,97.1812804 415,90 C415,82.8202983 420.8211,77 427.992593,77 L464.5,77 L152,77 L193.007407,77 C200.183018,77 206,82.8187196 206,90 C206,97.1797017 200.1789,103 193.007407,103 L146.490248,103 Z M7.99467084,52 C3.29784644,53.9612371 0,58.595477 0,64 C0,71.1812804 5.82403969,77 13.0083567,77 L453.991643,77 C461.179926,77 467,71.1797017 467,64 C467,58.594489 463.700151,53.9609927 459.004184,52 L394.992593,52 C387.816982,52 382,46.1812804 382,39 C382,31.8202983 387.8211,26 394.992593,26 L431.5,26 L119,26 L160.007407,26 C167.183018,26 173,31.8187196 173,39 C173,46.1797017 167.1789,52 160.007407,52 L7.99467084,52 Z M463.505796,52 L468.007407,52 L463.505796,52 Z M85,13 C85,5.82029825 90.8149863,0 97.9985232,0 L401.001477,0 C408.180363,0 414,5.81871963 414,13 C414,20.1797017 408.185014,26 401.001477,26 L97.9985232,26 C90.8196371,26 85,20.1812804 85,13 Z" id="Combined-Shape"></path>
                </g>
                <g id="how3-bg" transform="translate(207.000000, 142.000000)">
                    <g id="body" transform="translate(183.000000, 174.000000)">
                        <g id="upper-body" stroke="#224C83" stroke-width="4">
                            <path d="M255.697922,157 C255.697922,157 288.055544,155.614381 323.226863,155.614381 C358.398182,155.614381 334.481685,120.891174 328.483522,112.831762 C322.485359,104.772351 246.775776,9.39682142e-09 228.264301,9.39682142e-09 C193.130743,9.39682142e-09 138.225723,-1.17460195e-08 115.716079,9.39682142e-09 C93.2064347,3.05396634e-08 20.0500915,104.772351 9.49869442,115.311581 C-1.05270271,125.850812 -8.75525417,157 20.0852269,157 C48.9257079,157 107.278569,156.999997 107.278569,156.999997 L107.278569,120.891174 L58.7385418,120.891174 L94.6132875,81.8340255 L254.291077,81.8340255 L286.648691,120.891174 L255.69793,120.891174 L255.697922,157 Z" id="Path-373" fill="#C4EDFA"></path>
                            <path d="M277,121 L297,121" id="Path-374"></path>
                            <path d="M47,121 L67,121" id="Path-374-Copy"></path>
                        </g>
                        <rect id="shirt-bottom" stroke="#224C83" stroke-width="4" fill="#C4EDFA" x="93" y="201" width="163" height="27"></rect>
                        <g id="computer" transform="translate(52.000000, 32.000000)">
                            <path d="M0.0391962559,14.8897689 C-0.927163958,7.21866136 4.56258397,1 12.2903354,1 L223.999111,1 C231.731588,1 237.106565,7.20568918 236.004317,14.86177 L222.019296,112 L12.2725619,112 L0.0391962559,14.8897689 Z" id="Rectangle-438" stroke="#224C83" stroke-width="4" fill="#D8D8D8"></path>
                            <ellipse id="Oval-138" fill="#FFFFFF" cx="119.5" cy="58.5" rx="13.5" ry="10.5"></ellipse>
                            <rect id="Rectangle-437" stroke="#224C83" stroke-width="4" fill="#D8D8D8" x="5" y="111" width="227" height="14" rx="7"></rect>
                        </g>
                    </g>
                    <g id="chair-legs" transform="translate(257.000000, 401.000000)" stroke="#224C83" stroke-width="4">
                        <g id="Group-46" transform="translate(75.000000, 2.000000)">
                            <path d="M5.56168868e-16,0.47293113 C5.56168868e-16,25.3670695 15.8634898,52.6135658 64.2888889,52.6135658 L167.819048,52.6135658 L219.584127,190 L263,189.172371 C263,189.172371 219.584127,52.613567 212.904762,23.6465465 C206.225397,-5.32047388 182.213459,0.472931128 167.819048,0.47293113 C116.053968,0.472931138 26.7174599,0.47293113 5.56168868e-16,0.47293113 Z" id="Path-369-Copy" fill="#56ACE1"></path>
                            <path d="M221,190 L221,208 C221,217.941125 229.058699,226 238.998868,226 L334,226 L334,226 C334,218.968678 326.339698,210.734215 316.908015,207.613695 L263.671128,190 L221,190 Z" id="Path-371-Copy" fill="#C4EDFA"></path>
                        </g>
                        <rect id="Rectangle-347-Copy" fill="#C4EDFA" x="179" y="67" width="15" height="161" rx="7.5"></rect>
                        <rect id="Rectangle-347" fill="#C4EDFA" x="18" y="66" width="15" height="161" rx="7.5"></rect>
                        <rect id="Rectangle-346" fill="#C4EDFA" x="0" y="51" width="202" height="28" rx="8"></rect>
                        <g id="Group-45" transform="translate(19.000000, 1.000000)">
                            <path d="M5.56168868e-16,0.477909352 C5.56168868e-16,25.6340913 15.8634898,53.1673928 64.2888889,53.1673928 L167.819048,53.1673928 L219.584127,192 L263,191.999998 C263,191.999998 219.584127,53.167394 212.904762,23.8954576 C206.225397,-5.37647887 182.213459,0.47790935 167.819048,0.477909352 C116.053968,0.47790936 26.7174599,0.477909352 5.56168868e-16,0.477909352 Z" id="Path-369" fill="#56ACE1"></path>
                            <path d="M221,193 L221,211 C221,220.941125 229.058699,229 238.998868,229 L334,229 L334,229 C334,221.968678 326.339698,213.734215 316.908015,210.613695 L263.671128,193 L221,193 Z" id="Path-371" fill="#FFFFFF"></path>
                        </g>
                    </g>
                    <g id="table" transform="translate(0.000000, 328.000000)" stroke="#224C83" fill="#FFFFFF">
                        <polygon id="Path-368" stroke-width="5" points="43 36 665 36 665 317 634.003882 317 634.003882 56.8835094 73.9314725 56.8835094 73.9314735 316.999988 43 316.999988"></polygon>
                        <rect id="Rectangle-345" stroke-width="4" x="0" y="1" width="704" height="37"></rect>
                    </g>
                    <g id="mug" transform="translate(83.000000, 264.000000)" stroke="#224C83" stroke-width="4">
                        <circle id="Oval-141" cx="43" cy="33" r="20"></circle>
                        <rect id="Rectangle-354" fill="#C4EDFA" x="1" y="1" width="43" height="63" rx="8"></rect>
                    </g>
                    <g id="head" transform="translate(287.000000, 1.000000)" stroke="#224C83" stroke-width="4">
                        <path d="M4,66 L48.4422144,66 C48.4422144,66 51,108.345709 51,153.367104 C51,198.3885 4,192.776522 4,192.776522 L4,66 Z" id="Rectangle-266" fill="#FFEC00"></path>
                        <path d="M76,65 L125,65 L125,197.395649 C125,197.395649 76,209.868698 76,165.258052 C76,120.647406 76,65 76,65 Z" id="Rectangle-266-Copy" fill="#FFEC00"></path>
                        <ellipse id="Oval-71" fill="#FEFFFF" cx="120" cy="90" rx="13" ry="13"></ellipse>
                        <ellipse id="Oval-71-Copy" fill="#FEFFFF" cx="13" cy="90" rx="13" ry="13"></ellipse>
                        <rect id="Rectangle-269" fill="#FEFFFF" x="49" y="146" width="30" height="40" rx="15"></rect>
                        <rect id="Rectangle-265" fill="#FEFFFF" x="13" y="6" width="107" height="159" rx="53.5"></rect>
                        <path d="M61,82 C59.7452641,86.6072477 55.467367,90 50.3810486,90 C45.1109828,90 41.0697654,86.8684949 40,82" id="Rectangle-268"></path>
                        <path d="M110,82 C108.745264,86.6072477 104.467367,90 99.3810486,90 C94.1109828,90 90.0697654,86.8684949 89,82" id="Rectangle-268-Copy"></path>
                        <path d="M81,95 C80.3427574,98.4554358 78.1019541,101 75.4376921,101 C72.6771815,101 70.5603533,98.6513712 70,95" id="Rectangle-268-Copy-2" transform="translate(75.500000, 98.000000) scale(1, -1) translate(-75.500000, -98.000000) "></path>
                        <path d="M4,66 C4,30.9488369 31.0416152,0 64.3875921,0 L69.2162726,0 C102.567419,0 129,30.9566625 129,66 L58.3478261,66 C36.6086957,66 36.6086957,34.5506394 36.6086957,34.5506394 C36.6086957,34.5506394 31.7777778,66 15.47343,66 L4,66 Z" id="Rectangle-265" fill="#FFEC00"></path>
                        <path d="M49.0037651,40 C49.0037651,40 48.3674699,57 63.6385542,57 L84,57" id="Path-258"></path>
                    </g>
                </g>
                <g id="how3-mouth" transform="translate(544.000000, 268.000000)" stroke="#224C83" stroke-width="4" fill="#C4EDFA">
                    <path d="M7.67386155e-13,-8.70414851e-14 L45,-8.70414851e-14 C45,-8.70414851e-14 41.6292136,17 22,17 C3.37078642,17 7.67386155e-13,-8.70414851e-14 7.67386155e-13,-8.70414851e-14 Z" id="Rectangle-267"></path>
                </g>
                <g id="how3-steam" transform="translate(274.000000, 345.000000)" fill="#C4EDFA">
                    <g id="Group-29" transform="translate(0.000000, 17.000000)">
                        <path d="M13.4981261,11 L44.0018739,11 L38.5008392,11 C35.4679369,11 33,13.4624339 33,16.5 C33,19.5313853 35.4628096,22 38.5008392,22 L44.0018739,22 L13.4981261,22 L22.4991608,22 C25.5320631,22 28,19.5375661 28,16.5 C28,13.4686147 25.5371904,11 22.4991608,11 L13.4981261,11 Z M0,5.5 C0,2.46243388 2.46740034,-1.77635684e-15 5.49537086,-1.77635684e-15 L39.5046291,-1.77635684e-15 C42.5396387,-1.77635684e-15 45,2.46861471 45,5.5 C45,8.53756612 42.5325997,11 39.5046291,11 L5.49537086,11 C2.46036134,11 0,8.53138529 0,5.5 Z M18,27.5 C18,24.4624339 20.4676463,22 23.496397,22 L39.503603,22 C42.5391792,22 45,24.4686147 45,27.5 C45,30.5375661 42.5323537,33 39.503603,33 L23.496397,33 C20.4608208,33 18,30.5313853 18,27.5 Z" id="Combined-Shape"></path>
                    </g>
                    <circle id="Oval-142" cx="6" cy="6" r="6"></circle>
                </g>
                <g id="how3-speech" transform="translate(687.000000, 85.000000)">
                    <polygon id="Path-215-Copy" fill="#56ACE1" transform="translate(120.000000, 85.500000) scale(-1, 1) translate(-120.000000, -85.500000) " points="79.0120847 50 161 50 160.999996 103.62854 110.496101 103.62854 92.4326348 121 92.432635 103.62854 79 103.628541"></polygon>
                    <polygon id="Path-215" stroke="#224C83" stroke-width="4" fill="#FEFFFF" points="0.0176849504 0 120 0 119.999994 78.5544814 46.0918545 78.5544814 19.6575143 104 19.6575146 78.5544814 0 78.5544833"></polygon>
                    <path d="M23,39.5 L96,39.5" id="Path-216-Copy" stroke="#224C83" stroke-width="4"></path>
                    <path d="M23,51.5 L96,51.5" id="Path-216-Copy-2" stroke="#224C83" stroke-width="4"></path>
                </g>
                <g id="how3-star" transform="translate(391.000000, 57.000000)">
                    <polygon id="Path-215-Copy-2" stroke="#224C83" stroke-width="4" fill="#56ACE1" transform="translate(24.000000, 28.500000) scale(-1, 1) translate(-24.000000, -28.500000) " points="0.011968824 0 48 0 47.9999959 44.5967848 31.1940537 44.5967848 13.3038171 57 13.3038163 44.5967848 4.86704434e-13 44.5967861"></polygon>
                    <polygon id="Star-1" fill="#FFFDFE" points="23.5 29.75 16.1526843 33.6127124 17.5558968 25.4313562 11.6117935 19.6372876 19.8263422 18.4436438 23.5 11 27.1736578 18.4436438 35.3882065 19.6372876 29.4441032 25.4313562 30.8473157 33.6127124"></polygon>
                </g>
                <g id="how3-vid" transform="translate(787.000000, 237.000000)">
                    <g id="Group-16-Copy" stroke="#224C83" stroke-width="4">
                        <rect id="Rectangle-193" fill="#FEFFFF" x="0" y="0" width="156" height="124"></rect>
                        <rect id="Rectangle-194" fill="#FFFDFE" x="0" y="92" width="32" height="32"></rect>
                        <rect id="Rectangle-194-Copy" fill="#FFFDFE" x="32" y="92" width="124" height="32"></rect>
                        <path d="M11.5,100 L11.5,113" id="Path-187"></path>
                        <path d="M19.5,100 L19.5,113" id="Path-187-Copy"></path>
                        <path d="M38,108.5 L145,108.5" id="Path-189"></path>
                        <circle id="Oval-56" fill="#56ACE1" cx="118.5" cy="108.5" r="6.5"></circle>
                    </g>
                    <rect id="Rectangle-215" fill="#FFEC00" x="8" y="6" width="141" height="80"></rect>
                    <polygon id="Path-224" stroke="#224C83" stroke-width="4" fill="#FFFDFE" points="71 39 71 58 89 48.4999996"></polygon>
                </g>
                <g id="how3-subtitles" transform="translate(535.000000, 0.000000)">
                    <g id="Group-30">
                        <rect id="Rectangle-216" fill="#56ACE1" x="0" y="0" width="10" height="10"></rect>
                        <rect id="Rectangle-216-Copy" fill="#D8D8D8" x="15" y="0" width="95" height="7"></rect>
                        <rect id="Rectangle-216-Copy-2" fill="#D8D8D8" x="15" y="10" width="47" height="7"></rect>
                        <rect id="Rectangle-216-Copy-6" fill="#D8D8D8" x="68" y="10" width="22" height="7"></rect>
                        <rect id="Rectangle-216-Copy-9" fill="#D8D8D8" x="89" y="20" width="38" height="7"></rect>
                        <rect id="Rectangle-216-Copy-7" fill="#D8D8D8" x="95" y="10" width="47" height="7"></rect>
                        <rect id="Rectangle-216-Copy-8" fill="#D8D8D8" x="15" y="20" width="22" height="7"></rect>
                        <rect id="Rectangle-216-Copy-5" fill="#56ACE1" x="43" y="20" width="43" height="7"></rect>
                        <rect id="Rectangle-216-Copy-10" fill="#56ACE1" x="15" y="30" width="43" height="7"></rect>
                        <rect id="Rectangle-216-Copy-11" fill="#224C83" x="64" y="30" width="85" height="7"></rect>
                    </g>
                </g>
                <g id="how3-wave" transform="translate(224.000000, 283.000000)" stroke="#224C83" stroke-width="4">
                    <path d="M68,16 C68,16 63.6088867,1.00201802 58.7654321,1.00201802 C53.9219775,1.00201802 54.5762963,15.9999996 48.691358,15.9999997 C42.8064198,15.9999997 43.654321,1.00201802 38.617284,1.00201802 C33.5802469,1.00201802 32.7407407,15.9999997 28.5432099,15.9999997 C24.345679,15.9999997 22.6666667,1.20515888 18.4691358,1.00201802 C14.2716049,0.79887717 13.0047438,15.9999997 8.39506173,15.9999997 C3.78537971,15.9999997 0,1.00201802 0,1.00201802" id="Path-228"></path>
                </g>
                <g id="how3-stars1" transform="translate(253.000000, 35.000000)" stroke-width="3">
                    <path d="M505.038384,348.531803 C503.151199,348.531803 501.960651,349.407001 501.960651,349.407001 C501.575909,349.630728 501.452925,349.506824 501.669106,349.115457 C501.669106,349.115457 502.544304,347.924908 502.544304,346.037723 C502.544304,344.150538 501.669106,342.95999 501.669106,342.95999 C501.44538,342.575248 501.569283,342.452265 501.960651,342.668445 C501.960651,342.668445 503.151199,343.543643 505.038384,343.543643 C506.925569,343.543643 508.116117,342.668445 508.116117,342.668445 C508.500859,342.444719 508.623843,342.568622 508.407662,342.95999 C508.407662,342.95999 507.532464,344.150538 507.532464,346.037723 C507.532464,347.924908 508.407662,349.115457 508.407662,349.115457 C508.631388,349.500198 508.507485,349.623182 508.116117,349.407001 C508.116117,349.407001 506.925569,348.531803 505.038384,348.531803 Z" id="Star-2-Copy-5" stroke="#224C83" transform="translate(505.251244, 346.251244) rotate(-315.000000) translate(-505.251244, -346.251244) "></path>
                    <path d="M265.071328,10.63341 C262.37535,10.63341 260.353953,12.0564846 260.353953,12.0564846 C259.981392,12.2806632 259.875105,12.1512842 260.094396,11.7714087 C260.094396,11.7714087 261.508357,9.76641726 261.508357,7.0704387 C261.508357,4.37446014 260.085283,2.35306372 260.085283,2.35306372 C259.861104,1.98050229 259.990483,1.8742151 260.370358,2.09350677 C260.370358,2.09350677 262.37535,3.50746736 265.071328,3.50746736 C267.767307,3.50746736 269.788703,2.08439281 269.788703,2.08439281 C270.161265,1.86021423 270.267552,1.98959322 270.04826,2.36946869 C270.04826,2.36946869 268.6343,4.37446014 268.6343,7.0704387 C268.6343,9.76641726 270.057374,11.7878137 270.057374,11.7878137 C270.281553,12.1603751 270.152174,12.2666623 269.772298,12.0473706 C269.772298,12.0473706 267.767307,10.63341 265.071328,10.63341 Z" id="Star-2-Copy-5" stroke="#224C83" transform="translate(265.070439, 7.070439) rotate(-315.000000) translate(-265.070439, -7.070439) "></path>
                    <path d="M575.00089,83.5620816 C572.304911,83.5620816 570.283515,84.9851562 570.283515,84.9851562 C569.910953,85.2093348 569.804666,85.0799558 570.023958,84.7000803 C570.023958,84.7000803 571.437918,82.6950889 571.437918,79.9991103 C571.437918,77.3031317 570.014844,75.2817353 570.014844,75.2817353 C569.790665,74.9091739 569.920044,74.8028867 570.29992,75.0221784 C570.29992,75.0221784 572.304911,76.436139 575.00089,76.436139 C577.696868,76.436139 579.718265,75.0130644 579.718265,75.0130644 C580.090826,74.7888858 580.197113,74.9182648 579.977822,75.2981403 C579.977822,75.2981403 578.563861,77.3031317 578.563861,79.9991103 C578.563861,82.6950889 579.986936,84.7164853 579.986936,84.7164853 C580.211114,85.0890467 580.081735,85.1953339 579.70186,84.9760422 C579.70186,84.9760422 577.696868,83.5620816 575.00089,83.5620816 Z" id="Star-2-Copy-5" stroke="#224C83" transform="translate(575.000000, 79.999110) rotate(-270.000000) translate(-575.000000, -79.999110) "></path>
                    <path d="M81.0713284,228.63341 C78.3753498,228.63341 76.3539534,230.056485 76.3539534,230.056485 C75.981392,230.280663 75.8751048,230.151284 76.0943965,229.771409 C76.0943965,229.771409 77.5083571,227.766417 77.5083571,225.070439 C77.5083571,222.37446 76.0852825,220.353064 76.0852825,220.353064 C75.8611039,219.980502 75.9904829,219.874215 76.3703584,220.093507 C76.3703584,220.093507 78.3753498,221.507467 81.0713284,221.507467 C83.767307,221.507467 85.7887034,220.084393 85.7887034,220.084393 C86.1612648,219.860214 86.267552,219.989593 86.0482603,220.369469 C86.0482603,220.369469 84.6342997,222.37446 84.6342997,225.070439 C84.6342997,227.766417 86.0573743,229.787814 86.0573743,229.787814 C86.2815529,230.160375 86.1521739,230.266662 85.7722984,230.047371 C85.7722984,230.047371 83.767307,228.63341 81.0713284,228.63341 Z" id="Star-2-Copy-5" stroke="#56ACE1" transform="translate(81.070439, 225.070439) rotate(-315.000000) translate(-81.070439, -225.070439) "></path>
                    <path d="M5.58325301,195.309203 C3.45221858,195.309203 2.00434089,196.352209 2.00434089,196.352209 C1.62704384,196.574622 1.51018687,196.451545 1.73160254,196.057357 C1.73160254,196.057357 2.76690472,194.623889 2.76690472,192.492854 C2.76690472,190.36182 1.72389793,188.913942 1.72389793,188.913942 C1.50148525,188.536645 1.62456272,188.419788 2.01875012,188.641204 C2.01875012,188.641204 3.45221858,189.676506 5.58325301,189.676506 C7.71428744,189.676506 9.16216513,188.633499 9.16216513,188.633499 C9.53946218,188.411087 9.65631915,188.534164 9.43490348,188.928351 C9.43490348,188.928351 8.3996013,190.36182 8.3996013,192.492854 C8.3996013,194.623889 9.44260809,196.071766 9.44260809,196.071766 C9.66502077,196.449063 9.54194329,196.56592 9.1477559,196.344505 C9.1477559,196.344505 7.71428744,195.309203 5.58325301,195.309203 Z" id="Star-2-Copy-5" stroke="#56ACE1" transform="translate(5.251244, 192.251244) rotate(-315.000000) translate(-5.251244, -192.251244) "></path>
                </g>
                <g id="how3-camera" transform="translate(315.000000, 175.000000)">
                    <circle id="Oval-76" stroke="#224C83" stroke-width="4" fill="#FFFDFE" cx="35.5" cy="11.5" r="11.5"></circle>
                    <ellipse id="Oval-76-Copy" stroke="#224C83" stroke-width="4" fill="#FFFDFE" cx="11.5" cy="11.5" rx="11.5" ry="11.5"></ellipse>
                    <polygon id="Mask" stroke="#224C83" stroke-width="4" fill="#FFFDFE" points="48.4637346 33.25 48.4637346 24.7989682 0 24.7989682 2.09956915e-15 59.3276946 48.4707666 59.3276946 48.4707666 49.1929134 66 61 66 24"></polygon>
                    <g id="how3-cameradot2" transform="translate(4.000000, 5.000000)" fill="#56ACE1">
                        <path d="M7.5,3 C8.32842712,3 9,2.32842712 9,1.5 C9,0.671572875 8.32842712,0 7.5,0 C6.67157288,0 6,0.671572875 6,1.5 C6,2.32842712 6.67157288,3 7.5,3 Z M10.836138,5.06361806 C11.2979242,5.86345531 12.2986135,6.15023535 13.0712401,5.7041592 C13.8438666,5.25808306 14.0958524,4.2480707 13.6340662,3.44823345 C13.1722799,2.6483962 12.1715907,2.36161616 11.3989641,2.80769231 C10.6263376,3.25376845 10.3743517,4.26378082 10.836138,5.06361806 Z M10.836138,8.44823345 C10.3743517,9.2480707 10.6263376,10.2580831 11.3989641,10.7041592 C12.1715907,11.1502353 13.1722799,10.8634553 13.6340662,10.0636181 C14.0958524,9.26378082 13.8438666,8.25376845 13.0712401,7.80769231 C12.2986135,7.36161616 11.2979242,7.6483962 10.836138,8.44823345 Z M7.67227594,11 C6.74870344,11 6,11.7232323 6,12.6153846 C6,13.5075369 6.74870344,14.2307692 7.67227594,14.2307692 C8.59584844,14.2307692 9.34455189,13.5075369 9.34455189,12.6153846 C9.34455189,11.7232323 8.59584844,11 7.67227594,11 Z M3.6340662,8.44823345 C3.17227995,7.6483962 2.17159066,7.36161616 1.39896411,7.80769231 C0.626337568,8.25376845 0.374351721,9.26378082 0.836137971,10.0636181 C1.29792422,10.8634553 2.29861351,11.1502353 3.07124006,10.7041592 C3.8438666,10.2580831 4.09585245,9.2480707 3.6340662,8.44823345 Z M3.6340662,5.06361806 C4.09585245,4.26378082 3.8438666,3.25376845 3.07124006,2.80769231 C2.29861351,2.36161616 1.29792422,2.6483962 0.836137971,3.44823345 C0.374351721,4.2480707 0.626337568,5.25808306 1.39896411,5.7041592 C2.17159066,6.15023535 3.17227995,5.86345531 3.6340662,5.06361806 Z" id="cameradot2"></path>
                    </g>
                    <g id="how3-cameradot1" transform="translate(28.000000, 5.000000)" fill="#56ACE1">
                        <path d="M7.5,3 C8.32842712,3 9,2.32842712 9,1.5 C9,0.671572875 8.32842712,0 7.5,0 C6.67157288,0 6,0.671572875 6,1.5 C6,2.32842712 6.67157288,3 7.5,3 Z M10.836138,5.06361806 C11.2979242,5.86345531 12.2986135,6.15023535 13.0712401,5.7041592 C13.8438666,5.25808306 14.0958524,4.2480707 13.6340662,3.44823345 C13.1722799,2.6483962 12.1715907,2.36161616 11.3989641,2.80769231 C10.6263376,3.25376845 10.3743517,4.26378082 10.836138,5.06361806 Z M10.836138,8.44823345 C10.3743517,9.2480707 10.6263376,10.2580831 11.3989641,10.7041592 C12.1715907,11.1502353 13.1722799,10.8634553 13.6340662,10.0636181 C14.0958524,9.26378082 13.8438666,8.25376845 13.0712401,7.80769231 C12.2986135,7.36161616 11.2979242,7.6483962 10.836138,8.44823345 Z M7.67227594,11 C6.74870344,11 6,11.7232323 6,12.6153846 C6,13.5075369 6.74870344,14.2307692 7.67227594,14.2307692 C8.59584844,14.2307692 9.34455189,13.5075369 9.34455189,12.6153846 C9.34455189,11.7232323 8.59584844,11 7.67227594,11 Z M3.6340662,8.44823345 C3.17227995,7.6483962 2.17159066,7.36161616 1.39896411,7.80769231 C0.626337568,8.25376845 0.374351721,9.26378082 0.836137971,10.0636181 C1.29792422,10.8634553 2.29861351,11.1502353 3.07124006,10.7041592 C3.8438666,10.2580831 4.09585245,9.2480707 3.6340662,8.44823345 Z M3.6340662,5.06361806 C4.09585245,4.26378082 3.8438666,3.25376845 3.07124006,2.80769231 C2.29861351,2.36161616 1.29792422,2.6483962 0.836137971,3.44823345 C0.374351721,4.2480707 0.626337568,5.25808306 1.39896411,5.7041592 C2.17159066,6.15023535 3.17227995,5.86345531 3.6340662,5.06361806 Z" id="cameradot1"></path>
                    </g>
                </g>
                <g id="how3-spin" transform="translate(726.000000, 211.000000)" stroke="#56ACE1" stroke-width="4">
                    <path d="M17.5,0 L17.5,8 M30.6364447,6.2857277 L24.0411618,11.6264825 M33.6411979,20.5210766 L25.3721641,18.6120197 M25.2072408,32.3529057 L21.486985,24.7252511 M10.486985,32.3529057 L14.2072408,24.7252511 M1.37216407,20.5210766 L9.64119791,18.6120197 M4.04116177,6.2857277 L10.6364447,11.6264825" id="Path-252"></path>
                </g>
                <g id="how3-plus" transform="translate(608.000000, 89.000000)" stroke="#224C83" stroke-width="4">
                    <path d="M9.5,0 L9.5,18" id="Path-226-Copy"></path>
                    <path d="M8.6211821,-0.121182103 L8.6211821,17.8788179" id="Path-226-Copy-2" transform="translate(8.794045, 8.672862) rotate(90.000000) translate(-8.794045, -8.672862) "></path>
                </g>
                <g id="how3-stars2" transform="translate(382.000000, 126.000000)" stroke-width="3">
                    <path d="M5.58325301,8.30920262 C3.45221858,8.30920262 2.00434089,9.35220941 2.00434089,9.35220941 C1.62704384,9.57462209 1.51018687,9.45154462 1.73160254,9.05735722 C1.73160254,9.05735722 2.76690472,7.62388876 2.76690472,5.49285433 C2.76690472,3.3618199 1.72389793,1.91394221 1.72389793,1.91394221 C1.50148525,1.53664516 1.62456272,1.41978819 2.01875012,1.64120386 C2.01875012,1.64120386 3.45221858,2.67650604 5.58325301,2.67650604 C7.71428744,2.67650604 9.16216513,1.63349925 9.16216513,1.63349925 C9.53946218,1.41108657 9.65631915,1.53416405 9.43490348,1.92835144 C9.43490348,1.92835144 8.3996013,3.3618199 8.3996013,5.49285433 C8.3996013,7.62388876 9.44260809,9.07176645 9.44260809,9.07176645 C9.66502077,9.4490635 9.54194329,9.56592047 9.1477559,9.3445048 C9.1477559,9.3445048 7.71428744,8.30920262 5.58325301,8.30920262 Z" id="Star-2-Copy-5" stroke="#56ACE1" transform="translate(5.251244, 5.251244) rotate(-315.000000) translate(-5.251244, -5.251244) "></path>
                    <path d="M366.038384,67.5318032 C364.151199,67.5318032 362.960651,68.4070015 362.960651,68.4070015 C362.575909,68.6307275 362.452925,68.5068243 362.669106,68.1154566 C362.669106,68.1154566 363.544304,66.9249083 363.544304,65.0377233 C363.544304,63.1505383 362.669106,61.9599899 362.669106,61.9599899 C362.44538,61.5752481 362.569283,61.4522645 362.960651,61.6684451 C362.960651,61.6684451 364.151199,62.5436433 366.038384,62.5436433 C367.925569,62.5436433 369.116117,61.6684451 369.116117,61.6684451 C369.500859,61.4447191 369.623843,61.5686223 369.407662,61.9599899 C369.407662,61.9599899 368.532464,63.1505383 368.532464,65.0377233 C368.532464,66.9249083 369.407662,68.1154566 369.407662,68.1154566 C369.631388,68.5001984 369.507485,68.6231821 369.116117,68.4070015 C369.116117,68.4070015 367.925569,67.5318032 366.038384,67.5318032 Z" id="Star-2-Copy-5" stroke="#224C83" transform="translate(366.251244, 65.251244) rotate(-315.000000) translate(-366.251244, -65.251244) "></path>
                    <path d="M286.109712,57.1652133 C281.526549,57.1652133 277.617596,59.8551583 277.617596,59.8551583 C277.24524,60.0867483 277.137884,59.971587 277.362716,59.6002783 C277.362716,59.6002783 280.052661,55.6913255 280.052661,51.108162 C280.052661,46.5249984 277.362716,42.6160457 277.362716,42.6160457 C277.131126,42.2436893 277.246287,42.136334 277.617596,42.3611657 C277.617596,42.3611657 281.526549,45.0511107 286.109712,45.0511107 C290.692876,45.0511107 294.601829,42.3611657 294.601829,42.3611657 C294.974185,42.1295757 295.08154,42.2447369 294.856709,42.6160457 C294.856709,42.6160457 292.166764,46.5249984 292.166764,51.108162 C292.166764,55.6913255 294.856709,59.6002783 294.856709,59.6002783 C295.088299,59.9726346 294.973138,60.07999 294.601829,59.8551583 C294.601829,59.8551583 290.692876,57.1652133 286.109712,57.1652133 Z" id="Star-2-Copy-5" stroke="#224C83" transform="translate(286.321682, 51.321682) rotate(-315.000000) translate(-286.321682, -51.321682) "></path>
                    <path d="M572.182505,106.172151 C566.892319,106.172151 562.282223,109.335288 562.282223,109.335288 C561.90662,109.570446 561.79509,109.461944 562.027924,109.08099 C562.027924,109.08099 565.191062,104.470894 565.191062,99.1807081 C565.191062,93.8905226 562.027924,89.2804263 562.027924,89.2804263 C561.792767,88.9048234 561.901268,88.7932934 562.282223,89.0261277 C562.282223,89.0261277 566.892319,92.1892655 572.182505,92.1892655 C577.47269,92.1892655 582.082786,89.0261277 582.082786,89.0261277 C582.458389,88.79097 582.569919,88.8994719 582.337085,89.2804263 C582.337085,89.2804263 579.173947,93.8905226 579.173947,99.1807081 C579.173947,104.470894 582.337085,109.08099 582.337085,109.08099 C582.572243,109.456593 582.463741,109.568123 582.082786,109.335288 C582.082786,109.335288 577.47269,106.172151 572.182505,106.172151 Z" id="Star-2-Copy-5" stroke="#224C83" transform="translate(572.276897, 99.276897) rotate(-315.000000) translate(-572.276897, -99.276897) "></path>
                    <path d="M382.192727,220.823433 C378.687955,220.823433 375.859352,222.786954 375.859352,222.786954 C375.485914,223.015689 375.377758,222.895268 375.597343,222.524945 C375.597343,222.524945 377.560864,219.696342 377.560864,216.19157 C377.560864,212.686798 375.597343,209.858196 375.597343,209.858196 C375.368609,209.484758 375.489029,209.376602 375.859352,209.596187 C375.859352,209.596187 378.687955,211.559708 382.192727,211.559708 C385.697499,211.559708 388.526101,209.596187 388.526101,209.596187 C388.89954,209.367452 389.007696,209.487872 388.788111,209.858196 C388.788111,209.858196 386.82459,212.686798 386.82459,216.19157 C386.82459,219.696342 388.788111,222.524945 388.788111,222.524945 C389.016845,222.898383 388.896425,223.006539 388.526101,222.786954 C388.526101,222.786954 385.697499,220.823433 382.192727,220.823433 Z" id="Star-2-Copy-5" stroke="#224C83" transform="translate(382.191570, 216.191570) rotate(-315.000000) translate(-382.191570, -216.191570) "></path>
                    <path d="M32.1927269,20.8234331 C28.6879548,20.8234331 25.8593524,22.7869541 25.8593524,22.7869541 C25.4859142,23.0156886 25.3777583,22.8952683 25.5973432,22.5249448 C25.5973432,22.5249448 27.5608642,19.6963424 27.5608642,16.1915703 C27.5608642,12.6867982 25.5973432,9.85819584 25.5973432,9.85819584 C25.3686086,9.48475758 25.4890289,9.37660172 25.8593524,9.59618657 C25.8593524,9.59618657 28.6879548,11.5597076 32.1927269,11.5597076 C35.697499,11.5597076 38.5261014,9.59618657 38.5261014,9.59618657 C38.8995396,9.36745204 39.0076955,9.48787235 38.7881107,9.85819584 C38.7881107,9.85819584 36.8245897,12.6867982 36.8245897,16.1915703 C36.8245897,19.6963424 38.7881107,22.5249448 38.7881107,22.5249448 C39.0168452,22.898383 38.8964249,23.0065389 38.5261014,22.7869541 C38.5261014,22.7869541 35.697499,20.8234331 32.1927269,20.8234331 Z" id="Star-2-Copy-5" stroke="#56ACE1" transform="translate(32.191570, 16.191570) rotate(-315.000000) translate(-32.191570, -16.191570) "></path>
                </g>
                <g id="how3-heart" transform="translate(494.000000, 73.000000)" stroke="#224C83" stroke-width="4" fill="#C4EDFA">
                    <path d="M6.35168185,18.5606475 C11.5172212,24.6345661 18.8643149,31.2854268 18.8643149,31.2854268 C18.8643149,31.2854268 26.569151,24.1113648 30.9077831,19.0377669 C35.2464152,13.964169 36.376378,8.06754551 30.9077833,4.9353712 C25.4391885,1.80319689 18.8643143,11.0092893 18.8643143,11.0092893 C18.8643143,11.0092893 11.1943746,2.13151677 6.35168171,4.93537119 C1.50898884,7.7392256 1.18614251,12.4867289 6.35168185,18.5606475 Z" id="heart" transform="translate(18.727753, 17.670708) rotate(-13.000000) translate(-18.727753, -17.670708) "></path>
                </g>
            </g>
        </g>
    </g>
</svg>