<?xml version="1.0" encoding="UTF-8" standalone="no"?>
<svg width="704px" height="511px" viewBox="0 0 704 511" version="1.1" xmlns="http://www.w3.org/2000/svg" xmlns:xlink="http://www.w3.org/1999/xlink">
    <!-- Generator: Sketch 3.8.3 (29802) - http://www.bohemiancoding.com/sketch -->
    <title>intro1</title>
    <desc>Created with Sketch.</desc>
    <defs>
        <rect id="path-1" x="8.29278642" y="101.967359" width="32.417256" height="23.3649852" rx="11.6824926"></rect>
        <mask id="mask-2" maskContentUnits="userSpaceOnUse" maskUnits="objectBoundingBox" x="0" y="0" width="32.417256" height="23.3649852" fill="white">
            <use xlink:href="#path-1"></use>
        </mask>
        <rect id="path-3" x="8.29278642" y="117.795252" width="32.417256" height="23.3649852" rx="11.6824926"></rect>
        <mask id="mask-4" maskContentUnits="userSpaceOnUse" maskUnits="objectBoundingBox" x="0" y="0" width="32.417256" height="23.3649852" fill="white">
            <use xlink:href="#path-3"></use>
        </mask>
        <rect id="path-5" x="8.86291549" y="99.9673591" width="34.6459424" height="23.3649852" rx="11.6824926"></rect>
        <mask id="mask-6" maskContentUnits="userSpaceOnUse" maskUnits="objectBoundingBox" x="0" y="0" width="34.6459424" height="23.3649852" fill="white">
            <use xlink:href="#path-5"></use>
        </mask>
        <rect id="path-7" x="8.86291549" y="115.795252" width="34.6459424" height="23.3649852" rx="11.6824926"></rect>
        <mask id="mask-8" maskContentUnits="userSpaceOnUse" maskUnits="objectBoundingBox" x="0" y="0" width="34.6459424" height="23.3649852" fill="white">
            <use xlink:href="#path-7"></use>
        </mask>
    </defs>
    <g id="Page-1" stroke="none" stroke-width="1" fill="none" fill-rule="evenodd">
        <g id="Desktop-HD-Copy-2" transform="translate(-609.000000, -2297.000000)">
            <g id="intro1" transform="translate(609.000000, 2301.000000)">
                <g id="intro1-cloud2" transform="translate(332.000000, 129.000000)" fill="#C4EDFA">
                    <path d="M97.5268825,81 L303.038042,81 L284.053807,81 C276.605547,81 270.556035,87.0441559 270.556035,94.5 C270.556035,101.957483 276.599193,108 284.053807,108 L303.038042,108 L97.5268825,108 L119.634388,108 C127.082648,108 133.132159,101.955844 133.132159,94.5 C133.132159,87.0425165 127.089001,81 119.634388,81 L97.5268825,81 Z M75.6639931,27 L281.175153,27 L262.190917,27 C254.742658,27 248.693146,33.0441559 248.693146,40.5 C248.693146,47.9574835 254.736304,54 262.190917,54 L281.175153,54 L75.6639931,54 L97.7714988,54 C105.219758,54 111.26927,47.9558441 111.26927,40.5 C111.26927,33.0425165 105.226112,27 97.7714988,27 L75.6639931,27 Z M0.41239292,13.5 C0.41239292,6.04415588 6.4619047,0 13.9101642,0 L260.513066,0 C267.967679,0 274.010837,6.04251654 274.010837,13.5 C274.010837,20.9558441 267.961325,27 260.513066,27 L13.9101642,27 C6.45555095,27 0.41239292,20.9574835 0.41239292,13.5 Z M33.848564,67.5 C33.848564,60.0441559 39.8998767,54 47.3567728,54 L357.617118,54 C365.077495,54 371.125326,60.0425165 371.125326,67.5 C371.125326,74.9558441 365.074014,81 357.617118,81 L47.3567728,81 C39.8963951,81 33.848564,74.9574835 33.848564,67.5 Z M97.5268825,121.5 C97.5268825,114.044156 103.570072,108 111.019051,108 L328.507832,108 C335.959351,108 342,114.042517 342,121.5 C342,128.955844 335.956811,135 328.507832,135 L111.019051,135 C103.567532,135 97.5268825,128.957483 97.5268825,121.5 Z" id="cloud2"></path>
                </g>
                <g id="intro1-cloud1" transform="translate(0.000000, 55.000000)" fill="#C4EDFA">
                    <path d="M89.9920088,99 L275.038077,99 L259.298491,99 C251.834426,99 245.790674,105.041365 245.790674,112.493766 L245.790674,118.506234 C245.790674,125.947291 251.83833,132 259.298491,132 L275.038077,132 L89.9920088,132 L108.543845,132 C116.007909,132 122.051662,125.958635 122.051662,118.506234 L122.051662,112.493766 C122.051662,105.052709 116.004006,99 108.543845,99 L89.9920088,99 Z M70.3062568,33 L255.352325,33 L239.612739,33 C232.148675,33 226.104922,39.041365 226.104922,46.4937664 L226.104922,52.5062336 C226.104922,59.9472914 232.152578,66 239.612739,66 L255.352325,66 L70.3062568,66 L88.8580926,66 C96.3221575,66 102.36591,59.958635 102.36591,52.5062336 L102.36591,46.4937664 C102.36591,39.0527086 96.3182541,33 88.8580926,33 L70.3062568,33 Z M78.7430077,13.4937664 C78.7430077,6.04136501 84.7811661,0 92.2398811,0 L355.139081,0 C362.593199,0 368.635955,6.05270863 368.635955,13.4937664 L368.635955,19.5062336 C368.635955,26.958635 362.597796,33 355.139081,33 L92.2398811,33 C84.7857637,33 78.7430077,26.9472914 78.7430077,19.5062336 L78.7430077,13.4937664 Z M0,79.4937664 C0,72.041365 6.03715747,66 13.4991576,66 L263.226269,66 C270.681648,66 276.725427,72.0527086 276.725427,79.4937664 L276.725427,85.5062336 C276.725427,92.958635 270.688269,99 263.226269,99 L13.4991576,99 C6.0437787,99 0,92.9472914 0,85.5062336 L0,79.4937664 Z M89.9920088,145.493766 C89.9920088,138.041365 96.0357613,132 103.499826,132 L322.837315,132 C330.297477,132 336.345133,138.052709 336.345133,145.493766 L336.345133,151.506234 C336.345133,158.958635 330.30138,165 322.837315,165 L103.499826,165 C96.0396646,165 89.9920088,158.947291 89.9920088,151.506234 L89.9920088,145.493766 Z" id="cloud1"></path>
                </g>
                <g id="Group-39" transform="translate(125.000000, 0.000000)">
                    <g id="Group-38" transform="translate(14.323904, 231.925816)">
                        <path d="M24.1244696,105.630985 L24.1244696,101.630985 L24.1244696,48.0253618 C24.1244696,21.5016869 45.7203965,0 72.3734088,0 C99.0205621,0 120.622348,21.5108456 120.622348,48.0256723 L120.622348,50.6790434" id="Rectangle-296" stroke="#224C83" stroke-width="8"></path>
                        <use id="Rectangle-296" stroke="#224C83" mask="url(#mask-2)" stroke-width="8" fill="#56ACE1" xlink:href="#path-1"></use>
                        <rect id="Rectangle-298" fill="#FFEC00" x="0" y="115.534125" width="51.2644979" height="15.074184"></rect>
                        <use id="Rectangle-296-Copy" stroke="#224C83" mask="url(#mask-4)" stroke-width="8" fill="#56ACE1" xlink:href="#path-3"></use>
                    </g>
                    <g id="Group-38" transform="translate(455.683876, 303.925816) scale(-1, 1) translate(-455.683876, -303.925816) translate(391.183876, 233.925816)">
                        <path d="M25.7830269,101.630985 L25.7830269,48.0253618 C25.7830269,21.5016869 48.8636737,0 77.3490806,0 C105.828226,0 128.915134,21.5108456 128.915134,48.0256723 L128.915134,50.6790434" id="Rectangle-296" stroke="#224C83" stroke-width="8"></path>
                        <use id="Rectangle-296" stroke="#224C83" mask="url(#mask-6)" stroke-width="8" fill="#56ACE1" xlink:href="#path-5"></use>
                        <rect id="Rectangle-298" fill="#FFEC00" x="0" y="113.534125" width="54.7889321" height="15.074184"></rect>
                        <use id="Rectangle-296-Copy" stroke="#224C83" mask="url(#mask-8)" stroke-width="8" fill="#56ACE1" xlink:href="#path-7"></use>
                    </g>
                    <g id="Group-37" transform="translate(105.067893, 138.391691)"></g>
                    <path d="M214.858557,331.632047 C214.858557,331.632047 214.858557,344.445104 214.858557,397.204748 C214.858557,449.964392 279.093991,438.725081 279.093991,438.725081" id="Path-372" stroke="#224C83" stroke-width="11"></path>
                    <path d="M256.322489,321.833828 C256.322489,321.833828 256.322489,341.168703 256.322489,420.782895 C256.322489,500.397086 320.557923,483.43699 320.557923,483.43699" id="Path-372-Copy" stroke="#224C83" stroke-width="11" transform="translate(288.440206, 403.392346) scale(-1, 1) translate(-288.440206, -403.392346) "></path>
                    <rect id="Rectangle-302" fill="#FFEC00" x="265.369165" y="431.136499" width="17.3394625" height="30.9020772" rx="8.66973126"></rect>
                    <rect id="Rectangle-302-Copy" fill="#FFEC00" x="242.752475" y="475.344214" width="17.3394625" height="31.6557864" rx="8.66973126"></rect>
                    <path d="M18.0933517,354.997033 C12.0622339,354.997033 -3.36349042e-10,356.504451 1.0641088e-09,345.198813 C2.46454804e-09,333.893175 1.0641088e-09,300.250232 1.0641088e-09,269.827893 C1.0641088e-09,120.806063 117.065541,0 266.123055,0 C415.180569,0 533,120.05236 533,269.074184 C533,298.468843 532.429027,343.559685 530.738331,349.721068 C529.047635,355.882451 512.644979,354.997033 512.644979,354.997033" id="Oval-137" stroke="#56ACE1" stroke-width="8"></path>
                </g>
                <g id="intro1-stars2" transform="translate(179.000000, 74.000000)" stroke-width="3">
                    <path d="M357.353445,9.51660064 C354.959993,9.51660064 353.255065,10.7306084 353.255065,10.7306084 C352.874804,10.9569017 352.752805,10.8433253 352.976281,10.4518239 C352.976281,10.4518239 354.190289,8.74689659 354.190289,6.35344458 C354.190289,3.95999258 352.976281,2.25506523 352.976281,2.25506523 C352.749987,1.87480356 352.863564,1.75280511 353.255065,1.97628074 C353.255065,1.97628074 354.959993,3.19028853 357.353445,3.19028853 C359.746897,3.19028853 361.451824,1.97628074 361.451824,1.97628074 C361.832086,1.74998749 361.954084,1.8635639 361.730608,2.25506523 C361.730608,2.25506523 360.516601,3.95999258 360.516601,6.35344458 C360.516601,8.74689659 361.730608,10.4518239 361.730608,10.4518239 C361.956902,10.8320856 361.843325,10.9540841 361.451824,10.7306084 C361.451824,10.7306084 359.746897,9.51660064 357.353445,9.51660064 Z" id="Star-2-Copy" stroke="#224C83" transform="translate(357.353445, 6.353445) rotate(-315.000000) translate(-357.353445, -6.353445) "></path>
                    <path d="M427.353445,89.5166006 C424.959993,89.5166006 423.255065,90.7306084 423.255065,90.7306084 C422.874804,90.9569017 422.752805,90.8433253 422.976281,90.4518239 C422.976281,90.4518239 424.190289,88.7468966 424.190289,86.3534446 C424.190289,83.9599926 422.976281,82.2550652 422.976281,82.2550652 C422.749987,81.8748036 422.863564,81.7528051 423.255065,81.9762807 C423.255065,81.9762807 424.959993,83.1902885 427.353445,83.1902885 C429.746897,83.1902885 431.451824,81.9762807 431.451824,81.9762807 C431.832086,81.7499875 431.954084,81.8635639 431.730608,82.2550652 C431.730608,82.2550652 430.516601,83.9599926 430.516601,86.3534446 C430.516601,88.7468966 431.730608,90.4518239 431.730608,90.4518239 C431.956902,90.8320856 431.843325,90.9540841 431.451824,90.7306084 C431.451824,90.7306084 429.746897,89.5166006 427.353445,89.5166006 Z" id="Star-2-Copy" stroke="#224C83" transform="translate(427.353445, 86.353445) rotate(-315.000000) translate(-427.353445, -86.353445) "></path>
                    <path d="M147.353445,23.7689541 C143.890514,23.7689541 141.09568,25.7090339 141.09568,25.7090339 C140.7267,25.9350378 140.619835,25.8160551 140.84759,25.4313409 C140.84759,25.4313409 142.776879,22.6553191 142.776879,19.1923882 C142.776879,15.7294572 140.836799,12.9346237 140.836799,12.9346237 C140.610795,12.5656437 140.729778,12.458779 141.114492,12.6865333 C141.114492,12.6865333 143.890514,14.6158222 147.353445,14.6158222 C150.816376,14.6158222 153.611209,12.6757424 153.611209,12.6757424 C153.980189,12.4497386 154.087054,12.5687212 153.859299,12.9534354 C153.859299,12.9534354 151.930011,15.7294572 151.930011,19.1923882 C151.930011,22.6553191 153.87009,25.4501526 153.87009,25.4501526 C154.096094,25.8191326 153.977111,25.9259973 153.592397,25.698243 C153.592397,25.698243 150.816376,23.7689541 147.353445,23.7689541 Z" id="Star-2-Copy" stroke="#224C83" transform="translate(147.353445, 19.192388) rotate(-315.000000) translate(-147.353445, -19.192388) "></path>
                    <path d="M7.35344458,70.5915032 C4.68965155,70.5915032 2.70859637,71.9885834 2.70859637,71.9885834 C2.33153066,72.2150591 2.21925529,72.0912564 2.43592898,71.715916 C2.43592898,71.715916 3.83300922,69.7348608 3.83300922,67.0710678 C3.83300922,64.4072748 2.43592898,62.4262196 2.43592898,62.4262196 C2.20945331,62.0491539 2.33325598,61.9368785 2.70859637,62.1535522 C2.70859637,62.1535522 4.68965155,63.5506325 7.35344458,63.5506325 C10.0172376,63.5506325 11.9982928,62.1535522 11.9982928,62.1535522 C12.3753585,61.9270765 12.4876339,62.0508792 12.2709602,62.4262196 C12.2709602,62.4262196 10.8738799,64.4072748 10.8738799,67.0710678 C10.8738799,69.7348608 12.2709602,71.715916 12.2709602,71.715916 C12.4974359,72.0929817 12.3736332,72.2052571 11.9982928,71.9885834 C11.9982928,71.9885834 10.0172376,70.5915032 7.35344458,70.5915032 Z" id="Star-2-Copy" stroke="#224C83" transform="translate(7.353445, 67.071068) rotate(-315.000000) translate(-7.353445, -67.071068) "></path>
                    <path d="M357.353445,103.591503 C354.689652,103.591503 352.708596,104.988583 352.708596,104.988583 C352.331531,105.215059 352.219255,105.091256 352.435929,104.715916 C352.435929,104.715916 353.833009,102.734861 353.833009,100.071068 C353.833009,97.4072748 352.435929,95.4262196 352.435929,95.4262196 C352.209453,95.0491539 352.333256,94.9368785 352.708596,95.1535522 C352.708596,95.1535522 354.689652,96.5506325 357.353445,96.5506325 C360.017238,96.5506325 361.998293,95.1535522 361.998293,95.1535522 C362.375359,94.9270765 362.487634,95.0508792 362.27096,95.4262196 C362.27096,95.4262196 360.87388,97.4072748 360.87388,100.071068 C360.87388,102.734861 362.27096,104.715916 362.27096,104.715916 C362.497436,105.092982 362.373633,105.205257 361.998293,104.988583 C361.998293,104.988583 360.017238,103.591503 357.353445,103.591503 Z" id="Star-2-Copy" stroke="#56ACE1" transform="translate(357.353445, 100.071068) rotate(-315.000000) translate(-357.353445, -100.071068) "></path>
                </g>
                <g id="intro1-stars1" transform="translate(149.000000, 54.000000)" stroke-width="3">
                    <path d="M477.353445,9.51660064 C474.959993,9.51660064 473.255065,10.7306084 473.255065,10.7306084 C472.874804,10.9569017 472.752805,10.8433253 472.976281,10.4518239 C472.976281,10.4518239 474.190289,8.74689659 474.190289,6.35344458 C474.190289,3.95999258 472.976281,2.25506523 472.976281,2.25506523 C472.749987,1.87480356 472.863564,1.75280511 473.255065,1.97628074 C473.255065,1.97628074 474.959993,3.19028853 477.353445,3.19028853 C479.746897,3.19028853 481.451824,1.97628074 481.451824,1.97628074 C481.832086,1.74998749 481.954084,1.8635639 481.730608,2.25506523 C481.730608,2.25506523 480.516601,3.95999258 480.516601,6.35344458 C480.516601,8.74689659 481.730608,10.4518239 481.730608,10.4518239 C481.956902,10.8320856 481.843325,10.9540841 481.451824,10.7306084 C481.451824,10.7306084 479.746897,9.51660064 477.353445,9.51660064 Z" id="Star-2-Copy" stroke="#224C83" transform="translate(477.353445, 6.353445) rotate(-315.000000) translate(-477.353445, -6.353445) "></path>
                    <path d="M417.353445,113.768954 C413.890514,113.768954 411.09568,115.709034 411.09568,115.709034 C410.7267,115.935038 410.619835,115.816055 410.84759,115.431341 C410.84759,115.431341 412.776879,112.655319 412.776879,109.192388 C412.776879,105.729457 410.836799,102.934624 410.836799,102.934624 C410.610795,102.565644 410.729778,102.458779 411.114492,102.686533 C411.114492,102.686533 413.890514,104.615822 417.353445,104.615822 C420.816376,104.615822 423.611209,102.675742 423.611209,102.675742 C423.980189,102.449739 424.087054,102.568721 423.859299,102.953435 C423.859299,102.953435 421.930011,105.729457 421.930011,109.192388 C421.930011,112.655319 423.87009,115.450153 423.87009,115.450153 C424.096094,115.819133 423.977111,115.925997 423.592397,115.698243 C423.592397,115.698243 420.816376,113.768954 417.353445,113.768954 Z" id="Star-2-Copy" stroke="#224C83" transform="translate(417.353445, 109.192388) rotate(-315.000000) translate(-417.353445, -109.192388) "></path>
                    <path d="M137.353445,50.5915032 C134.689652,50.5915032 132.708596,51.9885834 132.708596,51.9885834 C132.331531,52.2150591 132.219255,52.0912564 132.435929,51.715916 C132.435929,51.715916 133.833009,49.7348608 133.833009,47.0710678 C133.833009,44.4072748 132.435929,42.4262196 132.435929,42.4262196 C132.209453,42.0491539 132.333256,41.9368785 132.708596,42.1535522 C132.708596,42.1535522 134.689652,43.5506325 137.353445,43.5506325 C140.017238,43.5506325 141.998293,42.1535522 141.998293,42.1535522 C142.375359,41.9270765 142.487634,42.0508792 142.27096,42.4262196 C142.27096,42.4262196 140.87388,44.4072748 140.87388,47.0710678 C140.87388,49.7348608 142.27096,51.715916 142.27096,51.715916 C142.497436,52.0929817 142.373633,52.2052571 141.998293,51.9885834 C141.998293,51.9885834 140.017238,50.5915032 137.353445,50.5915032 Z" id="Star-2-Copy" stroke="#224C83" transform="translate(137.353445, 47.071068) rotate(-315.000000) translate(-137.353445, -47.071068) "></path>
                    <path d="M7.35344458,20.5915032 C4.68965155,20.5915032 2.70859637,21.9885834 2.70859637,21.9885834 C2.33153066,22.2150591 2.21925529,22.0912564 2.43592898,21.715916 C2.43592898,21.715916 3.83300922,19.7348608 3.83300922,17.0710678 C3.83300922,14.4072748 2.43592898,12.4262196 2.43592898,12.4262196 C2.20945331,12.0491539 2.33325598,11.9368785 2.70859637,12.1535522 C2.70859637,12.1535522 4.68965155,13.5506325 7.35344458,13.5506325 C10.0172376,13.5506325 11.9982928,12.1535522 11.9982928,12.1535522 C12.3753585,11.9270765 12.4876339,12.0508792 12.2709602,12.4262196 C12.2709602,12.4262196 10.8738799,14.4072748 10.8738799,17.0710678 C10.8738799,19.7348608 12.2709602,21.715916 12.2709602,21.715916 C12.4974359,22.0929817 12.3736332,22.2052571 11.9982928,21.9885834 C11.9982928,21.9885834 10.0172376,20.5915032 7.35344458,20.5915032 Z" id="Star-2-Copy" stroke="#56ACE1" transform="translate(7.353445, 17.071068) rotate(-315.000000) translate(-7.353445, -17.071068) "></path>
                </g>
                <g id="Group-36" transform="translate(230.067893, 135.391691)">
                    <polygon id="brain-bg" fill="#56ACE1" points="42.9249163 40.3106006 43.6884219 38.0200837 44.4519275 36.4930725 45.2154331 34.9660613 45.9789387 34.2025556 46.7424444 32.6755444 47.50595 31.9120388 48.2694556 31.1485332 49.0329612 30.3850276 49.7964668 29.621522 50.5599724 28.8580163 51.323478 28.0945107 52.8504893 28.0945107 52.8504893 27.3310051 53.6139949 26.5674995 55.1410061 26.5674995 55.1410061 25.8039939 56.6680173 25.8039939 56.6680173 25.0404883 58.9585342 25.0404883 58.9585342 24.2769827 62.7760623 24.2769827 62.7760623 23.513477 69.6476128 23.513477 69.6476128 24.2769827 73.4651409 24.2769827 73.4651409 25.0404883 75.7556577 25.0404883 75.7556577 25.8039939 77.2826689 25.8039939 77.2826689 26.5674995 78.8096802 26.5674995 78.8096802 27.3310051 79.5731858 28.0945107 81.100197 28.0945107 81.100197 28.8580163 81.8637026 29.621522 82.6272082 30.3850276 83.3907139 31.1485332 84.9177251 31.1485332 84.9177251 30.3850276 85.6812307 29.621522 86.4447363 28.8580163 85.6812307 28.0945107 86.4447363 26.5674995 87.2082419 25.8039939 87.9717475 24.2769827 88.7352532 23.513477 89.4987588 22.7499714 90.2622644 21.9864658 91.02577 21.2229602 91.7892756 19.695949 92.5527812 18.9324434 93.3162868 18.1689377 94.0797925 17.4054321 94.8432981 16.6419265 95.6068037 15.8784209 97.1338149 15.8784209 97.1338149 15.1149153 97.8973205 14.3514097 98.6608261 13.5879041 99.4243318 12.8243984 100.187837 12.0608928 101.714849 12.0608928 101.714849 11.2973872 102.478354 10.5338816 104.005365 10.5338816 104.005365 9.77037598 104.768871 9.00687036 106.295882 9.00687036 106.295882 8.24336475 107.822894 8.24336475 107.822894 7.47985914 109.349905 7.47985914 109.349905 6.71635352 110.876916 6.71635352 110.876916 5.95284791 112.403927 5.95284791 112.403927 5.18934229 113.930938 5.18934229 113.930938 4.42583668 116.221455 4.42583668 116.221455 3.66233106 118.511972 3.66233106 118.511972 2.89882545 121.565995 2.89882545 121.565995 2.13531983 124.620017 2.13531983 124.620017 1.37181422 129.964556 1.37181422 129.964556 0.608308605 142.180646 0.608308605 142.180646 1.37181422 147.525185 1.37181422 147.525185 2.13531983 150.579208 2.13531983 150.579208 2.89882545 153.63323 2.89882545 153.63323 3.66233106 155.923747 3.66233106 155.923747 4.42583668 158.214264 4.42583668 158.214264 5.18934229 159.741275 5.18934229 159.741275 5.95284791 161.268287 5.95284791 161.268287 6.71635352 162.795298 6.71635352 162.795298 7.47985914 164.322309 7.47985914 164.322309 8.24336475 165.84932 8.24336475 165.84932 9.00687036 167.376331 9.00687036 167.376331 9.77037598 168.139837 10.5338816 169.666848 10.5338816 169.666848 11.2973872 170.430354 12.0608928 171.957365 12.0608928 171.957365 12.8243984 172.720871 13.5879041 173.484376 14.3514097 174.247882 15.1149153 175.011388 15.8784209 176.538399 15.8784209 176.538399 16.6419265 177.301904 17.4054321 178.06541 18.1689377 178.828916 18.9324434 179.592421 19.695949 180.355927 21.2229602 181.119432 21.9864658 181.882938 22.7499714 182.646444 23.513477 183.409949 24.2769827 184.173455 25.8039939 184.936961 26.5674995 185.700466 28.0945107 186.463972 28.8580163 187.227477 30.3850276 187.990983 29.621522 189.517994 29.621522 189.517994 28.8580163 190.2815 28.0945107 189.517994 25.0404883 190.2815 24.2769827 191.045005 22.7499714 191.808511 21.9864658 192.572017 21.2229602 193.335522 20.4594546 194.099028 19.695949 194.862534 18.9324434 195.626039 18.1689377 196.389545 17.4054321 197.15305 16.6419265 197.916556 15.8784209 198.680062 15.1149153 199.443567 14.3514097 200.970578 14.3514097 200.970578 13.5879041 201.734084 12.8243984 203.261095 12.8243984 203.261095 12.0608928 204.024601 11.2973872 205.551612 11.2973872 205.551612 10.5338816 207.078623 10.5338816 207.078623 9.77037598 208.605635 9.77037598 208.605635 9.00687036 210.896151 9.00687036 210.896151 8.24336475 213.186668 8.24336475 213.186668 7.47985914 215.477185 7.47985914 215.477185 6.71635352 219.294713 6.71635352 219.294713 5.95284791 234.564826 5.95284791 234.564826 6.71635352 238.382354 6.71635352 238.382354 7.47985914 240.67287 7.47985914 240.67287 8.24336475 242.963387 8.24336475 242.963387 9.00687036 245.253904 9.00687036 245.253904 9.77037598 246.780915 9.77037598 246.780915 10.5338816 248.307927 10.5338816 248.307927 11.2973872 249.834938 11.2973872 249.834938 12.0608928 250.598443 12.8243984 252.125455 12.8243984 252.125455 13.5879041 252.88896 14.3514097 254.415971 14.3514097 254.415971 15.1149153 255.179477 15.8784209 255.942983 16.6419265 256.706488 17.4054321 257.469994 18.1689377 258.2335 18.9324434 258.997005 19.695949 259.760511 20.4594546 260.524016 21.2229602 261.287522 21.9864658 262.051028 22.7499714 262.814533 24.2769827 263.578039 25.0404883 264.341544 26.5674995 265.10505 27.3310051 265.868556 28.8580163 266.632061 30.3850276 267.395567 31.9120388 268.159073 33.43905 268.922578 35.7295669 269.686084 38.0200837 270.449589 41.0741062 271.213095 45.6551399 271.976601 55.5807128 271.213095 60.1617465 270.449589 63.215769 269.686084 66.2697914 271.213095 66.2697914 271.213095 67.0332971 272.740106 67.0332971 272.740106 66.2697914 273.503612 67.0332971 277.32114 67.0332971 277.32114 67.7968027 280.375162 67.7968027 280.375162 68.5603083 281.902174 68.5603083 281.902174 69.3238139 283.429185 69.3238139 283.429185 70.0873195 284.956196 70.0873195 284.956196 70.8508251 286.483207 70.8508251 286.483207 71.6143307 287.246713 72.3778364 288.010219 73.141342 289.53723 73.141342 289.53723 73.9048476 290.300735 74.6683532 291.064241 75.4318588 291.827747 76.1953644 292.591252 76.95887 293.354758 78.4858813 294.118263 79.2493869 294.881769 80.0128925 295.645275 81.5399037 296.40878 83.066915 297.172286 84.5939262 297.935792 86.1209374 298.699297 89.1749599 299.462803 92.9924879 300.226308 101.39105 299.462803 104.445072 298.699297 107.499095 297.935792 109.026106 297.172286 110.553117 296.40878 112.080128 295.645275 113.60714 294.881769 114.370645 294.118263 115.134151 293.354758 116.661162 294.118263 118.951679 294.881769 123.532713 295.645275 132.69478 294.881769 137.275814 294.118263 139.56633 293.354758 141.856847 292.591252 144.147364 291.827747 145.674375 291.064241 146.437881 290.300735 147.964892 289.53723 149.491903 288.773724 150.255409 288.010219 151.018915 287.246713 152.545926 286.483207 153.309431 285.719702 154.072937 284.956196 154.836443 284.19269 155.599948 283.429185 156.363454 282.665679 157.12696 281.902174 157.890465 280.375162 157.890465 280.375162 158.653971 279.611657 159.417476 278.848151 160.180982 277.32114 160.180982 277.32114 160.944488 275.794129 160.944488 275.794129 161.707993 275.030623 162.471499 273.503612 162.471499 273.503612 163.235004 271.213095 163.235004 271.213095 163.99851 268.922578 163.99851 268.922578 164.762016 266.632061 164.762016 266.632061 165.525521 262.051028 165.525521 262.051028 166.289027 252.88896 166.289027 252.88896 165.525521 248.307927 165.525521 248.307927 164.762016 246.01741 164.762016 246.01741 163.99851 243.726893 163.99851 243.726893 163.235004 241.436376 163.235004 241.436376 163.99851 239.909365 163.99851 239.909365 168.579544 239.145859 171.633566 238.382354 173.924083 237.618848 175.451094 236.855342 176.978106 236.091837 178.505117 235.328331 179.268622 234.564826 180.795634 233.80132 181.559139 233.037814 182.322645 232.274309 183.08615 231.510803 183.849656 230.747297 184.613162 229.983792 185.376667 228.456781 185.376667 228.456781 186.140173 227.693275 186.903679 226.166264 186.903679 226.166264 187.667184 224.639253 187.667184 224.639253 188.43069 223.112241 188.43069 223.112241 189.194195 220.821724 189.194195 220.821724 189.957701 217.767702 189.957701 217.767702 190.721207 209.36914 190.721207 209.36914 189.957701 206.315118 189.957701 206.315118 189.194195 204.024601 189.194195 204.024601 188.43069 202.49759 188.43069 202.49759 187.667184 200.970578 187.667184 200.970578 186.903679 199.443567 186.903679 199.443567 186.140173 198.680062 185.376667 197.15305 185.376667 197.15305 184.613162 196.389545 183.849656 195.626039 184.613162 194.862534 185.376667 193.335522 185.376667 193.335522 186.140173 192.572017 186.903679 191.808511 187.667184 190.2815 187.667184 190.2815 188.43069 189.517994 189.194195 187.990983 189.194195 187.990983 189.957701 187.227477 190.721207 185.700466 190.721207 185.700466 191.484712 184.173455 191.484712 184.173455 192.248218 181.882938 192.248218 181.882938 193.011723 180.355927 193.011723 180.355927 193.775229 178.06541 193.775229 178.06541 194.538735 175.011388 194.538735 175.011388 195.30224 170.430354 195.30224 170.430354 196.065746 159.741275 196.065746 159.741275 195.30224 155.160242 195.30224 155.160242 194.538735 152.106219 194.538735 152.106219 193.775229 149.815702 193.775229 149.815702 193.011723 148.288691 193.011723 148.288691 192.248218 145.998174 192.248218 145.998174 191.484712 144.471163 191.484712 144.471163 190.721207 142.944152 190.721207 142.944152 189.957701 142.180646 189.194195 140.653635 189.194195 140.653635 188.43069 139.890129 187.667184 138.363118 187.667184 138.363118 186.903679 137.599612 186.140173 138.363118 184.613162 136.836107 184.613162 136.836107 183.849656 135.309096 183.849656 135.309096 185.376667 134.54559 186.140173 133.782084 187.667184 133.018579 188.43069 132.255073 189.194195 131.491568 189.957701 130.728062 190.721207 129.964556 191.484712 129.201051 192.248218 128.437545 193.011723 127.674039 193.775229 126.147028 193.775229 126.147028 194.538735 125.383523 195.30224 123.856511 195.30224 123.856511 196.065746 122.3295 196.065746 122.3295 196.829252 120.802489 196.829252 120.802489 197.592757 118.511972 197.592757 118.511972 198.356263 114.694444 198.356263 114.694444 199.119768 106.295882 199.119768 106.295882 198.356263 102.478354 198.356263 102.478354 197.592757 100.187837 197.592757 100.187837 196.829252 98.6608261 196.829252 98.6608261 196.065746 97.1338149 196.065746 97.1338149 195.30224 95.6068037 195.30224 95.6068037 194.538735 94.8432981 193.775229 93.3162868 193.775229 93.3162868 193.011723 92.5527812 192.248218 91.7892756 191.484712 91.02577 190.721207 90.2622644 189.957701 89.4987588 189.194195 88.7352532 188.43069 87.9717475 187.667184 87.2082419 186.140173 86.4447363 185.376667 85.6812307 183.849656 84.9177251 182.322645 84.1542195 180.032128 83.3907139 179.268622 80.3366914 179.268622 80.3366914 180.032128 78.8096802 180.032128 78.8096802 180.795634 76.5191633 180.795634 76.5191633 181.559139 73.4651409 181.559139 73.4651409 182.322645 68.8841072 182.322645 68.8841072 183.08615 58.1950286 183.08615 58.1950286 182.322645 53.6139949 182.322645 53.6139949 181.559139 50.5599724 181.559139 50.5599724 180.795634 48.2694556 180.795634 48.2694556 180.032128 46.7424444 180.032128 46.7424444 179.268622 44.4519275 179.268622 44.4519275 178.505117 42.9249163 178.505117 42.9249163 177.741611 41.3979051 177.741611 41.3979051 176.978106 40.6343994 176.2146 39.1073882 176.2146 39.1073882 175.451094 38.3438826 174.687589 36.8168714 174.687589 36.8168714 173.924083 36.0533658 173.160577 35.2898601 172.397072 33.7628489 172.397072 33.7628489 171.633566 32.9993433 170.870061 32.2358377 170.106555 31.4723321 169.343049 30.7088265 168.579544 29.9453208 167.816038 29.1818152 166.289027 28.4183096 165.525521 27.654804 164.762016 26.8912984 163.235004 26.1277928 162.471499 25.3642872 160.944488 24.6007815 160.180982 23.8372759 158.653971 23.0737703 157.12696 22.3102647 154.836443 21.5467591 153.309431 20.7832535 151.018915 20.0197479 147.964892 19.2562422 143.383858 18.4927366 132.69478 19.2562422 128.113746 20.0197479 125.059724 20.7832535 122.769207 21.5467591 121.242196 20.7832535 120.47869 21.5467591 118.951679 20.7832535 118.188173 19.2562422 118.188173 19.2562422 117.424668 18.4927366 116.661162 16.9657254 116.661162 16.9657254 115.897656 16.2022198 115.134151 14.6752086 115.134151 14.6752086 114.370645 13.9117029 113.60714 13.1481973 112.843634 12.3846917 112.080128 11.6211861 111.316623 10.8576805 110.553117 10.0941749 109.789611 9.33066925 108.2626 8.56716364 107.499095 7.80365803 106.735589 7.04015241 105.208578 6.2766468 104.445072 5.51314118 102.918061 4.74963557 101.39105 3.98612995 99.1005329 3.22262434 97.5735216 2.45911873 94.5194992 1.69561311 90.7019711 0.932107496 80.7763981 1.69561311 76.95887 2.45911873 73.9048476 3.22262434 72.3778364 3.98612995 70.0873195 4.74963557 68.5603083 5.51314118 67.0332971 6.2766468 66.2697914 7.04015241 64.7427802 7.80365803 63.9792746 8.56716364 63.215769 9.33066925 61.6887578 10.0941749 60.9252521 10.8576805 60.1617465 11.6211861 59.3982409 12.3846917 58.6347353 13.1481973 57.8712297 13.9117029 57.1077241 15.4387142 57.1077241 15.4387142 56.3442185 16.2022198 55.5807128 16.9657254 54.8172072 18.4927366 54.8172072 18.4927366 54.0537016 19.2562422 53.290196 20.7832535 53.290196 20.7832535 52.5266904 22.3102647 52.5266904 22.3102647 51.7631848 24.6007815 51.7631848 24.6007815 50.9996792 26.1277928 50.9996792 26.1277928 50.2361735 29.1818152 50.2361735 29.1818152 49.4726679 32.9993433 49.4726679 32.9993433 48.7091623 42.9249163 48.7091623 42.9249163 45.6551399 42.1614107 44.1281286 42.9249163 42.6011174"></polygon>
                    <path d="M68.0305836,58.6705089 C61.1379831,51.7598838 51.6042059,47.4836795 41.0714286,47.4836795 C20.0451592,47.4836795 3,64.5247582 3,85.5459941 C3,106.56723 20.0451592,123.608309 41.0714286,123.608309 L41.0714286,123.608309 C49.0165031,123.608309 56.3931493,121.17516 62.4965362,117.013526" id="Oval-136" stroke="#224C83" stroke-width="6"></path>
                    <path d="M177.479438,126.07143 C166.227791,127.568072 157.547383,137.199353 157.547383,148.857567 C157.547383,156.970132 161.750703,164.101193 168.098797,168.192698 L168.098797,168.192698" id="Oval-136-Copy-19" stroke="#224C83" stroke-width="6"></path>
                    <path d="M237.083256,134.821887 C237.331022,133.255958 237.459689,131.65042 237.459689,130.014837 C237.459689,113.156222 223.789809,99.4896142 206.927157,99.4896142 C190.064505,99.4896142 176.394625,113.156222 176.394625,130.014837 C176.394625,135.368926 177.773396,140.401063 180.195329,144.775719 L180.195329,144.775719" id="Oval-136-Copy-18" stroke="#224C83" stroke-width="6"></path>
                    <path d="M76.3237667,114.75739 C74.2702164,118.769043 73.1117397,123.314547 73.1117397,128.130564 C73.1117397,144.364786 86.275328,157.525223 102.513437,157.525223 L102.513437,157.525223 C113.340388,157.525223 122.800495,151.67447 127.903126,142.962882" id="Oval-136-Copy-17" stroke="#224C83" stroke-width="6"></path>
                    <path d="M23.5864177,120.17262 C21.4913913,125.431935 20.3394625,131.169013 20.3394625,137.175074 C20.3394625,162.567062 40.9286647,183.151335 66.3267327,183.151335 L66.3267327,183.151335 C84.4757652,183.151335 100.169251,172.640406 107.64915,157.375207" id="Oval-136-Copy-16" stroke="#224C83" stroke-width="6"></path>
                    <path d="M84.5684517,179.022497 L84.5684517,179.022497 C88.6254696,190.642608 99.6844145,198.979228 112.690948,198.979228 C129.137238,198.979228 142.46959,185.650068 142.46959,169.207715 C142.46959,165.061891 141.621971,161.113992 140.090538,157.527782" id="Oval-136-Copy-15" stroke="#224C83" stroke-width="6"></path>
                    <path d="M138.50545,186.394581 L138.50545,186.394581 C146.274612,192.394668 156.017359,195.964392 166.594059,195.964392 C191.992127,195.964392 212.58133,175.380118 212.58133,149.988131 C212.58133,137.922747 207.932663,126.942857 200.328301,118.741028" id="Oval-136-Copy-14" stroke="#224C83" stroke-width="6"></path>
                    <path d="M196.115795,183.678405 L196.115795,183.678405 C200.984737,188.037567 207.41575,190.688427 214.466054,190.688427 C229.663258,190.688427 241.983027,178.371608 241.983027,163.178042" id="Oval-136-Copy-13" stroke="#224C83" stroke-width="6"></path>
                    <path d="M227.097005,151.730027 L227.097005,151.730027 C234.278345,160.771686 245.369262,166.569733 257.81471,166.569733 C279.465522,166.569733 297.016973,149.022484 297.016973,127.376855 C297.016973,105.731226 279.465522,88.1839763 257.81471,88.1839763 C248.734463,88.1839763 240.375262,91.2704032 233.729447,96.4511553" id="Oval-136-Copy-12" stroke="#224C83" stroke-width="6"></path>
                    <path d="M295.184081,115.502642 C299.174682,110.206064 301.540311,103.616616 301.540311,96.4747774 C301.540311,78.9917694 287.364139,64.8189911 269.876945,64.8189911" id="Oval-136-Copy-11" stroke="#224C83" stroke-width="6"></path>
                    <path d="M266.942678,74.7912325 C271.195831,67.8233783 273.646393,59.6354858 273.646393,50.8753709 C273.646393,25.483383 253.057191,4.89910979 227.659123,4.89910979 C211.239517,4.89910979 196.829776,13.502302 188.693753,26.4458525" id="Oval-136-Copy-10" stroke="#224C83" stroke-width="6"></path>
                    <path d="M238.247073,74.5720435 C242.008495,69.6790852 244.244696,63.5531487 244.244696,56.9050445 C244.244696,40.8789538 231.249872,27.8872404 215.219943,27.8872404 C206.455978,27.8872404 198.599231,31.770573 193.277327,37.9100027" id="Oval-136-Copy-9" stroke="#224C83" stroke-width="6"></path>
                    <path d="M102.878967,105.75874 L102.878967,105.75874 C110.035066,115.227799 121.391135,121.347181 134.176803,121.347181 C155.827615,121.347181 173.379066,103.799932 173.379066,82.1543027 C173.379066,72.4253107 169.833315,63.5242751 163.963282,56.6723731" id="Oval-136-Copy-8" stroke="#224C83" stroke-width="6"></path>
                    <path d="M139.30601,62.3012918 L139.30601,62.3012918 C141.629528,62.9593847 144.081616,63.3115727 146.615983,63.3115727 C161.396826,63.3115727 173.379066,51.3322006 173.379066,36.5548961 C173.379066,29.9892272 171.013661,23.975896 167.088352,19.3202107" id="Oval-136-Copy-7" stroke="#224C83" stroke-width="6"></path>
                    <path d="M153.103621,98.90119 C147.235902,84.6500044 133.208544,74.6172107 116.837341,74.6172107 C114.680422,74.6172107 112.564188,74.7913627 110.501939,75.1263693" id="Oval-136-Copy-6" stroke="#224C83" stroke-width="6"></path>
                    <path d="M159.452402,35.678089 C154.0482,30.8337158 146.906819,27.8872404 139.077086,27.8872404 C128.418745,27.8872404 119.035947,33.347185 113.574345,41.6220557" id="Oval-136-Copy-5" stroke="#224C83" stroke-width="6"></path>
                    <path d="M45.0735007,79.4424632 L45.0735007,79.4424632 C52.1931121,89.3032848 63.7874938,95.7210682 76.8811881,95.7210682 C98.5320002,95.7210682 116.083451,78.1738189 116.083451,56.5281899 C116.083451,45.1021746 111.19285,34.8181468 103.390274,27.6542582" id="Oval-136-Copy-4" stroke="#224C83" stroke-width="6"></path>
                    <path d="M192.084437,86.9009668 C196.037103,78.8765912 198.257426,69.8458936 198.257426,60.2967359 C198.257426,26.9957682 171.255193,0 137.946252,0 C115.941474,0 96.6891185,11.7817012 86.1560326,29.3796854" id="Oval-136-Copy-3" stroke="#224C83" stroke-width="6"></path>
                    <path d="M94.2206506,47.8605341 C94.2206506,33.9157539 82.9134658,22.611276 68.9653465,22.611276 C55.0172272,22.611276 43.7100424,33.9157539 43.7100424,47.8605341" id="Oval-136-Copy-2" stroke="#224C83" stroke-width="6"></path>
                </g>
            </g>
        </g>
    </g>
</svg>