<?xml version="1.0" encoding="UTF-8" standalone="no"?>
<svg width="706px" height="508px" viewBox="0 0 706 508" version="1.1" xmlns="http://www.w3.org/2000/svg" xmlns:xlink="http://www.w3.org/1999/xlink">
    <!-- Generator: Sketch 3.8.3 (29802) - http://www.bohemiancoding.com/sketch -->
    <title>intro2</title>
    <desc>Created with Sketch.</desc>
    <defs></defs>
    <g id="Page-1" stroke="none" stroke-width="1" fill="none" fill-rule="evenodd">
        <g id="Desktop-HD-Copy-2" transform="translate(-1582.000000, -2312.000000)">
            <g id="intro2" transform="translate(1582.000000, 2312.000000)">
                <g id="intro2-cloud3" transform="translate(307.000000, 280.000000)" fill="#C4EDFA">
                    <path d="M97.5268825,145 L303.038042,145 L284.053807,145 C276.605547,145 270.556035,151.044156 270.556035,158.5 C270.556035,165.957483 276.599193,172 284.053807,172 L303.038042,172 L97.5268825,172 L119.634388,172 C127.082648,172 133.132159,165.955844 133.132159,158.5 C133.132159,151.042517 127.089001,145 119.634388,145 L97.5268825,145 Z M75.6639931,91 L281.175153,91 L262.190917,91 C254.742658,91 248.693146,97.0441559 248.693146,104.5 C248.693146,111.957483 254.736304,118 262.190917,118 L281.175153,118 L75.6639931,118 L97.7714988,118 C105.219758,118 111.26927,111.955844 111.26927,104.5 C111.26927,97.0425165 105.226112,91 97.7714988,91 L75.6639931,91 Z M0.41239292,77.5 C0.41239292,70.0441559 6.4619047,64 13.9101642,64 L260.513066,64 C267.967679,64 274.010837,70.0425165 274.010837,77.5 C274.010837,84.9558441 267.961325,91 260.513066,91 L13.9101642,91 C6.45555095,91 0.41239292,84.9574835 0.41239292,77.5 Z M33.848564,131.5 C33.848564,124.044156 39.8874341,118 47.3443142,118 L300.16141,118 C307.614907,118 313.65716,124.042517 313.65716,131.5 C313.65716,138.955844 307.61829,145 300.16141,145 L47.3443142,145 C39.8908171,145 33.848564,138.957483 33.848564,131.5 Z M97.5268825,185.5 C97.5268825,178.044156 103.564496,172 111.032702,172 L276.906573,172 C284.365632,172 290.412393,178.042517 290.412393,185.5 C290.412393,192.955844 284.374779,199 276.906573,199 L111.032702,199 C103.573644,199 97.5268825,192.957483 97.5268825,185.5 Z M33.4123929,13.5 C33.4123929,6.04415588 39.4619047,0 46.9101642,0 L293.513066,0 C300.967679,0 307.010837,6.04251654 307.010837,13.5 C307.010837,20.9558441 300.961325,27 293.513066,27 L46.9101642,27 C39.455551,27 33.4123929,20.9574835 33.4123929,13.5 Z" id="OK"></path>
                </g>
                <g id="intro2-cloud2" transform="translate(329.000000, 0.000000)" fill="#C4EDFA">
                    <path d="M97.5268825,81 L303.038042,81 L284.053807,81 C276.605547,81 270.556035,87.0441559 270.556035,94.5 C270.556035,101.957483 276.599193,108 284.053807,108 L303.038042,108 L97.5268825,108 L119.634388,108 C127.082648,108 133.132159,101.955844 133.132159,94.5 C133.132159,87.0425165 127.089001,81 119.634388,81 L97.5268825,81 Z M75.6639931,27 L281.175153,27 L262.190917,27 C254.742658,27 248.693146,33.0441559 248.693146,40.5 C248.693146,47.9574835 254.736304,54 262.190917,54 L281.175153,54 L75.6639931,54 L97.7714988,54 C105.219758,54 111.26927,47.9558441 111.26927,40.5 C111.26927,33.0425165 105.226112,27 97.7714988,27 L75.6639931,27 Z M0.41239292,13.5 C0.41239292,6.04415588 6.4619047,0 13.9101642,0 L260.513066,0 C267.967679,0 274.010837,6.04251654 274.010837,13.5 C274.010837,20.9558441 267.961325,27 260.513066,27 L13.9101642,27 C6.45555095,27 0.41239292,20.9574835 0.41239292,13.5 Z M33.848564,67.5 C33.848564,60.0441559 39.8998767,54 47.3567728,54 L357.617118,54 C365.077495,54 371.125326,60.0425165 371.125326,67.5 C371.125326,74.9558441 365.074014,81 357.617118,81 L47.3567728,81 C39.8963951,81 33.848564,74.9574835 33.848564,67.5 Z M97.5268825,121.5 C97.5268825,114.044156 103.570072,108 111.019051,108 L328.507832,108 C335.959351,108 342,114.042517 342,121.5 C342,128.955844 335.956811,135 328.507832,135 L111.019051,135 C103.567532,135 97.5268825,128.957483 97.5268825,121.5 Z" id="OK"></path>
                </g>
                <g id="intro2-video" transform="translate(185.000000, 70.000000)" stroke-width="8" stroke="#224C83">
                    <g id="Group-9">
                        <g id="Group-31">
                            <rect id="Rectangle-193" fill="#FEFFFF" x="0" y="0" width="372" height="296"></rect>
                            <rect id="Rectangle-194" x="0" y="220" width="76" height="76"></rect>
                            <polygon id="Rectangle-194-Copy" points="76 247 76 230 76 220 372 220 372 296 76 296"></polygon>
                        </g>
                        <g id="Group-15" transform="translate(24.000000, 241.000000)">
                            <path d="M4,0 L4,32" id="Path-187"></path>
                            <path d="M24,0 L24,32" id="Path-187-Copy"></path>
                        </g>
                        <g id="Group-10" transform="translate(92.000000, 244.000000)">
                            <path d="M0,16 L256,16" id="Path-189"></path>
                            <circle id="Oval-56" fill="#56ACE1" cx="192" cy="16" r="16"></circle>
                        </g>
                    </g>
                </g>
                <g id="intro2-heart" transform="translate(327.000000, 157.000000)" stroke="#224C83" stroke-width="8" fill="#FFEC00">
                    <path d="M9.75637381,36.4811195 C23.1810108,52.003356 42.2752543,69 42.2752543,69 C42.2752543,69 62.2992285,50.666286 73.5748296,37.7004247 C84.8504306,24.7345633 87.7870729,9.66541438 73.5748301,1.66096893 C59.3625872,-6.34347651 42.2752527,17.1832041 42.2752527,17.1832041 C42.2752527,17.1832041 22.3419699,-5.50443683 9.75637345,1.6609689 C-2.82922301,8.82637464 -3.66826314,20.9588831 9.75637381,36.4811195 Z" id="OK"></path>
                </g>
                <g id="intro2-cloud1" transform="translate(0.000000, 63.000000)" fill="#C4EDFA">
                    <path d="M64.5268825,81 L270.038042,81 L251.053807,81 C243.605547,81 237.556035,87.0441559 237.556035,94.5 C237.556035,101.957483 243.599193,108 251.053807,108 L270.038042,108 L64.5268825,108 L86.6343882,108 C94.0826476,108 100.132159,101.955844 100.132159,94.5 C100.132159,87.0425165 94.0890014,81 86.6343882,81 L64.5268825,81 Z M42.6639931,27 L248.175153,27 L229.190917,27 C221.742658,27 215.693146,33.0441559 215.693146,40.5 C215.693146,47.9574835 221.736304,54 229.190917,54 L248.175153,54 L42.6639931,54 L64.7714988,54 C72.2197583,54 78.2692701,47.9558441 78.2692701,40.5 C78.2692701,33.0425165 72.226112,27 64.7714988,27 L42.6639931,27 Z M48.4123929,13.5 C48.4123929,6.04415588 54.4543907,0 61.9172435,0 L227.505986,0 C234.964509,0 241.010837,6.04251654 241.010837,13.5 C241.010837,20.9558441 234.968839,27 227.505986,27 L61.9172435,27 C54.4587205,27 48.4123929,20.9574835 48.4123929,13.5 Z M0.848563969,67.5 C0.848563969,60.0441559 6.89987668,54 14.3567728,54 L324.617118,54 C332.077495,54 338.125326,60.0425165 338.125326,67.5 C338.125326,74.9558441 332.074014,81 324.617118,81 L14.3567728,81 C6.89639506,81 0.848563969,74.9574835 0.848563969,67.5 Z M64.5268825,121.5 C64.5268825,114.044156 70.5700717,108 78.0190507,108 L295.507832,108 C302.959351,108 309,114.042517 309,121.5 C309,128.955844 302.956811,135 295.507832,135 L78.0190507,135 C70.567532,135 64.5268825,128.957483 64.5268825,121.5 Z" id="OK"></path>
                </g>
                <g id="intro1-stars2" transform="translate(490.000000, 27.000000)" stroke-width="3">
                    <path d="M207.353445,110.516601 C204.959993,110.516601 203.255065,111.730608 203.255065,111.730608 C202.874804,111.956902 202.752805,111.843325 202.976281,111.451824 C202.976281,111.451824 204.190289,109.746897 204.190289,107.353445 C204.190289,104.959993 202.976281,103.255065 202.976281,103.255065 C202.749987,102.874804 202.863564,102.752805 203.255065,102.976281 C203.255065,102.976281 204.959993,104.190289 207.353445,104.190289 C209.746897,104.190289 211.451824,102.976281 211.451824,102.976281 C211.832086,102.749987 211.954084,102.863564 211.730608,103.255065 C211.730608,103.255065 210.516601,104.959993 210.516601,107.353445 C210.516601,109.746897 211.730608,111.451824 211.730608,111.451824 C211.956902,111.832086 211.843325,111.954084 211.451824,111.730608 C211.451824,111.730608 209.746897,110.516601 207.353445,110.516601 Z" id="Star-2-Copy" stroke="#224C83" transform="translate(207.353445, 107.353445) rotate(-315.000000) translate(-207.353445, -107.353445) "></path>
                    <path d="M97.3534446,66.8872548 C93.357755,66.8872548 90.0284763,69.1862799 90.0284763,69.1862799 C89.6604278,69.413656 89.5570142,69.2929758 89.7856164,68.9112217 C89.7856164,68.9112217 92.0727915,65.6022913 92.0727915,61.6066017 C92.0727915,57.6109122 89.7737664,54.2816335 89.7737664,54.2816335 C89.5463903,53.9135849 89.6670705,53.8101713 90.0488246,54.0387736 C90.0488246,54.0387736 93.357755,56.3259487 97.3534446,56.3259487 C101.349134,56.3259487 104.678413,54.0269236 104.678413,54.0269236 C105.046461,53.7995474 105.149875,53.9202277 104.921273,54.3019817 C104.921273,54.3019817 102.634098,57.6109122 102.634098,61.6066017 C102.634098,65.6022913 104.933123,68.93157 104.933123,68.93157 C105.160499,69.2996185 105.039819,69.4030321 104.658065,69.1744299 C104.658065,69.1744299 101.349134,66.8872548 97.3534446,66.8872548 Z" id="Star-2-Copy" stroke="#224C83" transform="translate(97.353445, 61.606602) rotate(-315.000000) translate(-97.353445, -61.606602) "></path>
                    <path d="M97.3534446,145.591503 C94.6896515,145.591503 92.7085964,146.988583 92.7085964,146.988583 C92.3315307,147.215059 92.2192553,147.091256 92.435929,146.715916 C92.435929,146.715916 93.8330092,144.734861 93.8330092,142.071068 C93.8330092,139.407275 92.435929,137.42622 92.435929,137.42622 C92.2094533,137.049154 92.333256,136.936879 92.7085964,137.153552 C92.7085964,137.153552 94.6896515,138.550632 97.3534446,138.550632 C100.017238,138.550632 101.998293,137.153552 101.998293,137.153552 C102.375359,136.927077 102.487634,137.050879 102.27096,137.42622 C102.27096,137.42622 100.87388,139.407275 100.87388,142.071068 C100.87388,144.734861 102.27096,146.715916 102.27096,146.715916 C102.497436,147.092982 102.373633,147.205257 101.998293,146.988583 C101.998293,146.988583 100.017238,145.591503 97.3534446,145.591503 Z" id="Star-2-Copy" stroke="#224C83" transform="translate(97.353445, 142.071068) rotate(-315.000000) translate(-97.353445, -142.071068) "></path>
                    <path d="M37.3534446,11.5915032 C34.6896515,11.5915032 32.7085964,12.9885834 32.7085964,12.9885834 C32.3315307,13.2150591 32.2192553,13.0912564 32.435929,12.715916 C32.435929,12.715916 33.8330092,10.7348608 33.8330092,8.07106781 C33.8330092,5.40727477 32.435929,3.4262196 32.435929,3.4262196 C32.2094533,3.04915389 32.333256,2.93687852 32.7085964,3.15355221 C32.7085964,3.15355221 34.6896515,4.55063245 37.3534446,4.55063245 C40.0172376,4.55063245 41.9982928,3.15355221 41.9982928,3.15355221 C42.3753585,2.92707654 42.4876339,3.05087921 42.2709602,3.4262196 C42.2709602,3.4262196 40.8738799,5.40727477 40.8738799,8.07106781 C40.8738799,10.7348608 42.2709602,12.715916 42.2709602,12.715916 C42.4974359,13.0929817 42.3736332,13.2052571 41.9982928,12.9885834 C41.9982928,12.9885834 40.0172376,11.5915032 37.3534446,11.5915032 Z" id="Star-2-Copy" stroke="#56ACE1" transform="translate(37.353445, 8.071068) rotate(-315.000000) translate(-37.353445, -8.071068) "></path>
                    <path d="M7.35344458,21.5915032 C4.68965155,21.5915032 2.70859637,22.9885834 2.70859637,22.9885834 C2.33153066,23.2150591 2.21925529,23.0912564 2.43592898,22.715916 C2.43592898,22.715916 3.83300922,20.7348608 3.83300922,18.0710678 C3.83300922,15.4072748 2.43592898,13.4262196 2.43592898,13.4262196 C2.20945331,13.0491539 2.33325598,12.9368785 2.70859637,13.1535522 C2.70859637,13.1535522 4.68965155,14.5506325 7.35344458,14.5506325 C10.0172376,14.5506325 11.9982928,13.1535522 11.9982928,13.1535522 C12.3753585,12.9270765 12.4876339,13.0508792 12.2709602,13.4262196 C12.2709602,13.4262196 10.8738799,15.4072748 10.8738799,18.0710678 C10.8738799,20.7348608 12.2709602,22.715916 12.2709602,22.715916 C12.4974359,23.0929817 12.3736332,23.2052571 11.9982928,22.9885834 C11.9982928,22.9885834 10.0172376,21.5915032 7.35344458,21.5915032 Z" id="Star-2-Copy" stroke="#224C83" transform="translate(7.353445, 18.071068) rotate(-315.000000) translate(-7.353445, -18.071068) "></path>
                </g>
                <g id="intro2-stars3" transform="translate(431.000000, 357.000000)" stroke-width="3">
                    <path d="M49.1148029,85.6352382 C46.4510099,85.6352382 44.4699547,87.0323185 44.4699547,87.0323185 C44.092889,87.2587942 43.9806136,87.1349915 44.1972873,86.7596511 C44.1972873,86.7596511 45.5943675,84.7785959 45.5943675,82.1148029 C45.5943675,79.4510099 44.1972873,77.4699547 44.1972873,77.4699547 C43.9708116,77.092889 44.0946143,76.9806136 44.4699547,77.1972873 C44.4699547,77.1972873 46.4510099,78.5943675 49.1148029,78.5943675 C51.7785959,78.5943675 53.7596511,77.1972873 53.7596511,77.1972873 C54.1367168,76.9708116 54.2489922,77.0946143 54.0323185,77.4699547 C54.0323185,77.4699547 52.6352382,79.4510099 52.6352382,82.1148029 C52.6352382,84.7785959 54.0323185,86.7596511 54.0323185,86.7596511 C54.2587942,87.1367168 54.1349915,87.2489922 53.7596511,87.0323185 C53.7596511,87.0323185 51.7785959,85.6352382 49.1148029,85.6352382 Z" id="Star-2-Copy" stroke="#224C83" transform="translate(49.114803, 82.114803) rotate(-315.000000) translate(-49.114803, -82.114803) "></path>
                    <path d="M89.1148029,145.635238 C86.4510099,145.635238 84.4699547,147.032318 84.4699547,147.032318 C84.092889,147.258794 83.9806136,147.134991 84.1972873,146.759651 C84.1972873,146.759651 85.5943675,144.778596 85.5943675,142.114803 C85.5943675,139.45101 84.1972873,137.469955 84.1972873,137.469955 C83.9708116,137.092889 84.0946143,136.980614 84.4699547,137.197287 C84.4699547,137.197287 86.4510099,138.594368 89.1148029,138.594368 C91.7785959,138.594368 93.7596511,137.197287 93.7596511,137.197287 C94.1367168,136.970812 94.2489922,137.094614 94.0323185,137.469955 C94.0323185,137.469955 92.6352382,139.45101 92.6352382,142.114803 C92.6352382,144.778596 94.0323185,146.759651 94.0323185,146.759651 C94.2587942,147.136717 94.1349915,147.248992 93.7596511,147.032318 C93.7596511,147.032318 91.7785959,145.635238 89.1148029,145.635238 Z" id="Star-2-Copy" stroke="#224C83" transform="translate(89.114803, 142.114803) rotate(-315.000000) translate(-89.114803, -142.114803) "></path>
                    <path d="M149.114803,10.6352382 C146.45101,10.6352382 144.469955,12.0323185 144.469955,12.0323185 C144.092889,12.2587942 143.980614,12.1349915 144.197287,11.7596511 C144.197287,11.7596511 145.594368,9.77859593 145.594368,7.11480289 C145.594368,4.45100985 144.197287,2.46995468 144.197287,2.46995468 C143.970812,2.09288897 144.094614,1.9806136 144.469955,2.19728729 C144.469955,2.19728729 146.45101,3.59436753 149.114803,3.59436753 C151.778596,3.59436753 153.759651,2.19728729 153.759651,2.19728729 C154.136717,1.97081162 154.248992,2.09461429 154.032318,2.46995468 C154.032318,2.46995468 152.635238,4.45100985 152.635238,7.11480289 C152.635238,9.77859593 154.032318,11.7596511 154.032318,11.7596511 C154.258794,12.1367168 154.134991,12.2489922 153.759651,12.0323185 C153.759651,12.0323185 151.778596,10.6352382 149.114803,10.6352382 Z" id="Star-2-Copy" stroke="#224C83" transform="translate(149.114803, 7.114803) rotate(-315.000000) translate(-149.114803, -7.114803) "></path>
                    <path d="M139.114803,60.6352382 C136.45101,60.6352382 134.469955,62.0323185 134.469955,62.0323185 C134.092889,62.2587942 133.980614,62.1349915 134.197287,61.7596511 C134.197287,61.7596511 135.594368,59.7785959 135.594368,57.1148029 C135.594368,54.4510099 134.197287,52.4699547 134.197287,52.4699547 C133.970812,52.092889 134.094614,51.9806136 134.469955,52.1972873 C134.469955,52.1972873 136.45101,53.5943675 139.114803,53.5943675 C141.778596,53.5943675 143.759651,52.1972873 143.759651,52.1972873 C144.136717,51.9708116 144.248992,52.0946143 144.032318,52.4699547 C144.032318,52.4699547 142.635238,54.4510099 142.635238,57.1148029 C142.635238,59.7785959 144.032318,61.7596511 144.032318,61.7596511 C144.258794,62.1367168 144.134991,62.2489922 143.759651,62.0323185 C143.759651,62.0323185 141.778596,60.6352382 139.114803,60.6352382 Z" id="Star-2-Copy" stroke="#224C83" transform="translate(139.114803, 57.114803) rotate(-315.000000) translate(-139.114803, -57.114803) "></path>
                    <path d="M10.3534446,31.8281044 C6.62413433,31.8281044 3.57454964,33.9403356 3.57454964,33.9403356 C3.19914758,34.171069 3.08498611,34.0601379 3.31260394,33.6783899 C3.31260394,33.6783899 5.42483508,30.6288052 5.42483508,26.8994949 C5.42483508,23.1701847 3.31260394,20.1206 3.31260394,20.1206 C3.08187049,19.7451979 3.19280162,19.6310365 3.57454964,19.8586543 C3.57454964,19.8586543 6.62413433,21.9708854 10.3534446,21.9708854 C14.0827548,21.9708854 17.1323395,19.8586543 17.1323395,19.8586543 C17.5077416,19.6279208 17.6219031,19.738852 17.3942852,20.1206 C17.3942852,20.1206 15.2820541,23.1701847 15.2820541,26.8994949 C15.2820541,30.6288052 17.3942852,33.6783899 17.3942852,33.6783899 C17.6250187,34.0537919 17.5140875,34.1679534 17.1323395,33.9403356 C17.1323395,33.9403356 14.0827548,31.8281044 10.3534446,31.8281044 Z" id="Star-2-Copy" stroke="#56ACE1" transform="translate(10.353445, 26.899495) rotate(-315.000000) translate(-10.353445, -26.899495) "></path>
                </g>
                <g id="intro2-stars1" transform="translate(81.000000, 87.000000)" stroke-width="3">
                    <path d="M46.3534446,11.5915032 C43.6896515,11.5915032 41.7085964,12.9885834 41.7085964,12.9885834 C41.3315307,13.2150591 41.2192553,13.0912564 41.435929,12.715916 C41.435929,12.715916 42.8330092,10.7348608 42.8330092,8.07106781 C42.8330092,5.40727477 41.435929,3.4262196 41.435929,3.4262196 C41.2094533,3.04915389 41.333256,2.93687852 41.7085964,3.15355221 C41.7085964,3.15355221 43.6896515,4.55063245 46.3534446,4.55063245 C49.0172376,4.55063245 50.9982928,3.15355221 50.9982928,3.15355221 C51.3753585,2.92707654 51.4876339,3.05087921 51.2709602,3.4262196 C51.2709602,3.4262196 49.8738799,5.40727477 49.8738799,8.07106781 C49.8738799,10.7348608 51.2709602,12.715916 51.2709602,12.715916 C51.4974359,13.0929817 51.3736332,13.2052571 50.9982928,12.9885834 C50.9982928,12.9885834 49.0172376,11.5915032 46.3534446,11.5915032 Z" id="Star-2-Copy" stroke="#224C83" transform="translate(46.353445, 8.071068) rotate(-315.000000) translate(-46.353445, -8.071068) "></path>
                    <path d="M70.3534446,51.5915032 C67.6896515,51.5915032 65.7085964,52.9885834 65.7085964,52.9885834 C65.3315307,53.2150591 65.2192553,53.0912564 65.435929,52.715916 C65.435929,52.715916 66.8330092,50.7348608 66.8330092,48.0710678 C66.8330092,45.4072748 65.435929,43.4262196 65.435929,43.4262196 C65.2094533,43.0491539 65.333256,42.9368785 65.7085964,43.1535522 C65.7085964,43.1535522 67.6896515,44.5506325 70.3534446,44.5506325 C73.0172376,44.5506325 74.9982928,43.1535522 74.9982928,43.1535522 C75.3753585,42.9270765 75.4876339,43.0508792 75.2709602,43.4262196 C75.2709602,43.4262196 73.8738799,45.4072748 73.8738799,48.0710678 C73.8738799,50.7348608 75.2709602,52.715916 75.2709602,52.715916 C75.4974359,53.0929817 75.3736332,53.2052571 74.9982928,52.9885834 C74.9982928,52.9885834 73.0172376,51.5915032 70.3534446,51.5915032 Z" id="Star-2-Copy" stroke="#224C83" transform="translate(70.353445, 48.071068) rotate(-315.000000) translate(-70.353445, -48.071068) "></path>
                    <path d="M10.3534446,89.8281044 C6.62413433,89.8281044 3.57454964,91.9403356 3.57454964,91.9403356 C3.19914758,92.171069 3.08498611,92.0601379 3.31260394,91.6783899 C3.31260394,91.6783899 5.42483508,88.6288052 5.42483508,84.8994949 C5.42483508,81.1701847 3.31260394,78.1206 3.31260394,78.1206 C3.08187049,77.7451979 3.19280162,77.6310365 3.57454964,77.8586543 C3.57454964,77.8586543 6.62413433,79.9708854 10.3534446,79.9708854 C14.0827548,79.9708854 17.1323395,77.8586543 17.1323395,77.8586543 C17.5077416,77.6279208 17.6219031,77.738852 17.3942852,78.1206 C17.3942852,78.1206 15.2820541,81.1701847 15.2820541,84.8994949 C15.2820541,88.6288052 17.3942852,91.6783899 17.3942852,91.6783899 C17.6250187,92.0537919 17.5140875,92.1679534 17.1323395,91.9403356 C17.1323395,91.9403356 14.0827548,89.8281044 10.3534446,89.8281044 Z" id="Star-2-Copy" stroke="#56ACE1" transform="translate(10.353445, 84.899495) rotate(-315.000000) translate(-10.353445, -84.899495) "></path>
                    <path d="M60.3534446,135.591503 C57.6896515,135.591503 55.7085964,136.988583 55.7085964,136.988583 C55.3315307,137.215059 55.2192553,137.091256 55.435929,136.715916 C55.435929,136.715916 56.8330092,134.734861 56.8330092,132.071068 C56.8330092,129.407275 55.435929,127.42622 55.435929,127.42622 C55.2094533,127.049154 55.333256,126.936879 55.7085964,127.153552 C55.7085964,127.153552 57.6896515,128.550632 60.3534446,128.550632 C63.0172376,128.550632 64.9982928,127.153552 64.9982928,127.153552 C65.3753585,126.927077 65.4876339,127.050879 65.2709602,127.42622 C65.2709602,127.42622 63.8738799,129.407275 63.8738799,132.071068 C63.8738799,134.734861 65.2709602,136.715916 65.2709602,136.715916 C65.4974359,137.092982 65.3736332,137.205257 64.9982928,136.988583 C64.9982928,136.988583 63.0172376,135.591503 60.3534446,135.591503 Z" id="Star-2-Copy" stroke="#224C83" transform="translate(60.353445, 132.071068) rotate(-315.000000) translate(-60.353445, -132.071068) "></path>
                </g>
            </g>
        </g>
    </g>
</svg>